<svg version="1.1" xmlns="http://www.w3.org/2000/svg" xmlns:xlink="http://www.w3.org/1999/xlink" width="47.57143" height="51.85714" viewBox="0,0,47.57143,51.85714"><g transform="translate(-296.2143,-154.07143)"><g data-paper-data="{&quot;isPaintingLayer&quot;:true}" fill-rule="nonzero" stroke-linejoin="miter" stroke-miterlimit="10" stroke-dasharray="" stroke-dashoffset="0" style="mix-blend-mode: normal"><path d="M296.2143,205.92857v-51.85714h47.57143v51.85714z" fill="none" stroke="none" stroke-width="0" stroke-linecap="butt"/><path d="M318.80358,165.00714c0,1.7397 -1.27599,3.15 -2.85,3.15c-1.57401,0 -2.85,-1.4103 -2.85,-3.15c0,-1.7397 1.27599,-3.15 2.85,-3.15c1.57401,0 2.85,1.4103 2.85,3.15z" data-paper-data="{&quot;origPos&quot;:null}" fill="#0392cf" stroke="none" stroke-width="0" stroke-linecap="butt"/><path d="M323.49734,174.85001c0.09229,0.02073 0.20864,0.06174 0.34484,0.12111c0.02105,0.00787 0.04207,0.01605 0.06303,0.02453c0.14681,0.05941 0.28492,0.13119 0.41358,0.21363c2.4045,1.32346 7.83857,5.83006 5.01989,8.31539c-2.4062,2.12161 -9.12404,-3.7364 -8.75423,-5.45538c-0.17036,-0.53585 -0.16188,-1.13203 0.06552,-1.69398c0.42207,-1.04301 1.46804,-1.64626 2.53342,-1.55353c0.10278,-0.00435 0.20731,0.00428 0.31394,0.02822z" data-paper-data="{&quot;origPos&quot;:null,&quot;origRot&quot;:0}" fill="#000000" stroke="none" stroke-width="0.5" stroke-linecap="butt"/><path d="M330.37225,180.74108c1.38228,0.55936 2.0368,2.1645 1.4619,3.58517c-0.5749,1.42068 -2.1615,2.11892 -3.54378,1.55956c-1.38228,-0.55936 -2.0368,-2.1645 -1.4619,-3.58517c0.5749,-1.42068 2.1615,-2.11892 3.54378,-1.55956z" data-paper-data="{&quot;origPos&quot;:null,&quot;origRot&quot;:0}" fill="#ffffff" stroke="none" stroke-width="0" stroke-linecap="butt"/><path d="M327.05358,171.22701c0,3.7665 -2.88777,6.81986 -6.45,6.81986c-3.56223,0 -6.45,-3.05335 -6.45,-6.81986c0,-3.7665 2.88777,-6.81987 6.45,-6.81987c3.56223,0 6.45,3.05336 6.45,6.81987z" data-paper-data="{&quot;origPos&quot;:null}" fill="#ffe896" stroke="none" stroke-width="0" stroke-linecap="butt"/><path d="M320.50358,174.9941c-1.07695,0 -1.95,-1.30957 -1.95,-2.925c0,-1.61543 0.87305,-2.925 1.95,-2.925c1.07696,0 1.95,1.30957 1.95,2.925c0,1.61544 -0.87305,2.925 -1.95,2.925z" data-paper-data="{&quot;origPos&quot;:null}" fill="#ffffff" stroke="none" stroke-width="0" stroke-linecap="butt"/><path d="M324.39162,174.70443c-0.86985,0 -1.575,-1.23402 -1.575,-2.75625c0,-1.52224 0.70515,-2.75625 1.575,-2.75625c0.86985,0 1.575,1.23402 1.575,2.75625c0,1.52224 -0.70515,2.75625 -1.575,2.75625z" data-paper-data="{&quot;origPos&quot;:null}" fill="#ffffff" stroke="none" stroke-width="0" stroke-linecap="butt"/><path d="M322.23814,173.0805c0,0.95269 -0.60441,1.725 -1.35,1.725c-0.74559,0 -1.35,-0.77231 -1.35,-1.725c0,-0.95269 0.60441,-1.725 1.35,-1.725c0.74559,0 1.35,0.77231 1.35,1.725z" fill="#000aa7" stroke="none" stroke-width="0" stroke-linecap="butt"/><path d="M313.87187,173.23107c-0.14796,-0.02079 -0.29541,-0.04138 -0.38971,-0.04138c-0.64496,-0.05477 -1.45571,0.11447 -1.91364,-0.31387c-0.15293,-0.14305 0.42815,-1.11371 0.52321,-1.24774c0.79806,-1.12523 1.72427,-2.55227 2.75117,-3.51281c0.71135,0.32412 -1.12014,-0.89463 -1.20951,-1.66194c-0.05293,-0.45444 3.89268,-1.14755 4.27735,-1.14755c0.49603,0.01551 3.06599,-0.21325 3.87947,0.2406c0.01498,-0.17997 0.01971,-0.3499 -0.0074,-0.46123c-0.11236,-0.46141 -0.15199,-0.77789 -0.08219,-1.04881h-0.00417v-0.66813h0.45795c0.11037,-0.10236 0.24155,-0.21072 0.3956,-0.33071c0.08567,0.08013 0.59208,0.55382 0.64286,0.60131c0.52635,0.70416 1.879,0.79117 2.48866,1.48672c0.68095,0.77688 0.79442,2.3698 1.00327,3.35318c0.00764,0.03249 0.01166,0.06625 0.01166,0.10088c0,0.02639 -0.00234,0.05228 -0.00683,0.07748c-0.0189,0.13767 -0.09876,0.31846 -0.3767,0.37745c-0.01109,0.00248 -0.02233,0.00461 -0.0337,0.00638c-0.12573,0.02094 -0.225,0.00517 -0.30301,-0.02941l0.00236,0.03244c-0.7939,0.7426 -1.47421,1.61259 -2.34101,0.39641c-0.01515,-0.25624 -0.63015,-0.34508 -0.94791,-0.40903c0.01689,0.37196 -0.09339,0.9119 -0.573,1.00643c-1.00706,0.19849 -1.60919,-0.3137 -2.94132,-0.00234c0.00126,0.08855 -0.0652,2.35507 -0.27953,2.80002c-0.16269,0.33774 -0.74717,0.89255 -1.1131,1.01883c0.12586,0.28318 0.24683,0.59369 0.27777,0.67087c0.39588,1.0062 1.08061,1.60185 0.27883,2.67332c-1.03883,1.38825 -2.46247,-2.3052 -2.38571,-1.88412c0.06152,0.33747 -0.37539,0.52385 -0.89279,0.62633l-0.70316,0.49329c-0.08425,0.06045 -0.18966,0.09637 -0.30404,0.09637c-0.27614,0 -0.5,-0.20939 -0.5,-0.46769v-0.26725c0,-0.00444 0,-0.00905 0,-0.01381v-0.25344h0.00115c0.00635,-0.61229 0.04771,-1.85207 0.31713,-2.29707z" data-paper-data="{&quot;origPos&quot;:null}" fill="#000000" stroke="none" stroke-width="0.5" stroke-linecap="butt"/><path d="M323.64706,161.65497c1.40833,0 2.55,1.17525 2.55,2.625c0,1.44975 -1.14168,2.625 -2.55,2.625c-1.40832,0 -2.55,-1.17525 -2.55,-2.625c0,-1.44975 1.14168,-2.625 2.55,-2.625z" data-paper-data="{&quot;origPos&quot;:null}" fill="#0392cf" stroke="none" stroke-width="0" stroke-linecap="butt"/><path d="M325.70512,172.93371c0,0.99411 -0.53726,1.8 -1.2,1.8c-0.66274,0 -1.2,-0.80589 -1.2,-1.8c0,-0.99411 0.53726,-1.8 1.2,-1.8c0.66274,0 1.2,0.80588 1.2,1.8z" data-paper-data="{&quot;origPos&quot;:null}" fill="#000aa7" stroke="none" stroke-width="0" stroke-linecap="butt"/><path d="M316.63757,169.47731c-0.42565,2.58225 -1.9675,4.5288 -3.44382,4.34774c-1.47632,-0.18106 -2.32806,-2.42116 -1.90241,-5.00341c0.42565,-2.58225 1.9675,-4.5288 3.44382,-4.34774c1.47632,0.18106 2.32806,2.42116 1.90241,5.00341z" data-paper-data="{&quot;origPos&quot;:null,&quot;origRot&quot;:0}" fill="#0392cf" stroke="none" stroke-width="0" stroke-linecap="butt"/><path d="M325.98929,164.1917c0,1.14059 -0.9149,2.06521 -2.04348,2.06521c-1.12858,0 -2.04348,-0.92462 -2.04348,-2.06521c0,-1.14059 0.9149,-2.06522 2.04348,-2.06522c1.12858,0 2.04348,0.92463 2.04348,2.06522z" data-paper-data="{&quot;origPos&quot;:null}" fill="#03b3ff" stroke="none" stroke-width="0" stroke-linecap="butt"/><path d="M327.05358,166.43214c0,1.44975 -3.25713,2.625 -7.275,2.625c-4.01787,0 -7.275,-1.17525 -7.275,-2.625c0,-1.44975 3.25713,-2.625 7.275,-2.625c4.01787,0 7.275,1.17525 7.275,2.625z" data-paper-data="{&quot;origPos&quot;:null}" fill="#0392cf" stroke="none" stroke-width="0" stroke-linecap="butt"/><path d="M322.54923,175.26801c0,0.16568 -0.33578,0.3 -0.75,0.3c-0.41422,0 -0.75,-0.13431 -0.75,-0.3c0,-0.16568 0.33578,-0.3 0.75,-0.3c0.41422,0 0.75,0.13432 0.75,0.3z" data-paper-data="{&quot;origPos&quot;:null}" fill="#000000" stroke="none" stroke-width="0" stroke-linecap="butt"/><path d="M318.43369,178.76416c-0.02607,0.09093 -0.07378,0.20469 -0.14098,0.33721c-0.00909,0.02056 -0.01848,0.04107 -0.02817,0.06149c-0.06786,0.14311 -0.14755,0.27679 -0.23735,0.40044c-1.46122,2.32336 -6.27657,7.48582 -8.59356,4.52721c-1.97791,-2.52565 4.2613,-8.89101 5.95583,-8.42174c0.54487,-0.13888 1.13954,-0.0957 1.68729,0.16404c1.01666,0.48208 1.55799,1.56141 1.40339,2.61957c-0.00164,0.10286 -0.01634,0.20671 -0.04645,0.31176z" data-paper-data="{&quot;origRot&quot;:0,&quot;origPos&quot;:null}" fill="#000000" stroke="none" stroke-width="0.5" stroke-linecap="butt"/><path d="M312.15232,185.2844c-0.63889,1.34737 -2.27941,1.90732 -3.66421,1.25068c-1.3848,-0.65664 -1.98947,-2.28121 -1.35058,-3.62858c0.63889,-1.34737 2.27941,-1.90732 3.66421,-1.25068c1.3848,0.65664 1.98947,2.28121 1.35058,3.62858z" data-paper-data="{&quot;origPos&quot;:null,&quot;origRot&quot;:0}" fill="#ffffff" stroke="none" stroke-width="0" stroke-linecap="butt"/><path d="M315.2773,195.86882l0.27773,-9.29585l4.49799,0.13439l-0.27772,9.29585z" data-paper-data="{&quot;origRot&quot;:0,&quot;origPos&quot;:null}" fill="#3f51b5" stroke="none" stroke-width="0" stroke-linecap="butt"/><path d="M322.26826,195.78239l-1.5708,-9.16638l3.84397,-0.65872l1.57079,9.16639z" data-paper-data="{&quot;origPos&quot;:null,&quot;origRot&quot;:0}" fill="#3f51b5" stroke="none" stroke-width="0" stroke-linecap="butt"/><path d="M315.59115,186.1v-8.1h9.12223v8.1z" data-paper-data="{&quot;origPos&quot;:null}" fill="#0fa1cc" stroke="none" stroke-width="0" stroke-linecap="butt"/><path d="M315.57243,189.84742v-3.9h9.30065v3.9z" data-paper-data="{&quot;origPos&quot;:null}" fill="#3f51b5" stroke="none" stroke-width="0" stroke-linecap="butt"/><path d="M320.15782,200.07591c-0.90373,0.79133 -2.69814,0.22023 -4.00792,-1.2756c-1.30978,-1.49582 -1.63896,-3.34993 -0.73523,-4.14127c0.90373,-0.79133 2.69814,-0.22022 4.00793,1.27561c1.30979,1.49583 1.63896,3.34993 0.73523,4.14126z" data-paper-data="{&quot;origPos&quot;:null,&quot;origRot&quot;:0}" fill="#000000" stroke="none" stroke-width="0" stroke-linecap="butt"/><path d="M315.27501,175.75l4.05,2.11034l-0.15,6.59482h-3.9z" data-paper-data="{&quot;origPos&quot;:null}" fill="#000000" stroke="#000000" stroke-width="0.5" stroke-linecap="round"/><path d="M325.02501,176.35l-0.3,8.25581h-2.85v-6.83684z" data-paper-data="{&quot;origPos&quot;:null}" fill="#000000" stroke="#000000" stroke-width="0.5" stroke-linecap="round"/><path d="M324.46289,167.00743c0,0.90732 -1.16726,1.64285 -2.60715,1.64285c-1.43989,0 -2.60715,-0.73553 -2.60715,-1.64285c0,-0.90732 1.16726,-1.64286 2.60715,-1.64286c1.43989,0 2.60715,0.73554 2.60715,1.64286z" data-paper-data="{&quot;origPos&quot;:null}" fill="#03b3ff" stroke="none" stroke-width="0" stroke-linecap="butt"/><path d="M322.82003,165.79314c0,0.35504 -0.30381,0.64286 -0.67857,0.64286c-0.37476,0 -0.67857,-0.28782 -0.67857,-0.64286c0,-0.35504 0.30381,-0.64286 0.67857,-0.64286c0.37476,0 0.67857,0.28782 0.67857,0.64286z" data-paper-data="{&quot;origPos&quot;:null}" fill="#000000" stroke="none" stroke-width="0" stroke-linecap="butt"/><path d="M320.42407,165.20619c0,0.32417 -0.30172,0.58696 -0.67391,0.58696c-0.37219,0 -0.67391,-0.26279 -0.67391,-0.58696c0,-0.32417 0.30172,-0.58696 0.67391,-0.58696c0.37219,0 0.67391,0.26279 0.67391,0.58696z" data-paper-data="{&quot;origPos&quot;:null}" fill="#000000" stroke="none" stroke-width="0" stroke-linecap="butt"/><path d="M324.03277,164.9888c0,0.32416 -0.30173,0.58696 -0.67391,0.58696c-0.37219,0 -0.67391,-0.26279 -0.67391,-0.58696c0,-0.32416 0.30173,-0.58695 0.67391,-0.58695c0.37219,0 0.67391,0.26279 0.67391,0.58695z" data-paper-data="{&quot;origPos&quot;:null}" fill="#000000" stroke="none" stroke-width="0" stroke-linecap="butt"/><path d="M317.64146,164.53952c0,1.14059 -0.9149,2.06522 -2.04348,2.06522c-1.12858,0 -2.04348,-0.92463 -2.04348,-2.06522c0,-1.14059 0.9149,-2.06522 2.04348,-2.06522c1.12858,0 2.04348,0.92463 2.04348,2.06522z" data-paper-data="{&quot;origPos&quot;:null}" fill="#03b3ff" stroke="none" stroke-width="0" stroke-linecap="butt"/><path d="M327.97773,199.41905c-0.71279,0.96688 -2.58796,0.79428 -4.18832,-0.38552c-1.60035,-1.17979 -2.31986,-2.92002 -1.60707,-3.88689c0.71279,-0.96688 2.58796,-0.79428 4.18832,0.38552c1.60035,1.1798 2.31986,2.92002 1.60707,3.88689z" data-paper-data="{&quot;origPos&quot;:null,&quot;origRot&quot;:0}" fill="#000000" stroke="none" stroke-width="0" stroke-linecap="butt"/></g></g></svg>