<svg version="1.1" xmlns="http://www.w3.org/2000/svg" xmlns:xlink="http://www.w3.org/1999/xlink" width="713.5" height="337.12924" viewBox="0,0,713.5,337.12924"><g transform="translate(25.5,-75.42076)"><g data-paper-data="{&quot;isPaintingLayer&quot;:true}" fill-rule="nonzero" stroke-width="2" stroke-linejoin="miter" stroke-miterlimit="10" stroke-dasharray="" stroke-dashoffset="0" style="mix-blend-mode: normal"><path d="M73,269h149l47,-11l47,-25l33,-41l29,-58l20,-51v318l44,4v-324l20,54l29,66l39,42l26,16l17,5l-4,7l-3,136l-499,-3z" fill="#4c2915" stroke="#000000" stroke-linecap="round"/><path d="M561.33333,410.74593v-146.33333h125.66667v146.33333z" fill="#4c2915" stroke="#000000" stroke-linecap="butt"/><path d="M-24.5,411.55v-142.5h109.66667v142.5z" fill="#4c2915" stroke="#000000" stroke-linecap="butt"/><path d="M582.78111,269.15843l47.31045,48.64459l-15.13921,39.07076l-43.70847,-38.66938l-52.09122,-59.93568l7.48517,-8.31642z" data-paper-data="{&quot;index&quot;:null}" fill="#4c2915" stroke="#4c2915" stroke-linecap="round"/><path d="M73.1,406.67296v-135.7h23.5v135.7z" fill="#4c2915" stroke="#4c2915" stroke-linecap="butt"/><path d="M559.21721,405.3v-103.75h4.25v103.75z" fill="#4c2915" stroke="#4c2915" stroke-linecap="butt"/></g></g></svg>