<svg version="1.1" xmlns="http://www.w3.org/2000/svg" xmlns:xlink="http://www.w3.org/1999/xlink" width="25.07804" height="39.06328" viewBox="0,0,25.07804,39.06328"><g transform="translate(-307.11425,-161.65497)"><g data-paper-data="{&quot;isPaintingLayer&quot;:true}" fill-rule="nonzero" stroke-linejoin="miter" stroke-miterlimit="10" stroke-dasharray="" stroke-dashoffset="0" style="mix-blend-mode: normal"><path d="M325.04871,175.06596c0.08786,0.03506 0.19626,0.09394 0.32137,0.17409c0.01954,0.0111 0.039,0.0225 0.05836,0.03418c0.13558,0.08187 0.26061,0.17457 0.37462,0.27632c2.1651,1.68686 6.81858,6.9957 3.64252,9.00429c-2.71128,1.71464 -8.4188,-5.13152 -7.78196,-6.77045c-0.08352,-0.55604 0.01907,-1.14338 0.33243,-1.66234c0.58162,-0.96319 1.70979,-1.39354 2.74712,-1.13358c0.10218,0.01194 0.20403,0.03699 0.30554,0.07749z" data-paper-data="{&quot;origRot&quot;:0}" fill="#000000" stroke="none" stroke-width="0.5" stroke-linecap="butt"/><path d="M330.90611,181.96959c1.2765,0.7708 1.66909,2.45922 0.87688,3.77116c-0.79222,1.31196 -2.46923,1.75065 -3.74573,0.97985c-1.2765,-0.7708 -1.66909,-2.45922 -0.87688,-3.77116c0.79222,-1.31196 2.46923,-1.75065 3.74573,-0.97985z" data-paper-data="{&quot;origRot&quot;:0}" fill="#ffffff" stroke="none" stroke-width="0" stroke-linecap="butt"/><path d="M318.80357,165.00714c0,1.7397 -1.27599,3.15 -2.85,3.15c-1.57401,0 -2.85,-1.4103 -2.85,-3.15c0,-1.7397 1.27599,-3.15 2.85,-3.15c1.57401,0 2.85,1.4103 2.85,3.15z" data-paper-data="{&quot;origPos&quot;:null}" fill="#0392cf" stroke="none" stroke-width="0" stroke-linecap="butt"/><path d="M327.05357,171.22701c0,3.7665 -2.88777,6.81986 -6.45,6.81986c-3.56223,0 -6.45,-3.05335 -6.45,-6.81986c0,-3.7665 2.88777,-6.81987 6.45,-6.81987c3.56223,0 6.45,3.05336 6.45,6.81987z" data-paper-data="{&quot;origPos&quot;:null}" fill="#ffe896" stroke="none" stroke-width="0" stroke-linecap="butt"/><path d="M320.50357,174.9941c-1.07695,0 -1.95,-1.30957 -1.95,-2.925c0,-1.61543 0.87305,-2.925 1.95,-2.925c1.07696,0 1.95,1.30957 1.95,2.925c0,1.61544 -0.87305,2.925 -1.95,2.925z" data-paper-data="{&quot;origPos&quot;:null}" fill="#ffffff" stroke="none" stroke-width="0" stroke-linecap="butt"/><path d="M324.39161,174.70443c-0.86985,0 -1.575,-1.23402 -1.575,-2.75625c0,-1.52224 0.70515,-2.75625 1.575,-2.75625c0.86985,0 1.575,1.23402 1.575,2.75625c0,1.52224 -0.70515,2.75625 -1.575,2.75625z" data-paper-data="{&quot;origPos&quot;:null}" fill="#ffffff" stroke="none" stroke-width="0" stroke-linecap="butt"/><path d="M322.46623,172.58731c0,0.95269 -0.60441,1.725 -1.35,1.725c-0.74559,0 -1.35,-0.77231 -1.35,-1.725c0,-0.95269 0.60441,-1.725 1.35,-1.725c0.74559,0 1.35,0.77231 1.35,1.725z" fill="#000aa7" stroke="none" stroke-width="0" stroke-linecap="butt"/><path d="M313.87186,173.23107c-0.14796,-0.02079 -0.29541,-0.04138 -0.38971,-0.04138c-0.64496,-0.05477 -1.45571,0.11447 -1.91364,-0.31387c-0.15293,-0.14305 0.42815,-1.11371 0.52321,-1.24774c0.79806,-1.12523 1.72427,-2.55227 2.75117,-3.51281c0.71135,0.32412 -1.12014,-0.89463 -1.20951,-1.66194c-0.05293,-0.45444 3.89268,-1.14755 4.27735,-1.14755c0.49603,0.01551 3.06599,-0.21325 3.87947,0.2406c0.01498,-0.17997 0.01971,-0.3499 -0.0074,-0.46123c-0.11236,-0.46141 -0.15199,-0.77789 -0.08219,-1.04881h-0.00417v-0.66813h0.45795c0.11037,-0.10236 0.24155,-0.21072 0.3956,-0.33071c0.08567,0.08013 0.59208,0.55382 0.64286,0.60131c0.52635,0.70416 1.879,0.79117 2.48866,1.48672c0.68095,0.77688 0.79442,2.3698 1.00327,3.35318c0.00764,0.03249 0.01166,0.06625 0.01166,0.10088c0,0.02639 -0.00234,0.05228 -0.00683,0.07748c-0.0189,0.13767 -0.09876,0.31846 -0.3767,0.37745c-0.01109,0.00248 -0.02233,0.00461 -0.0337,0.00638c-0.12573,0.02094 -0.225,0.00517 -0.30301,-0.02941l0.00236,0.03244c-0.7939,0.7426 -1.47421,1.61259 -2.34101,0.39641c-0.01515,-0.25624 -0.63015,-0.34508 -0.94791,-0.40903c0.01689,0.37196 -0.09339,0.9119 -0.573,1.00643c-1.00706,0.19849 -1.60919,-0.3137 -2.94132,-0.00234c0.00126,0.08855 -0.0652,2.35507 -0.27953,2.80002c-0.16269,0.33774 -0.74717,0.89255 -1.1131,1.01883c0.12586,0.28318 0.24683,0.59369 0.27777,0.67087c0.39588,1.0062 1.08061,1.60185 0.27883,2.67332c-1.03883,1.38825 -2.46247,-2.3052 -2.38571,-1.88412c0.06152,0.33747 -0.37539,0.52385 -0.89279,0.62633l-0.70316,0.49329c-0.08425,0.06045 -0.18966,0.09637 -0.30404,0.09637c-0.27614,0 -0.5,-0.20939 -0.5,-0.46769v-0.26725c0,-0.00444 0,-0.00905 0,-0.01381v-0.25344h0.00115c0.00635,-0.61229 0.04771,-1.85207 0.31713,-2.29707z" data-paper-data="{&quot;origPos&quot;:null}" fill="#000000" stroke="none" stroke-width="0.5" stroke-linecap="butt"/><path d="M323.64705,161.65497c1.40833,0 2.55,1.17525 2.55,2.625c0,1.44975 -1.14168,2.625 -2.55,2.625c-1.40832,0 -2.55,-1.17525 -2.55,-2.625c0,-1.44975 1.14168,-2.625 2.55,-2.625z" data-paper-data="{&quot;origPos&quot;:null}" fill="#0392cf" stroke="none" stroke-width="0" stroke-linecap="butt"/><path d="M325.79024,172.51368c0,0.99411 -0.53726,1.8 -1.2,1.8c-0.66274,0 -1.2,-0.80589 -1.2,-1.8c0,-0.99411 0.53726,-1.8 1.2,-1.8c0.66274,0 1.2,0.80588 1.2,1.8z" fill="#000aa7" stroke="none" stroke-width="0" stroke-linecap="butt"/><path d="M316.63756,169.48139c-0.42565,2.58436 -1.9675,4.53249 -3.44382,4.35128c-1.47632,-0.18121 -2.32806,-2.42313 -1.90241,-5.00749c0.42565,-2.58436 1.9675,-4.53249 3.44382,-4.35128c1.47632,0.18121 2.32806,2.42313 1.90241,5.00749z" data-paper-data="{&quot;origPos&quot;:null,&quot;origRot&quot;:0}" fill="#0392cf" stroke="none" stroke-width="0" stroke-linecap="butt"/><path d="M325.98928,164.1917c0,1.14059 -0.9149,2.06521 -2.04348,2.06521c-1.12858,0 -2.04348,-0.92462 -2.04348,-2.06521c0,-1.14059 0.9149,-2.06522 2.04348,-2.06522c1.12858,0 2.04348,0.92463 2.04348,2.06522z" data-paper-data="{&quot;origPos&quot;:null}" fill="#03b3ff" stroke="none" stroke-width="0" stroke-linecap="butt"/><path d="M327.05357,166.43214c0,1.44975 -3.25713,2.625 -7.275,2.625c-4.01787,0 -7.275,-1.17525 -7.275,-2.625c0,-1.44975 3.25713,-2.625 7.275,-2.625c4.01787,0 7.275,1.17525 7.275,2.625z" data-paper-data="{&quot;origPos&quot;:null}" fill="#0392cf" stroke="none" stroke-width="0" stroke-linecap="butt"/><path d="M322.54922,175.26801c0,0.16568 -0.33578,0.3 -0.75,0.3c-0.41422,0 -0.75,-0.13431 -0.75,-0.3c0,-0.16568 0.33578,-0.3 0.75,-0.3c0.41422,0 0.75,0.13432 0.75,0.3z" data-paper-data="{&quot;origPos&quot;:null}" fill="#000000" stroke="none" stroke-width="0" stroke-linecap="butt"/><path d="M318.32113,179.00876c-0.02038,0.09237 -0.06095,0.20886 -0.1198,0.34529c-0.00779,0.02108 -0.01591,0.04213 -0.0243,0.06312c-0.05886,0.14704 -0.1301,0.28541 -0.21206,0.41439c-1.31438,2.40948 -5.80045,7.86052 -8.29639,5.05123c-2.13067,-2.39819 3.70194,-9.13808 5.42231,-8.77475c0.53521,-0.17238 1.13141,-0.16615 1.69422,0.05912c1.0446,0.41812 1.65179,1.46183 1.56308,2.52753c0.00475,0.10276 -0.0035,0.20733 -0.02704,0.31405z" data-paper-data="{&quot;origRot&quot;:0}" fill="#000000" stroke="none" stroke-width="0.5" stroke-linecap="butt"/><path d="M312.45604,185.90584c-0.55413,1.38438 -2.15679,2.04495 -3.57963,1.47542c-1.42284,-0.56953 -2.12706,-2.1535 -1.57292,-3.53788c0.55413,-1.38438 2.1568,-2.04495 3.57964,-1.47541c1.42284,0.56953 2.12705,2.1535 1.57291,3.53788z" data-paper-data="{&quot;origRot&quot;:0}" fill="#ffffff" stroke="none" stroke-width="0" stroke-linecap="butt"/><path d="M315.27102,186.1v-8.1h8.78097v8.1z" data-paper-data="{&quot;origPos&quot;:null}" fill="#0fa1cc" stroke="none" stroke-width="0" stroke-linecap="butt"/><path d="M314.975,189.25v-3.9h9.30065v3.9z" data-paper-data="{&quot;origPos&quot;:null}" fill="#3f51b5" stroke="none" stroke-width="0" stroke-linecap="butt"/><path d="M315.275,175.75l4.05,2.21573l-0.15,6.92415h-3.9z" fill="#000000" stroke="#000000" stroke-width="0.5" stroke-linecap="round"/><path d="M325.025,176.35l-0.3,8.58651h-2.85v-7.1107z" fill="#000000" stroke="#000000" stroke-width="0.5" stroke-linecap="round"/><path d="M324.46288,167.00743c0,0.90732 -1.16726,1.64285 -2.60715,1.64285c-1.43989,0 -2.60715,-0.73553 -2.60715,-1.64285c0,-0.90732 1.16726,-1.64286 2.60715,-1.64286c1.43989,0 2.60715,0.73554 2.60715,1.64286z" data-paper-data="{&quot;origPos&quot;:null}" fill="#03b3ff" stroke="none" stroke-width="0" stroke-linecap="butt"/><path d="M322.82002,165.79314c0,0.35504 -0.30381,0.64286 -0.67857,0.64286c-0.37476,0 -0.67857,-0.28782 -0.67857,-0.64286c0,-0.35504 0.30381,-0.64286 0.67857,-0.64286c0.37476,0 0.67857,0.28782 0.67857,0.64286z" data-paper-data="{&quot;origPos&quot;:null}" fill="#000000" stroke="none" stroke-width="0" stroke-linecap="butt"/><path d="M320.42406,165.20619c0,0.32417 -0.30172,0.58696 -0.67391,0.58696c-0.37219,0 -0.67391,-0.26279 -0.67391,-0.58696c0,-0.32417 0.30172,-0.58696 0.67391,-0.58696c0.37219,0 0.67391,0.26279 0.67391,0.58696z" data-paper-data="{&quot;origPos&quot;:null}" fill="#000000" stroke="none" stroke-width="0" stroke-linecap="butt"/><path d="M324.03276,164.9888c0,0.32416 -0.30173,0.58696 -0.67391,0.58696c-0.37219,0 -0.67391,-0.26279 -0.67391,-0.58696c0,-0.32416 0.30173,-0.58695 0.67391,-0.58695c0.37219,0 0.67391,0.26279 0.67391,0.58695z" data-paper-data="{&quot;origPos&quot;:null}" fill="#000000" stroke="none" stroke-width="0" stroke-linecap="butt"/><path d="M317.64145,164.53952c0,1.14059 -0.9149,2.06522 -2.04348,2.06522c-1.12858,0 -2.04348,-0.92463 -2.04348,-2.06522c0,-1.14059 0.9149,-2.06522 2.04348,-2.06522c1.12858,0 2.04348,0.92463 2.04348,2.06522z" data-paper-data="{&quot;origPos&quot;:null}" fill="#03b3ff" stroke="none" stroke-width="0" stroke-linecap="butt"/><path d="M314.34509,195.9202l0.85669,-9.26046l4.48086,0.41453l-0.85668,9.26046z" data-paper-data="{&quot;origRot&quot;:0}" fill="#3f51b5" stroke="none" stroke-width="0" stroke-linecap="butt"/><path d="M321.98035,195.78239l-1.5708,-9.16638l3.84397,-0.65872l1.57079,9.16639z" data-paper-data="{&quot;origRot&quot;:0}" fill="#3f51b5" stroke="none" stroke-width="0" stroke-linecap="butt"/><path d="M318.95384,200.42336c-0.9513,0.73345 -2.70662,0.0516 -3.9206,-1.52297c-1.21398,-1.57456 -1.42694,-3.44559 -0.47563,-4.17905c0.9513,-0.73345 2.70662,-0.05159 3.92061,1.52298c1.21399,1.57457 1.42694,3.44559 0.47563,4.17904z" data-paper-data="{&quot;origRot&quot;:0}" fill="#000000" stroke="none" stroke-width="0" stroke-linecap="butt"/><path d="M327.68982,199.41905c-0.71279,0.96688 -2.58796,0.79428 -4.18832,-0.38552c-1.60035,-1.17979 -2.31986,-2.92002 -1.60707,-3.88689c0.71279,-0.96688 2.58796,-0.79428 4.18832,0.38552c1.60035,1.1798 2.31986,2.92002 1.60707,3.88689z" data-paper-data="{&quot;origRot&quot;:0}" fill="#000000" stroke="none" stroke-width="0" stroke-linecap="butt"/></g></g></svg>