<svg version="1.1" xmlns="http://www.w3.org/2000/svg" xmlns:xlink="http://www.w3.org/1999/xlink" width="696" height="407" viewBox="0,0,696,407"><defs><radialGradient cx="206.6785" cy="44.24267" r="35.0151" gradientUnits="userSpaceOnUse" id="color-1"><stop offset="0" stop-color="#ff9400"/><stop offset="1" stop-color="#ffffff"/></radialGradient><radialGradient cx="220.1998" cy="37.70627" r="18.2343" gradientUnits="userSpaceOnUse" id="color-2"><stop offset="0" stop-color="#ff9400"/><stop offset="1" stop-color="#ffffff"/></radialGradient><linearGradient x1="528.09606" y1="92.98056" x2="528.09606" y2="153.34558" gradientUnits="userSpaceOnUse" id="color-3"><stop offset="0" stop-color="#ff9400" stop-opacity="0"/><stop offset="1" stop-color="#ff9400"/></linearGradient><linearGradient x1="528.09606" y1="92.98056" x2="528.09606" y2="153.34558" gradientUnits="userSpaceOnUse" id="color-4"><stop offset="0" stop-color="#ff0000" stop-opacity="0"/><stop offset="1" stop-color="#ff0000"/></linearGradient><linearGradient x1="587.49142" y1="82.74293" x2="587.49142" y2="133.66671" gradientUnits="userSpaceOnUse" id="color-5"><stop offset="0" stop-color="#ff9400" stop-opacity="0"/><stop offset="1" stop-color="#ff9400"/></linearGradient><linearGradient x1="587.49142" y1="82.74293" x2="587.49142" y2="133.66671" gradientUnits="userSpaceOnUse" id="color-6"><stop offset="0" stop-color="#ff0000" stop-opacity="0"/><stop offset="1" stop-color="#ff0000"/></linearGradient></defs><g transform="translate(28,23.5)"><g data-paper-data="{&quot;isPaintingLayer&quot;:true}" fill-rule="nonzero" stroke-linejoin="miter" stroke-miterlimit="10" stroke-dasharray="" stroke-dashoffset="0" style="mix-blend-mode: normal"><text transform="translate(4.13103,46.70076) scale(1.20423,1.20423)" font-size="40" xml:space="preserve" fill="#1e74fd" fill-rule="nonzero" stroke="#1e74fd" stroke-width="3" stroke-linecap="butt" stroke-linejoin="miter" stroke-miterlimit="10" stroke-dasharray="" stroke-dashoffset="0" font-family="Malgun Gothic" font-weight="normal" text-anchor="start" style="mix-blend-mode: normal"><tspan x="0" dy="0">Fire Cat</tspan></text><text transform="translate(5.06807,75.70812) scale(0.6836,0.6836)" font-size="40" xml:space="preserve" fill="#1e74fd" fill-rule="nonzero" stroke="#1e74fd" stroke-width="3" stroke-linecap="butt" stroke-linejoin="miter" stroke-miterlimit="10" stroke-dasharray="" stroke-dashoffset="0" font-family="Malgun Gothic" font-weight="normal" text-anchor="start" style="mix-blend-mode: normal"><tspan x="0" dy="0">Remember this one from the last game?</tspan><tspan x="0" dy="48px">0.5 damage per hit</tspan><tspan x="0" dy="48px"> </tspan><tspan x="0" dy="48px">Much like Hoppers, they hop around the stage,</tspan><tspan x="0" dy="48px">their behavior is incredibly similar to Hoppers,</tspan><tspan x="0" dy="48px">making them just as dangerous as the Hoppers,</tspan><tspan x="0" dy="48px">but these cats can "walk" and "jump."</tspan></text><path d="M216.8778,34.81667c1.802,0.914 2.405,3.415 2.6,5.4c0.205,2.085 -0.072,4.474 -1.25,6.25c-0.665,0.87 -2.235,0.321 -3.35,0.35c-2.956,0.079 -5.936,-0.061 -8.9,0c-3.53,-0.011 -7.063,0.195 -10.6,0.15c-0.884,-0.01 -1.58,0.244 -1.8,-0.35c-0.737,-1.994 -0.668,-4.256 -0.7,-6.4c-0.025,-1.709 0.968,-3.329 0.5,-4.9c-0.391,-1.304 -1.362,-2.962 -2.65,-2.85c-1.651,0.137 -2.164,2.567 -3.65,3.15c-0.926,0.451 -2.202,0.335 -3,-0.3c-1.678,-1.317 -3.538,-2.91 -4,-5c-0.271,-1.227 0.958,-3.516 2,-3.2c1.615,0.492 1.355,4.675 3.3,5c2.283,0.299 3.595,-3.479 5.85,-3.65c1.517,-0.115 2.608,1.682 3.65,2.75c0.703,0.72 0.765,2.322 1.7,2.5c3.199,0.554 6.5,-0.67 9.6,-0.5c3.597,0.198 7.539,-0.099 10.7,1.6z" fill="url(#color-1)" stroke="#ff0000" stroke-width="2" stroke-linecap="round"/><path d="M227.07778,28.46667c0.546,1.867 0.896,3.89 0.7,5.8c-0.163,1.594 -0.728,3.287 -1.905,4.418c-1.177,1.132 -2.802,1.832 -4.595,1.832c-1.793,0 -3.418,-0.7 -4.595,-1.832c-1.177,-1.131 -1.148,-3.007 -1.905,-4.418c-1.181,-2.205 -4.096,-5.046 -3.8,-6.65c0.179,-0.971 3.091,1.501 4.75,1.5c2.242,-0.002 4.727,-0.339 6.75,-1.5c1.266,-0.781 1.27,-4.102 2.4,-3.9c1.264,0.227 1.717,3.095 2.2,4.75z" fill="url(#color-2)" stroke="#ff0000" stroke-width="2" stroke-linecap="round"/><path d="M224.55279,31.03667c0.263,0.136 0.425,0.323 0.425,0.53c0,0.207 -0.162,0.394 -0.425,0.53c-0.262,0.136 -0.625,0.22 -1.025,0.22c-0.4,0 -0.763,-0.084 -1.025,-0.22c-0.263,-0.136 -0.425,-0.323 -0.425,-0.53c0,-0.207 0.162,-0.394 0.425,-0.53c0.262,-0.136 0.625,-0.22 1.025,-0.22c0.4,0 0.763,0.084 1.025,0.22z" fill="#ff0000" stroke="none" stroke-width="1" stroke-linecap="butt"/><path d="M219.30978,32.34867c0.258,0.081 0.418,0.194 0.418,0.318c0,0.124 -0.16,0.237 -0.418,0.318c-0.258,0.082 -0.614,0.132 -1.007,0.132c-0.393,0 -0.749,-0.05 -1.007,-0.132c-0.258,-0.081 -0.418,-0.194 -0.418,-0.318c0,-0.124 0.16,-0.237 0.418,-0.318c0.258,-0.082 0.614,-0.132 1.007,-0.132c0.393,0 0.749,0.05 1.007,0.132z" fill="#ff0000" stroke="none" stroke-width="1" stroke-linecap="butt"/><path d="M579.86594,116.39808c5.45931,2.76904 7.28615,10.34603 7.87692,16.35975c0.62106,6.31668 -0.21813,13.55436 -3.78698,18.9349c-2.01467,2.63574 -6.77112,0.9725 -10.1491,1.06035c-8.95545,0.23934 -17.98361,-0.1848 -26.96329,0c-10.69443,-0.03333 -21.39795,0.59077 -32.11358,0.45444c-2.67815,-0.0303 -4.78674,0.73922 -5.45325,-1.06035c-2.2328,-6.04099 -2.02376,-12.89391 -2.12071,-19.38933c-0.07574,-5.17756 2.93264,-10.08548 1.51479,-14.84496c-1.18457,-3.95058 -4.12629,-8.97363 -8.0284,-8.63431c-5.00184,0.41505 -6.55602,7.77694 -11.05798,9.54319c-2.80539,1.36634 -6.67114,1.01491 -9.08875,-0.90888c-5.08364,-3.98996 -10.71867,-8.81609 -12.11833,-15.14792c-0.82102,-3.7173 2.90234,-10.65202 6.05917,-9.69467c4.89278,1.49056 4.10509,14.1633 9.99763,15.14792c6.91654,0.90585 10.89135,-10.53992 17.72306,-11.05798c4.59588,-0.3484 7.90115,5.09576 11.05798,8.33135c2.1298,2.1813 2.31763,7.03469 5.15029,7.57396c9.69164,1.67839 19.69229,-2.02982 29.084,-1.51479c10.89741,0.59986 22.84003,-0.29993 32.41654,4.84733z" fill="url(#color-3)" stroke="url(#color-4)" stroke-width="6" stroke-linecap="round"/><path d="M610.76769,97.16023c1.65415,5.65623 2.71451,11.78508 2.12071,17.57158c-0.49382,4.82916 -2.20554,9.95824 -5.77136,13.3847c-3.56582,3.42949 -8.48889,5.5502 -13.92094,5.5502c-5.43204,0 -10.35512,-2.12071 -13.92094,-5.5502c-3.56582,-3.42646 -3.47796,-9.10996 -5.77136,-13.3847c-3.57794,-6.68023 -12.40917,-15.28728 -11.51242,-20.14673c0.5423,-2.94173 9.36444,4.5474 14.39052,4.54438c6.79233,-0.00606 14.32084,-1.02703 20.44969,-4.54438c3.83545,-2.3661 3.84757,-12.42735 7.271,-11.81538c3.82939,0.68772 5.20179,9.37656 6.66508,14.39052z" fill="url(#color-5)" stroke="url(#color-6)" stroke-width="6" stroke-linecap="round"/><path d="M603.118,104.94626c0.79678,0.41202 1.28757,0.97856 1.28757,1.60568c0,0.62712 -0.49079,1.19366 -1.28757,1.60568c-0.79375,0.41202 -1.89349,0.66651 -3.10532,0.66651c-1.21183,0 -2.31157,-0.25449 -3.10532,-0.66651c-0.79678,-0.41202 -1.28757,-0.97856 -1.28757,-1.60568c0,-0.62712 0.49079,-1.19366 1.28757,-1.60568c0.79375,-0.41202 1.89349,-0.66651 3.10532,-0.66651c1.21183,0 2.31157,0.25449 3.10532,0.66651z" fill="#ff0000" stroke="none" stroke-width="1" stroke-linecap="butt"/><path d="M587.23389,108.92107c0.78163,0.2454 1.26637,0.58774 1.26637,0.96341c0,0.37567 -0.48473,0.71801 -1.26637,0.96341c-0.78163,0.24843 -1.86016,0.39991 -3.05079,0.39991c-1.19063,0 -2.26916,-0.15148 -3.05079,-0.39991c-0.78163,-0.2454 -1.26637,-0.58774 -1.26637,-0.96341c0,-0.37567 0.48473,-0.71801 1.26637,-0.96341c0.78163,-0.24843 1.86016,-0.39991 3.05079,-0.39991c1.19063,0 2.26916,0.15148 3.05079,0.39991z" fill="#ff0000" stroke="none" stroke-width="1" stroke-linecap="butt"/><path d="M-28,383.5v-407h696v407z" fill="none" stroke="none" stroke-width="0" stroke-linecap="butt"/></g></g></svg>