<svg version="1.1" xmlns="http://www.w3.org/2000/svg" xmlns:xlink="http://www.w3.org/1999/xlink" width="713.5" height="350.59291" viewBox="0,0,713.5,350.59291"><g transform="translate(25.5,-61.95709)"><g data-paper-data="{&quot;isPaintingLayer&quot;:true}" fill-rule="nonzero" stroke-width="2" stroke-linejoin="miter" stroke-miterlimit="10" stroke-dasharray="" stroke-dashoffset="0" style="mix-blend-mode: normal"><path d="M73,269h82l46,-6l56,-26l42,-49l33,-66l24,-59l16,1l-1,337l67,4v-336l19,-4l24,61l40,70l35,44l16,11l1,13l-4,7l-3,136l-499,-3z" fill="#4c2915" stroke="#000000" stroke-linecap="round"/><path d="M561.33333,410.74594v-160h125.66667v160z" fill="#4c2915" stroke="#000000" stroke-linecap="butt"/><path d="M-24.5,411.55001v-142.5h109.66667v142.5z" fill="#4c2915" stroke="#000000" stroke-linecap="butt"/><path d="M587.55544,263.64983l33.58254,58.96429l-24.46338,34.01857l-32.60029,-48.40426l-35.37547,-71.094l9.33334,-6.17084z" data-paper-data="{&quot;index&quot;:null}" fill="#4c2915" stroke="#4c2915" stroke-linecap="round"/><path d="M73.1,406.67297v-135.7h23.5v135.7z" fill="#4c2915" stroke="#4c2915" stroke-linecap="butt"/><path d="M559.21721,405.30001v-103.75h4.25v103.75z" fill="#4c2915" stroke="#4c2915" stroke-linecap="butt"/><path d="M545.83333,327.71667v-46.66667h20.33333v46.66667z" fill="#4c2915" stroke="#4c2915" stroke-linecap="butt"/></g></g></svg>