<svg version="1.1" xmlns="http://www.w3.org/2000/svg" xmlns:xlink="http://www.w3.org/1999/xlink" width="27.67442" height="41.7271" viewBox="0,0,27.67442,41.7271"><g transform="translate(-307.81265,-139.64451)"><g data-paper-data="{&quot;isPaintingLayer&quot;:true}" fill-rule="nonzero" stroke-linejoin="miter" stroke-miterlimit="10" stroke-dasharray="" stroke-dashoffset="0" style="mix-blend-mode: normal"><path d="M327.64837,157.53716l0.35422,-0.29331l0.04814,-0.06538l0.06991,-0.0417l0.14685,-0.14585l0.05801,-0.03076l0.24146,-0.10109l0.06955,0.13822l0.04495,0.05208l0.0201,0.06564l0.08136,0.13467l0.01959,0.09738l0.04767,0.09993l0.00852,0.11026l0.13761,0.40977l0.06314,0.25049l0.05714,0.10622l0.01642,0.11928l0.15941,0.39467l0.04392,0.06022l0.0163,0.0725l0.18176,0.35948l0.01065,0.04198l0.0085,0.244l0.16058,0.55285l0.08322,0.14216l0.03642,0.16012l0.04825,0.09491l0.00479,0.02103l0.00015,0.0488l0.10035,0.39086l0.09053,0.39365l0.02241,0.04385l0.01268,0.04896l0.0174,0.00989l0.10275,0.20094l0.11692,0.4483l0.12602,0.23151l0.07926,0.25121l0.06842,0.11284l0.00019,0.01536l0.0722,0.27831l0.02492,0.28665l0.07022,0.20981l0.00025,0.03254l0.09949,0.40126l0.08675,0.40308l0.02164,0.04464l0.01197,0.04993l0.01704,0.00991l0.00196,0.00404l0.03206,0.16853l0.1223,0.26612l-0.00083,0.10762l0.04103,0.1717l-0.00986,0.17692l0.07589,0.39912l0.01805,0.03884l-0.00037,0.04315l0.02595,0.1076l-0.00018,0.02156l0.07693,0.31795l-0.01655,3.1912l-0.02205,0.03279l-0.01742,0.04813l-0.00099,0.00098l-0.00518,0.00855l-0.03101,0.00875l-0.20707,0.38447l-0.22608,0.37349l0.0084,0.03083l-0.00473,0.00879l-0.03282,0.12947l-0.07271,0.14409l-0.02773,0.12306l-0.06826,0.10642l-0.00005,0.00016l-0.26766,0.15223l-0.04938,0.19529l-0.02983,0.00168l-0.06669,0.07728l-0.02618,0.00653l-0.07829,-0.21834l-0.24344,-0.36294l-0.49953,-1.06331l-0.01543,-0.01885l-0.0053,-0.02371l-0.47809,-0.94702l-0.0728,-0.08399l-0.03767,-0.10416l-0.25869,-0.3832l-0.19118,-0.37659l-0.18613,-0.21427l-0.01616,-0.02651l-0.14311,-0.28104l-0.04072,-0.11917l-0.02888,-0.04462l-0.00749,-0.05228l-0.2802,-0.68325l-0.05264,-0.20216l-0.09358,-0.17227l-0.01579,-0.06782l-0.00229,-0.20872l-0.08856,-0.34043l0.03396,-0.13083l-0.11874,-0.19783l-0.05697,-0.22346l-0.01816,-0.01069l-0.01208,-0.14515l-0.05883,-0.17777l-0.01058,-0.04262l-0.00057,-0.18395l-0.01718,-0.07017l0.02649,-0.05445l-0.13177,-0.38055l-0.05936,-0.2477l0.00227,-0.0268l-0.05276,-0.33681l0.00078,-0.09355l-0.05067,-0.21189l0.00193,-0.21845l-0.07666,-0.31872l-0.02643,-0.05031l0.00813,-1.07665l0.0111,-0.01651l-0.01068,-0.04924l0.00031,-0.04899l-0.07768,-0.31659l0.00807,-1.84116l0.01204,-0.04731l0.05694,-0.08869l0.02766,-0.08182l0.02382,-0.02368l0.14648,-0.24189l0.18496,-0.21423l0.13289,-0.26317l0.04278,-0.0311z" data-paper-data="{&quot;noHover&quot;:false,&quot;origItem&quot;:[&quot;Path&quot;,{&quot;applyMatrix&quot;:true,&quot;segments&quot;:[[654.73221,315.87476],[654.64739,315.93674],[654.38468,316.46215],[654.01853,316.88933],[653.72906,317.37178],[653.6819,317.41894],[653.62748,317.5822],[653.51499,317.75897],[653.49139,317.85337],[653.49139,321.52659],[653.64924,322.15799],[653.64924,322.25552],[653.67104,322.35365],[653.64924,322.38636],[653.64924,324.52393],[653.70258,324.62396],[653.86043,325.25536],[653.86043,325.68623],[653.96494,326.10423],[653.96494,326.28811],[654.07516,326.94948],[654.07097,327.00192],[654.1922,327.48683],[654.45736,328.2293],[654.40433,328.33536],[654.43848,328.47198],[654.43848,328.83036],[654.45923,328.91335],[654.57457,329.25938],[654.59637,329.54269],[654.63238,329.56327],[654.74146,329.99956],[654.97283,330.38519],[654.90241,330.6434],[655.06988,331.31327],[655.06988,331.72649],[655.09969,331.86064],[655.28108,332.20074],[655.38132,332.6017],[655.9245,333.95965],[655.93872,334.06392],[655.99522,334.15272],[656.07441,334.39029],[656.35455,334.95057],[656.38627,335.00343],[656.75242,335.43061],[657.12852,336.18281],[657.63905,336.9486],[657.71344,337.15689],[657.85737,337.32481],[658.80447,339.219],[658.81501,339.26643],[658.84561,339.30415],[659.83832,341.43138],[660.3225,342.15764],[660.47849,342.59442],[660.53048,342.58142],[660.6628,342.42705],[660.72206,342.42376],[660.81966,342.03339],[661.3509,341.72982],[661.35101,341.7295],[661.48626,341.51697],[661.54091,341.27105],[661.68479,340.98329],[661.74945,340.72462],[661.75882,340.70707],[661.742,340.64542],[662.18925,339.90001],[662.59833,339.13298],[662.65984,339.11568],[662.67008,339.09862],[662.67203,339.09667],[662.70633,339.00065],[662.7499,338.93529],[662.7499,332.57607],[662.59205,331.94467],[662.59205,331.90199],[662.5387,331.6886],[662.5387,331.60326],[662.50217,331.52613],[662.34432,330.73688],[662.3609,330.38867],[662.27635,330.05047],[662.27635,329.83922],[662.02862,329.31623],[661.96269,328.9866],[661.95874,328.97868],[661.9246,328.95918],[661.90022,328.86166],[661.85661,328.77443],[661.68215,327.98937],[661.4871,327.20918],[661.4871,327.14575],[661.35101,326.73748],[661.30786,326.17651],[661.1714,325.63068],[661.1714,325.60041],[661.03878,325.37937],[660.88808,324.88421],[660.64451,324.42751],[660.42199,323.53745],[660.22239,323.13825],[660.18826,323.11874],[660.16388,323.02122],[660.12026,322.93399],[659.94581,322.14894],[659.75076,321.36874],[659.75076,321.27122],[659.74142,321.22921],[659.64671,321.03979],[659.57563,320.71991],[659.41187,320.43607],[659.09618,319.33112],[659.07991,318.84321],[659.05893,318.75928],[658.69962,318.04065],[658.6674,317.89567],[658.58044,317.77527],[658.26474,316.98602],[658.23221,316.74747],[658.11891,316.53503],[657.99366,316.03403],[657.72047,315.21446],[657.70351,314.99394],[657.60883,314.79407],[657.56988,314.59929],[657.40824,314.3299],[657.36828,314.19861],[657.27897,314.09441],[657.14072,313.81791],[656.66124,314.0198],[656.54607,314.08122],[656.25465,314.37264],[656.1159,314.45589],[656.02042,314.58654],[655.31776,315.17209]],&quot;closed&quot;:true}]}" fill="#493b29" stroke="#000000" stroke-width="2" stroke-linecap="butt"/><path d="M326.76576,147.94523l2.42865,1.5839l1.6895,2.42865l0.52797,3.48458l-0.63356,2.53424l-2.42865,3.37899l-1.47831,3.90696l-0.31678,5.91323l0.73915,4.75171l-0.31678,1.5839l-2.32306,2.11187l-1.26712,0.73915l-12.46003,-0.42237l-1.05593,-0.95034l-0.84475,-1.90068l-0.21119,-2.42865l0.21119,-4.11814l3.80136,-15.94461l1.16153,-4.11814l1.26712,-2.21746l2.63984,-0.95034h5.38527z" fill="#493b29" stroke="#000000" stroke-width="2" stroke-linecap="round"/><path d="M318.33126,148.72241c0,-4.4613 3.6166,-8.0779 8.0779,-8.0779c4.4613,0 8.0779,3.6166 8.0779,8.0779c0,4.4613 -3.6166,8.0779 -8.0779,8.0779c-4.4613,0 -8.0779,-3.6166 -8.0779,-8.0779z" fill="#493b29" stroke="#000000" stroke-width="2" stroke-linecap="butt"/><path d="M313.05398,151.40989l0.10395,0.02574l0.00276,0.00274l0.79412,1.07561l0.10494,0.08647l0.0702,0.11607l0.27505,0.27282l0.03114,0.06171l0.05778,0.06683l0.15494,1.01767l-0.01192,0.1053l-0.03245,0.08174l-0.0071,0.05214l-0.02801,0.04442l-0.07833,0.23684l-0.00851,0.11025l-0.0469,0.09998l-0.03102,0.15617l-0.0459,0.1298l-0.13928,0.26435l-0.23314,0.94712l0.00013,0.21543l-0.05095,0.20894l0.01748,1.96886l0.07769,0.22259l-0.01424,0.16532l0.13508,0.55007l0.04342,0.07922l0.01247,0.09024l0.08544,0.21939l0.06481,0.3648l0.05692,0.43418l0.05927,0.14746l0.01262,0.15852l0.06749,0.20425l0.01967,0.20868l0.08403,0.33488l-0.05408,0.0309l0.1145,0.19305l0.05441,0.21817l0.11482,0.0667l0.17634,0.29637l0.20244,0.20458l0.03356,0.15465l0.04997,0.14106l0.08886,0.1405l-0.0062,0.09485l0.22192,0.24602l0.17749,0.28026l0.05478,0.01119l0.0148,0.04855l0.20159,0.33722l0.04181,0.08379l0.05083,0.15504l0.06685,0.40483l0.08419,0.1934l0.03331,0.20833l0.17406,0.39154l0.13456,0.39511l0.02346,0.11791l-0.0005,0.25118l-0.00253,-0.00013l-0.03067,-0.03052l-0.36059,-0.2148l-0.29618,-0.19606l-0.03548,-0.03527l-0.10859,-0.06465l-0.07979,-0.09767l-0.21741,-0.16187l-0.07029,-0.06982l-0.24274,-0.14443l-0.14904,-0.12679l-0.02254,-0.07988l-0.14025,-0.07412l-0.1034,-0.11974l-0.13724,-0.00744l-0.34109,-0.18029l-0.05595,-0.05549l-0.1106,-0.06578l-0.02968,-0.02522l-0.05878,-0.02913l-0.22886,-0.27919l-0.03937,-0.02927l-0.03303,-0.03818l-0.01981,-0.0011l-0.016,-0.01189l-0.18129,-0.16331l-0.10361,-0.12628l-0.1306,-0.30647l-0.12575,-0.16586l-0.00251,-0.00464l-0.00129,-0.00036l-0.01431,-0.01888l-0.08854,-0.17481l-0.18555,-0.21417l-0.1024,-0.16846l-0.02408,-0.09421l-0.07311,-0.3207l-0.00009,-0.00112l-0.0005,-0.00146l-0.01601,-0.07009l-0.02225,-0.04378l-0.01255,-0.0489l-0.00572,-0.00325l-0.10491,-0.30773l-0.1281,-0.19849l-0.08095,-0.22145l-0.02846,-0.04215l-0.16822,-0.492l-0.04857,-0.07553l-0.0215,-0.08318l-0.0007,-0.07959l-0.08406,-0.32549l-0.04821,-0.33301l-0.11119,-0.27573l-0.01578,-0.18872l-0.06959,-0.20847l-0.00019,-0.03234l-0.0804,-0.32251l0.00012,-0.72549l-0.03011,-0.12457l0.01356,-0.12781l-0.07556,-0.56148l-0.06046,-0.15228l0.0003,-0.0408l0.01107,-0.01666l-0.01058,-0.04964l0.00037,-0.04939l-0.09505,-0.39384l-0.01654,-0.07724l0.0019,-0.03471l-0.04356,-0.22642l0.01308,-2.30577l0.0273,-0.10706l0.00085,-0.2159l0.05339,-0.2096l0.00231,-0.71142l0.08033,-0.3163l0.00013,-0.04881l0.00825,-0.03649l0.03207,-0.01919l0.31853,-0.31672l0.1794,-0.29659l0.11707,-0.06664l0.02433,-0.09612l0.22966,-0.19574l0.0013,-0.02259l0.09359,-0.10229l0.15054,-0.08989l0.07044,-0.07l0.13102,-0.09771c0.04181,-0.01007 0.08386,-0.02176 0.12444,-0.03478z" data-paper-data="{&quot;noHover&quot;:false,&quot;origItem&quot;:[&quot;Path&quot;,{&quot;applyMatrix&quot;:true,&quot;segments&quot;:[[[625.87394,302.98823],[0.08362,-0.02015],[0,0]],[625.61378,303.18335],[625.47397,303.32316],[625.17504,303.50252],[624.98935,303.70678],[624.98684,303.75194],[624.53112,304.14256],[624.4831,304.33463],[624.25073,304.46742],[623.89547,305.05951],[623.26407,305.69091],[623.20045,305.72908],[623.18425,305.80195],[623.18425,305.89948],[623.0264,306.53088],[623.0264,307.95152],[622.9219,308.36953],[622.9219,308.8004],[622.86855,309.01379],[622.86855,313.60324],[622.95844,314.05265],[622.95516,314.12138],[622.9892,314.27456],[623.18425,315.05476],[623.18425,315.15228],[623.20606,315.25041],[623.18425,315.28312],[623.18425,315.36362],[623.30693,315.66473],[623.46477,316.76968],[623.43885,317.02026],[623.49995,317.26465],[623.49995,318.6853],[623.6578,319.3167],[623.6578,319.38012],[623.79389,319.7884],[623.82241,320.15913],[624.03887,320.70027],[624.12843,321.35706],[624.2892,322.00014],[624.2892,322.15799],[624.33037,322.32268],[624.42529,322.47184],[624.75062,323.44783],[624.80632,323.53138],[624.96356,323.97164],[625.21454,324.36604],[625.41892,324.97919],[625.4302,324.98563],[625.45458,325.08316],[625.49819,325.17038],[625.52927,325.31022],[625.53024,325.31313],[625.53041,325.31537],[625.67265,325.95544],[625.71967,326.14352],[625.92129,326.47955],[626.28744,326.90673],[626.462,327.25585],[626.49027,327.29354],[626.49282,327.29426],[626.49777,327.30354],[626.74619,327.63477],[627.0041,328.2473],[627.20913,328.49965],[627.56815,328.82603],[627.59985,328.8498],[627.6391,328.85198],[627.70452,328.92831],[627.78254,328.98682],[628.23618,329.54514],[628.35273,329.60342],[628.4116,329.65388],[628.63096,329.7855],[628.74198,329.89651],[629.41883,330.2575],[629.69114,330.27263],[629.89657,330.5123],[630.1751,330.66084],[630.22004,330.82062],[630.51626,331.07452],[630.99871,331.36399],[631.13852,331.50381],[631.57093,331.82811],[631.72979,332.02363],[631.9458,332.15324],[632.01644,332.22388],[632.60588,332.61684],[633.32371,333.04754],[633.38484,333.10866],[633.38986,333.10894],[633.38986,332.60694],[633.34272,332.3712],[633.14196,331.76893],[632.72576,330.79779],[632.65859,330.38133],[632.49039,329.99447],[632.35552,329.18525],[632.32475,329.06218],[632.24099,328.89465],[631.83659,328.22067],[631.80704,328.12356],[631.69663,328.10148],[631.34024,327.54144],[630.89371,327.05026],[630.90681,326.86034],[630.72818,326.57963],[630.57033,326.10608],[630.56126,325.98817],[630.15305,325.57996],[629.7978,324.98787],[629.56542,324.85509],[629.45635,324.4188],[629.22497,324.03317],[629.29539,323.77496],[629.12792,323.10509],[629.12792,322.88381],[628.99183,322.47554],[628.96743,322.15834],[628.8474,321.86372],[628.69531,320.79905],[628.60635,320.26529],[628.43116,319.82732],[628.40654,319.64679],[628.31549,319.48897],[627.99979,318.38403],[627.98353,317.89611],[627.86513,317.4225],[627.86513,313.47626],[627.96963,313.05825],[627.96963,312.62739],[628.44318,310.73319],[628.72504,310.20469],[628.81773,309.94516],[628.88019,309.63286],[628.97487,309.43298],[628.99183,309.21247],[629.14968,308.73892],[629.20619,308.65013],[629.22041,308.54585],[629.28577,308.38243],[629.28577,308.37041],[628.98054,306.33552],[628.86603,306.20193],[628.80434,306.07854],[628.25885,305.53306],[628.11957,305.30092],[627.91131,305.12796],[626.33325,302.97605],[626.32775,302.97056],[[626.12115,302.91891],[0,0],[-0.08116,0.02603]]],&quot;closed&quot;:true}]}" fill="#493b29" stroke="#000000" stroke-width="2" stroke-linecap="butt"/><path d="M327.83699,148.41156c0,1.28587 -1.20142,2.32828 -2.68344,2.32828c-1.48203,0 -2.68344,-1.04241 -2.68344,-2.32828c0,-1.28587 1.20142,-2.32828 2.68344,-2.32828c1.48203,0 2.68344,1.04241 2.68344,2.32828z" fill="#ff0000" stroke="none" stroke-width="0" stroke-linecap="butt"/><path d="M333.20387,148.01694c0,1.28588 -1.20141,2.32828 -2.68344,2.32828c-1.48203,0 -2.68345,-1.04241 -2.68345,-2.32828c0,-1.28588 1.20142,-2.32828 2.68345,-2.32828c1.48203,0 2.68344,1.04241 2.68344,2.32828z" fill="#ff0000" stroke="none" stroke-width="0" stroke-linecap="butt"/></g></g></svg>