<svg version="1.1" xmlns="http://www.w3.org/2000/svg" xmlns:xlink="http://www.w3.org/1999/xlink" width="23.15118" height="39.22946" viewBox="0,0,23.15118,39.22946"><g transform="translate(-307.76976,-161.65497)"><g data-paper-data="{&quot;isPaintingLayer&quot;:true}" fill-rule="nonzero" stroke-linejoin="miter" stroke-miterlimit="10" stroke-dasharray="" stroke-dashoffset="0" style="mix-blend-mode: normal"><path d="M324.90113,175.24974c0.08308,0.04523 0.18373,0.11656 0.29845,0.21098c0.01809,0.01334 0.03606,0.02697 0.05389,0.04086c0.12491,0.09737 0.23806,0.20425 0.3392,0.3188c1.94973,1.93176 5.94067,7.75508 2.54878,9.37277c-2.89552,1.38094 -7.75071,-6.09387 -6.92396,-7.64569c-0.01698,-0.56202 0.15456,-1.13305 0.52726,-1.61117c0.69176,-0.8874 1.86301,-1.1809 2.86218,-0.79974c0.10004,0.02398 0.1982,0.06093 0.29419,0.11318z" data-paper-data="{&quot;origRot&quot;:0}" fill="#000000" stroke="none" stroke-width="0.5" stroke-linecap="butt"/><path d="M329.89832,182.79939c1.17606,0.91677 1.36561,2.63983 0.42338,3.84855c-0.94224,1.20873 -2.65945,1.44541 -3.83551,0.52864c-1.17606,-0.91677 -1.36561,-2.63983 -0.42338,-3.84855c0.94224,-1.20873 2.65945,-1.44541 3.83551,-0.52864z" data-paper-data="{&quot;origRot&quot;:0}" fill="#ffffff" stroke="none" stroke-width="0" stroke-linecap="butt"/><path d="M318.80357,165.00714c0,1.7397 -1.27599,3.15 -2.85,3.15c-1.57401,0 -2.85,-1.4103 -2.85,-3.15c0,-1.7397 1.27599,-3.15 2.85,-3.15c1.57401,0 2.85,1.4103 2.85,3.15z" data-paper-data="{&quot;origPos&quot;:null}" fill="#0392cf" stroke="none" stroke-width="0" stroke-linecap="butt"/><path d="M327.05357,171.22701c0,3.7665 -2.88777,6.81986 -6.45,6.81986c-3.56223,0 -6.45,-3.05335 -6.45,-6.81986c0,-3.7665 2.88777,-6.81987 6.45,-6.81987c3.56223,0 6.45,3.05336 6.45,6.81987z" data-paper-data="{&quot;origPos&quot;:null}" fill="#ffe896" stroke="none" stroke-width="0" stroke-linecap="butt"/><path d="M320.50357,174.9941c-1.07695,0 -1.95,-1.30957 -1.95,-2.925c0,-1.61543 0.87305,-2.925 1.95,-2.925c1.07696,0 1.95,1.30957 1.95,2.925c0,1.61544 -0.87305,2.925 -1.95,2.925z" data-paper-data="{&quot;origPos&quot;:null}" fill="#ffffff" stroke="none" stroke-width="0" stroke-linecap="butt"/><path d="M324.39161,174.70443c-0.86985,0 -1.575,-1.23402 -1.575,-2.75625c0,-1.52224 0.70515,-2.75625 1.575,-2.75625c0.86985,0 1.575,1.23402 1.575,2.75625c0,1.52224 -0.70515,2.75625 -1.575,2.75625z" data-paper-data="{&quot;origPos&quot;:null}" fill="#ffffff" stroke="none" stroke-width="0" stroke-linecap="butt"/><path d="M322.46623,172.18934c0,0.95269 -0.60441,1.725 -1.35,1.725c-0.74559,0 -1.35,-0.77231 -1.35,-1.725c0,-0.95269 0.60441,-1.725 1.35,-1.725c0.74559,0 1.35,0.77231 1.35,1.725z" fill="#000aa7" stroke="none" stroke-width="0" stroke-linecap="butt"/><path d="M313.87186,173.23107c-0.14796,-0.02079 -0.29541,-0.04138 -0.38971,-0.04138c-0.64496,-0.05477 -1.45571,0.11447 -1.91364,-0.31387c-0.15293,-0.14305 0.42815,-1.11371 0.52321,-1.24774c0.79806,-1.12523 1.72427,-2.55227 2.75117,-3.51281c0.71135,0.32412 -1.12014,-0.89463 -1.20951,-1.66194c-0.05293,-0.45444 3.89268,-1.14755 4.27735,-1.14755c0.49603,0.01551 3.06599,-0.21325 3.87947,0.2406c0.01498,-0.17997 0.01971,-0.3499 -0.0074,-0.46123c-0.11236,-0.46141 -0.15199,-0.77789 -0.08219,-1.04881h-0.00417v-0.66813h0.45795c0.11037,-0.10236 0.24155,-0.21072 0.3956,-0.33071c0.08567,0.08013 0.59208,0.55382 0.64286,0.60131c0.52635,0.70416 1.879,0.79117 2.48866,1.48672c0.68095,0.77688 0.79442,2.3698 1.00327,3.35318c0.00764,0.03249 0.01166,0.06625 0.01166,0.10088c0,0.02639 -0.00234,0.05228 -0.00683,0.07748c-0.0189,0.13767 -0.09876,0.31846 -0.3767,0.37745c-0.01109,0.00248 -0.02233,0.00461 -0.0337,0.00638c-0.12573,0.02094 -0.225,0.00517 -0.30301,-0.02941l0.00236,0.03244c-0.7939,0.7426 -1.47421,1.61259 -2.34101,0.39641c-0.01515,-0.25624 -0.63015,-0.34508 -0.94791,-0.40903c0.01689,0.37196 -0.09339,0.9119 -0.573,1.00643c-1.00706,0.19849 -1.60919,-0.3137 -2.94132,-0.00234c0.00126,0.08855 -0.0652,2.35507 -0.27953,2.80002c-0.16269,0.33774 -0.74717,0.89255 -1.1131,1.01883c0.12586,0.28318 0.24683,0.59369 0.27777,0.67087c0.39588,1.0062 1.08061,1.60185 0.27883,2.67332c-1.03883,1.38825 -2.46247,-2.3052 -2.38571,-1.88412c0.06152,0.33747 -0.37539,0.52385 -0.89279,0.62633l-0.70316,0.49329c-0.08425,0.06045 -0.18966,0.09637 -0.30404,0.09637c-0.27614,0 -0.5,-0.20939 -0.5,-0.46769v-0.26725c0,-0.00444 0,-0.00905 0,-0.01381v-0.25344h0.00115c0.00635,-0.61229 0.04771,-1.85207 0.31713,-2.29707z" data-paper-data="{&quot;origPos&quot;:null}" fill="#000000" stroke="none" stroke-width="0.5" stroke-linecap="butt"/><path d="M323.64705,161.65497c1.40833,0 2.55,1.17525 2.55,2.625c0,1.44975 -1.14168,2.625 -2.55,2.625c-1.40832,0 -2.55,-1.17525 -2.55,-2.625c0,-1.44975 1.14168,-2.625 2.55,-2.625z" data-paper-data="{&quot;origPos&quot;:null}" fill="#0392cf" stroke="none" stroke-width="0" stroke-linecap="butt"/><path d="M325.64628,171.93787c0,0.99411 -0.53726,1.8 -1.2,1.8c-0.66274,0 -1.2,-0.80589 -1.2,-1.8c0,-0.99411 0.53726,-1.8 1.2,-1.8c0.66274,0 1.2,0.80588 1.2,1.8z" fill="#000aa7" stroke="none" stroke-width="0" stroke-linecap="butt"/><path d="M316.63756,170.18927c-0.42565,2.94884 -1.9675,5.17173 -3.44382,4.96496c-1.47632,-0.20677 -2.32806,-2.76488 -1.90241,-5.71372c0.42565,-2.94884 1.9675,-5.17173 3.44382,-4.96496c1.47632,0.20677 2.32806,2.76488 1.90241,5.71372z" data-paper-data="{&quot;origPos&quot;:null,&quot;origRot&quot;:0}" fill="#0392cf" stroke="none" stroke-width="0" stroke-linecap="butt"/><path d="M325.98928,164.1917c0,1.14059 -0.9149,2.06521 -2.04348,2.06521c-1.12858,0 -2.04348,-0.92462 -2.04348,-2.06521c0,-1.14059 0.9149,-2.06522 2.04348,-2.06522c1.12858,0 2.04348,0.92463 2.04348,2.06522z" data-paper-data="{&quot;origPos&quot;:null}" fill="#03b3ff" stroke="none" stroke-width="0" stroke-linecap="butt"/><path d="M327.05357,166.43214c0,1.44975 -3.25713,2.625 -7.275,2.625c-4.01787,0 -7.275,-1.17525 -7.275,-2.625c0,-1.44975 3.25713,-2.625 7.275,-2.625c4.01787,0 7.275,1.17525 7.275,2.625z" data-paper-data="{&quot;origPos&quot;:null}" fill="#0392cf" stroke="none" stroke-width="0" stroke-linecap="butt"/><path d="M322.54922,175.26801c0,0.16568 -0.33578,0.3 -0.75,0.3c-0.41422,0 -0.75,-0.13431 -0.75,-0.3c0,-0.16568 0.33578,-0.3 0.75,-0.3c0.41422,0 0.75,0.13432 0.75,0.3z" data-paper-data="{&quot;origPos&quot;:null}" fill="#000000" stroke="none" stroke-width="0" stroke-linecap="butt"/><path d="M318.25792,178.74914c-0.00972,0.09409 -0.03674,0.21445 -0.07965,0.3567c-0.00534,0.02183 -0.011,0.04367 -0.01695,0.06548c-0.04171,0.15279 -0.09671,0.29838 -0.16344,0.43586c-1.03113,2.54361 -4.86652,8.47054 -7.66645,5.9641c-2.39018,-2.13965 2.63605,-9.50053 4.38662,-9.3357c0.51207,-0.23227 1.10509,-0.29405 1.68991,-0.13441c1.08546,0.29631 1.80767,1.26399 1.84103,2.33286c0.01643,0.10155 0.02016,0.20638 0.00894,0.31508z" data-paper-data="{&quot;origRot&quot;:0}" fill="#000000" stroke="none" stroke-width="0.5" stroke-linecap="butt"/><path d="M313.21735,186.26989c-0.3927,1.43853 -1.9096,2.2775 -3.38809,1.87388c-1.47849,-0.40361 -2.3587,-1.89697 -1.96599,-3.3355c0.3927,-1.43853 1.90961,-2.2775 3.3881,-1.87388c1.47849,0.40361 2.35869,1.89697 1.96598,3.3355z" data-paper-data="{&quot;origRot&quot;:0}" fill="#ffffff" stroke="none" stroke-width="0" stroke-linecap="butt"/><path d="M313.04861,195.42384l2.23296,-9.02796l4.36836,1.08047l-2.23296,9.02795z" data-paper-data="{&quot;origRot&quot;:0}" fill="#3f51b5" stroke="none" stroke-width="0" stroke-linecap="butt"/><path d="M319.66054,195.63984l0.71068,-9.27281l3.8886,0.29803l-0.71069,9.27281z" data-paper-data="{&quot;origRot&quot;:0}" fill="#3f51b5" stroke="none" stroke-width="0" stroke-linecap="butt"/><path d="M319.325,186.1v-8.1h2.7v8.1z" data-paper-data="{&quot;origPos&quot;:null}" fill="#0fa1cc" stroke="none" stroke-width="0" stroke-linecap="butt"/><path d="M314.975,189.25v-3.9h9.30065v3.9z" data-paper-data="{&quot;origPos&quot;:null}" fill="#3f51b5" stroke="none" stroke-width="0" stroke-linecap="butt"/><path d="M316.93153,200.56603c-1.05035,0.58282 -2.68386,-0.35406 -3.64852,-2.09258c-0.96466,-1.73852 -0.89519,-3.62034 0.15516,-4.20316c1.05035,-0.58282 2.68386,0.35407 3.64852,2.09259c0.96466,1.73853 0.89519,3.62033 -0.15516,4.20315z" data-paper-data="{&quot;origRot&quot;:0}" fill="#000000" stroke="none" stroke-width="0" stroke-linecap="butt"/><path d="M315.275,175.75l4.05,2.4l-0.15,7.5h-3.9z" fill="#000000" stroke="#000000" stroke-width="0.5" stroke-linecap="round"/><path d="M325.025,176.35l-0.3,9.6h-2.85v-7.95z" fill="#000000" stroke="#000000" stroke-width="0.5" stroke-linecap="round"/><path d="M324.46288,167.00743c0,0.90732 -1.16726,1.64285 -2.60715,1.64285c-1.43989,0 -2.60715,-0.73553 -2.60715,-1.64285c0,-0.90732 1.16726,-1.64286 2.60715,-1.64286c1.43989,0 2.60715,0.73554 2.60715,1.64286z" data-paper-data="{&quot;origPos&quot;:null}" fill="#03b3ff" stroke="none" stroke-width="0" stroke-linecap="butt"/><path d="M322.82002,165.79314c0,0.35504 -0.30381,0.64286 -0.67857,0.64286c-0.37476,0 -0.67857,-0.28782 -0.67857,-0.64286c0,-0.35504 0.30381,-0.64286 0.67857,-0.64286c0.37476,0 0.67857,0.28782 0.67857,0.64286z" data-paper-data="{&quot;origPos&quot;:null}" fill="#000000" stroke="none" stroke-width="0" stroke-linecap="butt"/><path d="M320.42406,165.20619c0,0.32417 -0.30172,0.58696 -0.67391,0.58696c-0.37219,0 -0.67391,-0.26279 -0.67391,-0.58696c0,-0.32417 0.30172,-0.58696 0.67391,-0.58696c0.37219,0 0.67391,0.26279 0.67391,0.58696z" data-paper-data="{&quot;origPos&quot;:null}" fill="#000000" stroke="none" stroke-width="0" stroke-linecap="butt"/><path d="M324.03276,164.9888c0,0.32416 -0.30173,0.58696 -0.67391,0.58696c-0.37219,0 -0.67391,-0.26279 -0.67391,-0.58696c0,-0.32416 0.30173,-0.58695 0.67391,-0.58695c0.37219,0 0.67391,0.26279 0.67391,0.58695z" data-paper-data="{&quot;origPos&quot;:null}" fill="#000000" stroke="none" stroke-width="0" stroke-linecap="butt"/><path d="M317.64145,164.53952c0,1.14059 -0.9149,2.06522 -2.04348,2.06522c-1.12858,0 -2.04348,-0.92463 -2.04348,-2.06522c0,-1.14059 0.9149,-2.06522 2.04348,-2.06522c1.12858,0 2.04348,0.92463 2.04348,2.06522z" data-paper-data="{&quot;origPos&quot;:null}" fill="#03b3ff" stroke="none" stroke-width="0" stroke-linecap="butt"/><path d="M324.31148,200.55838c-0.92695,0.764 -2.70351,0.13956 -3.96805,-1.3947c-1.26454,-1.53427 -1.53822,-3.39737 -0.61126,-4.16137c0.92695,-0.764 2.70351,-0.13956 3.96805,1.3947c1.26454,1.53427 1.53822,3.39737 0.61126,4.16137z" data-paper-data="{&quot;origRot&quot;:0}" fill="#000000" stroke="none" stroke-width="0" stroke-linecap="butt"/></g></g></svg>