<svg xmlns="http://www.w3.org/2000/svg" xmlns:xlink="http://www.w3.org/1999/xlink" version="1.1" width="89.21788692474365" height="112.57433223724365" viewBox="0.4135880470275879 0.33493852615356445 89.21788692474365 112.57433223724365">
  <defs>
    <radialGradient id="grad_1" cx="0.525" cy="0.23379999999999998" r="0.99606">
      <stop offset="0" stop-color="#FFD499" stop-opacity="1"/>
      <stop offset="1" stop-color="#FF9400" stop-opacity="1"/>
    </radialGradient>
  <radialGradient id="grad_1-.981574535369873,0,0,3.981574535369873,-904.2,-605.45" cx="47.0539" cy="28.7746" r="93.2948" gradientUnits="userSpaceOnUse">
      <stop offset="0" stop-color="#FFD499" stop-opacity="1"/>
      <stop offset="1" stop-color="#FF9400" stop-opacity="1"/>
    </radialGradient></defs>
  <!-- Exported by Scratch - http://scratch.mit.edu/ -->
  <path id="ID0.17864482337608933" fill="url(#grad_1-.981574535369873,0,0,3.981574535369873,-904.2,-605.45)" stroke="#FF9400" stroke-width="7.963149070739746" stroke-linecap="round" d="M 25.4977 45.1393 C 26.8434 41.6235 33.0308 56.3195 35.4516 53.8987 C 39.4133 49.8853 39.0947 40.1743 38.8359 33.1946 C 38.6727 29.0458 33.7355 25.4265 33.859 20.8517 C 34.0899 15.2177 36.0488 2.5324 39.8313 4.5272 C 46.6 8.1106 52.1145 22.731 55.3595 32.7964 C 58.4691 42.5433 54.6428 65.3338 58.5447 62.8573 C 63.0638 59.9906 68.4708 19.1754 74.0729 18.8609 C 79.7108 18.622 84.6917 46.5328 85.6194 61.0656 C 86.2127 70.5855 77.9629 79.2733 77.2581 88.9366 C 76.852 94.4471 85.3487 105.6114 83.2305 104.0666 C 79.5316 102.0201 71.5406 87.0573 63.7208 80.5753 C 61.7658 78.9548 58.8195 82.363 58.1466 84.5569 C 55.7696 91.9307 57.5016 100.304 53.7668 106.8537 C 52.1901 109.6567 46.0267 109.5811 44.2111 106.8537 C 41.2089 102.3943 47.2092 90.4456 42.8175 90.5292 C 35.3043 90.6925 27.6318 103.6764 20.9188 106.4555 C 18.5498 107.642 25.8401 102.9836 24.6536 98.4605 C 19.9234 80.4519 4.3435 50.5901 4.3953 46.3338 C 4.6501 42.4955 20.7914 76.7052 25.4977 76.1956 C 30.1561 75.6899 21.8665 52.772 25.4977 45.1393 Z "/>
</svg>