<svg version="1.1" xmlns="http://www.w3.org/2000/svg" xmlns:xlink="http://www.w3.org/1999/xlink" width="47.57143" height="51.85714" viewBox="0,0,47.57143,51.85714"><g transform="translate(-296.21428,-154.07143)"><g data-paper-data="{&quot;isPaintingLayer&quot;:true}" fill-rule="nonzero" stroke-linejoin="miter" stroke-miterlimit="10" stroke-dasharray="" stroke-dashoffset="0" style="mix-blend-mode: normal"><path d="M296.21429,205.92857v-51.85714h47.57143v51.85714z" fill="none" stroke="none" stroke-width="0" stroke-linecap="butt"/><path d="M318.80357,165.00714c0,1.7397 -1.27599,3.15 -2.85,3.15c-1.57401,0 -2.85,-1.4103 -2.85,-3.15c0,-1.7397 1.27599,-3.15 2.85,-3.15c1.57401,0 2.85,1.4103 2.85,3.15z" data-paper-data="{&quot;origPos&quot;:null}" fill="#0392cf" stroke="none" stroke-width="0" stroke-linecap="butt"/><path d="M327.08636,178.23665c0.0154,0.09333 0.02103,0.21656 0.01709,0.36509c0.0006,0.02247 0.0009,0.04502 0.0009,0.06763c0,0.15838 -0.01473,0.31332 -0.04289,0.46352c-0.32486,2.72537 -2.46398,9.45313 -5.82515,7.77255c-2.86929,-1.43465 0.041,-9.85937 1.77318,-10.16137c0.43282,-0.35893 0.98864,-0.5747 1.59486,-0.5747c1.12517,0 2.07673,0.74331 2.39041,1.76567c0.04259,0.09364 0.0738,0.19378 0.0916,0.3016z" data-paper-data="{&quot;origPos&quot;:null}" fill="#000000" stroke="none" stroke-width="0.5" stroke-linecap="butt"/><path d="M324.20434,186.81937c0,1.49117 -1.24241,2.7 -2.775,2.7c-1.53259,0 -2.775,-1.20883 -2.775,-2.7c0,-1.49117 1.24241,-2.7 2.775,-2.7c1.53259,0 2.775,1.20883 2.775,2.7z" data-paper-data="{&quot;origPos&quot;:null}" fill="#ffffff" stroke="none" stroke-width="0" stroke-linecap="butt"/><path d="M327.05357,171.22701c0,3.7665 -2.88777,6.81986 -6.45,6.81986c-3.56223,0 -6.45,-3.05335 -6.45,-6.81986c0,-3.7665 2.88777,-6.81987 6.45,-6.81987c3.56223,0 6.45,3.05336 6.45,6.81987z" data-paper-data="{&quot;origPos&quot;:null}" fill="#ffe896" stroke="none" stroke-width="0" stroke-linecap="butt"/><path d="M320.50357,174.9941c-1.07695,0 -1.95,-1.30957 -1.95,-2.925c0,-1.61543 0.87305,-2.925 1.95,-2.925c1.07696,0 1.95,1.30957 1.95,2.925c0,1.61544 -0.87305,2.925 -1.95,2.925z" data-paper-data="{&quot;origPos&quot;:null}" fill="#ffffff" stroke="none" stroke-width="0" stroke-linecap="butt"/><path d="M324.39161,174.70443c-0.86985,0 -1.575,-1.23402 -1.575,-2.75625c0,-1.52224 0.70515,-2.75625 1.575,-2.75625c0.86985,0 1.575,1.23402 1.575,2.75625c0,1.52224 -0.70515,2.75625 -1.575,2.75625z" data-paper-data="{&quot;origPos&quot;:null}" fill="#ffffff" stroke="none" stroke-width="0" stroke-linecap="butt"/><path d="M322.6427,171.36581c0,0.95269 -0.60441,1.725 -1.35,1.725c-0.74559,0 -1.35,-0.77231 -1.35,-1.725c0,-0.95269 0.60441,-1.725 1.35,-1.725c0.74559,0 1.35,0.77231 1.35,1.725z" data-paper-data="{&quot;origPos&quot;:null}" fill="#000aa7" stroke="none" stroke-width="0" stroke-linecap="butt"/><path d="M313.87186,173.23107c-0.14796,-0.02079 -0.29541,-0.04138 -0.38971,-0.04138c-0.64496,-0.05477 -1.45571,0.11447 -1.91364,-0.31387c-0.15293,-0.14305 0.42815,-1.11371 0.52321,-1.24774c0.79806,-1.12523 1.72427,-2.55227 2.75117,-3.51281c0.71135,0.32412 -1.12014,-0.89463 -1.20951,-1.66194c-0.05293,-0.45444 3.89268,-1.14755 4.27735,-1.14755c0.49603,0.01551 3.06599,-0.21325 3.87947,0.2406c0.01498,-0.17997 0.01971,-0.3499 -0.0074,-0.46123c-0.11236,-0.46141 -0.15199,-0.77789 -0.08219,-1.04881h-0.00417v-0.66813h0.45795c0.11037,-0.10236 0.24155,-0.21072 0.3956,-0.33071c0.08567,0.08013 0.59208,0.55382 0.64286,0.60131c0.52635,0.70416 1.879,0.79117 2.48866,1.48672c0.68095,0.77688 0.79442,2.3698 1.00327,3.35318c0.00764,0.03249 0.01166,0.06625 0.01166,0.10088c0,0.02639 -0.00234,0.05228 -0.00683,0.07748c-0.0189,0.13767 -0.09876,0.31846 -0.3767,0.37745c-0.01109,0.00248 -0.02233,0.00461 -0.0337,0.00638c-0.12573,0.02094 -0.225,0.00517 -0.30301,-0.02941l0.00236,0.03244c-0.7939,0.7426 -1.47421,1.61259 -2.34101,0.39641c-0.01515,-0.25624 -0.63015,-0.34508 -0.94791,-0.40903c0.01689,0.37196 -0.09339,0.9119 -0.573,1.00643c-1.00706,0.19849 -1.60919,-0.3137 -2.94132,-0.00234c0.00126,0.08855 -0.0652,2.35507 -0.27953,2.80002c-0.16269,0.33774 -0.74717,0.89255 -1.1131,1.01883c0.12586,0.28318 0.24683,0.59369 0.27777,0.67087c0.39588,1.0062 1.08061,1.60185 0.27883,2.67332c-1.03883,1.38825 -2.46247,-2.3052 -2.38571,-1.88412c0.06152,0.33747 -0.37539,0.52385 -0.89279,0.62633l-0.70316,0.49329c-0.08425,0.06045 -0.18966,0.09637 -0.30404,0.09637c-0.27614,0 -0.5,-0.20939 -0.5,-0.46769v-0.26725c0,-0.00444 0,-0.00905 0,-0.01381v-0.25344h0.00115c0.00635,-0.61229 0.04771,-1.85207 0.31713,-2.29707z" data-paper-data="{&quot;origPos&quot;:null}" fill="#000000" stroke="none" stroke-width="0.5" stroke-linecap="butt"/><path d="M323.64705,161.65497c1.40833,0 2.55,1.17525 2.55,2.625c0,1.44975 -1.14168,2.625 -2.55,2.625c-1.40832,0 -2.55,-1.17525 -2.55,-2.625c0,-1.44975 1.14168,-2.625 2.55,-2.625z" data-paper-data="{&quot;origPos&quot;:null}" fill="#0392cf" stroke="none" stroke-width="0" stroke-linecap="butt"/><path d="M325.70511,171.29081c0,0.99411 -0.53726,1.8 -1.2,1.8c-0.66274,0 -1.2,-0.80589 -1.2,-1.8c0,-0.99411 0.53726,-1.8 1.2,-1.8c0.66274,0 1.2,0.80588 1.2,1.8z" data-paper-data="{&quot;origPos&quot;:null}" fill="#000aa7" stroke="none" stroke-width="0" stroke-linecap="butt"/><path d="M316.63756,170.75571c-0.42565,3.2405 -1.9675,5.68324 -3.44382,5.45603c-1.47632,-0.22722 -2.32806,-3.03834 -1.90241,-6.27884c0.42565,-3.2405 1.9675,-5.68324 3.44382,-5.45603c1.47632,0.22722 2.32806,3.03834 1.90241,6.27884z" data-paper-data="{&quot;origPos&quot;:null,&quot;origRot&quot;:0}" fill="#0392cf" stroke="none" stroke-width="0" stroke-linecap="butt"/><path d="M325.98928,164.1917c0,1.14059 -0.9149,2.06521 -2.04348,2.06521c-1.12858,0 -2.04348,-0.92462 -2.04348,-2.06521c0,-1.14059 0.9149,-2.06522 2.04348,-2.06522c1.12858,0 2.04348,0.92463 2.04348,2.06522z" data-paper-data="{&quot;origPos&quot;:null}" fill="#03b3ff" stroke="none" stroke-width="0" stroke-linecap="butt"/><path d="M327.05357,166.43214c0,1.44975 -3.25713,2.625 -7.275,2.625c-4.01787,0 -7.275,-1.17525 -7.275,-2.625c0,-1.44975 3.25713,-2.625 7.275,-2.625c4.01787,0 7.275,1.17525 7.275,2.625z" data-paper-data="{&quot;origPos&quot;:null}" fill="#0392cf" stroke="none" stroke-width="0" stroke-linecap="butt"/><path d="M322.54922,175.26801c0,0.16568 -0.33578,0.3 -0.75,0.3c-0.41422,0 -0.75,-0.13431 -0.75,-0.3c0,-0.16568 0.33578,-0.3 0.75,-0.3c0.41422,0 0.75,0.13432 0.75,0.3z" data-paper-data="{&quot;origPos&quot;:null}" fill="#000000" stroke="none" stroke-width="0" stroke-linecap="butt"/><path d="M317.78148,178.2002c0.0052,0.09445 -0.00255,0.21756 -0.02256,0.36479c-0.00184,0.0224 -0.00399,0.04486 -0.00644,0.06733c-0.01716,0.15745 -0.04858,0.30988 -0.09285,0.45614c-0.61823,2.67413 -3.47368,9.13053 -6.63298,7.09567c-2.69696,-1.73708 1.10897,-9.79689 2.86368,-9.90944c0.46916,-0.30992 1.04509,-0.4642 1.64774,-0.39853c1.11855,0.1219 1.98397,0.96394 2.18503,2.01426c0.0322,0.0977 0.05237,0.20064 0.05838,0.30975z" data-paper-data="{&quot;origRot&quot;:0}" fill="#000000" stroke="none" stroke-width="0.5" stroke-linecap="butt"/><path d="M313.98653,186.42014c-0.16156,1.48239 -1.52762,2.5495 -3.05119,2.38345c-1.52357,-0.16605 -2.6277,-1.50238 -2.46614,-2.98477c0.16156,-1.48239 1.52763,-2.5495 3.0512,-2.38345c1.52357,0.16605 2.62769,1.50238 2.46613,2.98477z" data-paper-data="{&quot;origPos&quot;:null,&quot;origRot&quot;:0}" fill="#ffffff" stroke="none" stroke-width="0" stroke-linecap="butt"/><path d="M312.15581,194.09994l3.5188,-8.60861l4.16545,1.70265l-3.5188,8.6086z" data-paper-data="{&quot;origRot&quot;:0,&quot;origPos&quot;:null}" fill="#3f51b5" stroke="none" stroke-width="0" stroke-linecap="butt"/><path d="M318.72905,194.36835l2.12989,-9.05282l3.79635,0.89318l-2.1299,9.05282z" data-paper-data="{&quot;origPos&quot;:null,&quot;origRot&quot;:0}" fill="#3f51b5" stroke="none" stroke-width="0" stroke-linecap="butt"/><path d="M319.325,186.1v-8.1h2.7v8.1z" data-paper-data="{&quot;origPos&quot;:null}" fill="#0fa1cc" stroke="none" stroke-width="0" stroke-linecap="butt"/><path d="M314.975,189.25v-3.9h9.30065v3.9z" data-paper-data="{&quot;origPos&quot;:null}" fill="#3f51b5" stroke="none" stroke-width="0" stroke-linecap="butt"/><path d="M315.25182,199.75095c-1.12378,0.42431 -2.60412,-0.73959 -3.30642,-2.59965c-0.7023,-1.86005 -0.36062,-3.7119 0.76316,-4.13621c1.12378,-0.42431 2.60412,0.7396 3.30642,2.59966c0.7023,1.86006 0.36062,3.71189 -0.76316,4.1362z" data-paper-data="{&quot;origPos&quot;:null,&quot;origRot&quot;:0}" fill="#000000" stroke="none" stroke-width="0" stroke-linecap="butt"/><path d="M315.275,175.75l4.05,2.4l-0.15,7.5h-3.9z" fill="#000000" stroke="#000000" stroke-width="0.5" stroke-linecap="round"/><path d="M325.025,176.35l-0.3,9.6h-2.85v-7.95z" fill="#000000" stroke="#000000" stroke-width="0.5" stroke-linecap="round"/><path d="M324.46288,167.00743c0,0.90732 -1.16726,1.64285 -2.60715,1.64285c-1.43989,0 -2.60715,-0.73553 -2.60715,-1.64285c0,-0.90732 1.16726,-1.64286 2.60715,-1.64286c1.43989,0 2.60715,0.73554 2.60715,1.64286z" data-paper-data="{&quot;origPos&quot;:null}" fill="#03b3ff" stroke="none" stroke-width="0" stroke-linecap="butt"/><path d="M322.82002,165.79314c0,0.35504 -0.30381,0.64286 -0.67857,0.64286c-0.37476,0 -0.67857,-0.28782 -0.67857,-0.64286c0,-0.35504 0.30381,-0.64286 0.67857,-0.64286c0.37476,0 0.67857,0.28782 0.67857,0.64286z" data-paper-data="{&quot;origPos&quot;:null}" fill="#000000" stroke="none" stroke-width="0" stroke-linecap="butt"/><path d="M320.42406,165.20619c0,0.32417 -0.30172,0.58696 -0.67391,0.58696c-0.37219,0 -0.67391,-0.26279 -0.67391,-0.58696c0,-0.32417 0.30172,-0.58696 0.67391,-0.58696c0.37219,0 0.67391,0.26279 0.67391,0.58696z" data-paper-data="{&quot;origPos&quot;:null}" fill="#000000" stroke="none" stroke-width="0" stroke-linecap="butt"/><path d="M324.03276,164.9888c0,0.32416 -0.30173,0.58696 -0.67391,0.58696c-0.37219,0 -0.67391,-0.26279 -0.67391,-0.58696c0,-0.32416 0.30173,-0.58695 0.67391,-0.58695c0.37219,0 0.67391,0.26279 0.67391,0.58695z" data-paper-data="{&quot;origPos&quot;:null}" fill="#000000" stroke="none" stroke-width="0" stroke-linecap="butt"/><path d="M317.64145,164.53952c0,1.14059 -0.9149,2.06522 -2.04348,2.06522c-1.12858,0 -2.04348,-0.92463 -2.04348,-2.06522c0,-1.14059 0.9149,-2.06522 2.04348,-2.06522c1.12858,0 2.04348,0.92463 2.04348,2.06522z" data-paper-data="{&quot;origPos&quot;:null}" fill="#03b3ff" stroke="none" stroke-width="0" stroke-linecap="butt"/><path d="M322.56725,199.94433c-1.03353,0.61217 -2.69276,-0.27835 -3.706,-1.98901c-1.01324,-1.71067 -0.9968,-3.59369 0.03673,-4.20586c1.03353,-0.61217 2.69276,0.27835 3.706,1.98901c1.01324,1.71067 0.9968,3.59369 -0.03673,4.20586z" data-paper-data="{&quot;origPos&quot;:null,&quot;origRot&quot;:0}" fill="#000000" stroke="none" stroke-width="0" stroke-linecap="butt"/></g></g></svg>