<svg version="1.1" xmlns="http://www.w3.org/2000/svg" xmlns:xlink="http://www.w3.org/1999/xlink" width="742" height="450.99551" viewBox="0,0,742,450.99551"><defs><linearGradient x1="379.10985" y1="93.08466" x2="379.10985" y2="243.65249" gradientUnits="userSpaceOnUse" id="color-1"><stop offset="0" stop-color="#000000"/><stop offset="1" stop-color="#e28445"/></linearGradient><linearGradient x1="402.52695" y1="191.69223" x2="402.52695" y2="230.69223" gradientUnits="userSpaceOnUse" id="color-2"><stop offset="0" stop-color="#f5cf03" stop-opacity="0"/><stop offset="1" stop-color="#f5cf03"/></linearGradient><linearGradient x1="390.92872" y1="177.50771" x2="390.92872" y2="331.94522" gradientUnits="userSpaceOnUse" id="color-3"><stop offset="0" stop-color="#832e00"/><stop offset="1" stop-color="#4c1a00"/></linearGradient><linearGradient x1="320" y1="271.5" x2="320" y2="-12.5" gradientUnits="userSpaceOnUse" id="color-4"><stop offset="0" stop-color="#000000" stop-opacity="0"/><stop offset="1" stop-color="#000000"/></linearGradient></defs><g transform="translate(45.90162,42.76172)"><g data-paper-data="{&quot;isPaintingLayer&quot;:true}" fill-rule="nonzero" stroke-linecap="butt" stroke-linejoin="miter" stroke-miterlimit="10" stroke-dasharray="" stroke-dashoffset="0" style="mix-blend-mode: normal"><path d="M-45.90162,185.15069v-222h742v222z" fill="#b5daff" stroke="none" stroke-width="0"/><path d="M-25.90162,408.23379v-236h720v236z" fill="#006622" stroke="none" stroke-width="0"/><path d="M323.51847,114.39752c6.68223,-13.47022 21.93863,-19.2802 36.0883,-21.31281c47.66643,3.26708 35.14601,38.31368 50.71389,69.48215c4.4457,8.90071 15.00375,19.21322 21.52243,26.95268c0,7.09296 10.2291,45.98418 1.83834,51.50062c-17.8938,11.76409 -49.55673,-18.98015 -57.18621,-31.61272c-9.78212,-29.6291 -26.77553,-75.70895 -55.26273,-93.1298z" data-paper-data="{&quot;noHover&quot;:false,&quot;origItem&quot;:[&quot;Path&quot;,{&quot;applyMatrix&quot;:true,&quot;segments&quot;:[[[696.00398,311.55876],[0,0],[6.55825,4.01058]],[[708.65851,332.83214],[-2.25203,-6.82115],[1.75644,2.90826]],[[721.7573,340.1298],[-4.11947,2.7083],[1.93171,-1.26998]],[[721.30132,328.31623],[0,1.63292],[-1.50073,-1.78175]],[[716.34101,322.16682],[1.02348,2.04911],[-3.584,-7.17553]],[[704.78917,306.24923],[10.97364,0.75213],[-3.2575,0.46795]],[[696.52767,311.12868],[1.53837,-3.10109],[0,0]]],&quot;closed&quot;:true}]}" fill="url(#color-1)" stroke="none" stroke-width="0.5"/><path d="M369.95553,230.69223v-39h65.14286v39z" fill="url(#color-2)" stroke="none" stroke-width="0"/><path d="M326.00003,118.25002c-0.96577,0 -7.13563,0.00734 -7.40046,-0.03228c-6.6877,-1.00046 -12.15663,-6.49815 -17.18452,-10.53436c-0.66867,-0.53678 -1.04798,-1.41871 -1.79126,-1.84625c-1.43302,-0.82429 -3.20609,-0.95801 -4.60777,-1.83453c-1.32881,-0.83096 -2.16396,-2.29653 -3.44413,-3.20062c-2.46717,-1.74239 -5.83924,-2.30261 -8.41871,-3.71817c-2.9561,-1.62224 -3.47506,-3.33287 -6.59259,-3.8727c-5.03258,-0.87144 -9.93834,-0.99762 -15.01763,-2.2484c-12.21,-3.06071 -24.46063,-0.50407 -36.78929,-1.72484c-0.21961,-0.02175 -10.19069,-2.02457 -10.35758,-2.07982c-1.39898,-0.46308 -2.5389,-1.57048 -3.95686,-1.97172c-0.99643,-0.28196 -2.1304,0.31869 -3.10655,-0.02701c-1.73298,-0.61372 -3.13771,-1.92351 -4.77304,-2.76348c-9.43645,-4.84689 -18.8446,-8.73983 -27.31971,-15.29693c-3.76127,-2.85051 -8.64503,-5.33012 -12.02023,-8.59375c-0.87616,-0.84719 -1.17467,-2.17465 -2.03582,-3.03709c-1.11998,-1.12166 -2.61683,-1.79967 -3.82187,-2.8294c-2.91484,-2.49078 -5.64018,-5.73859 -8.82377,-7.86053c-2.21049,-1.47334 -4.51475,-3.03988 -7.11261,-3.59498c-1.66019,-0.35474 -3.45905,0.43707 -5.09295,-0.02384c-3.20515,-0.90414 -5.72528,-3.53783 -8.90365,-4.53202c-6.44513,-2.01603 -13.00652,-1.92526 -18.8908,-5.84916c-2.71223,-1.80864 -5.21343,-4.91872 -7.85255,-6.90148c-2.80616,-1.40604 -5.2403,-3.45729 -7.90139,-5.12165c-2.37937,-1.48816 -5.20638,-2.28333 -7.36925,-4.07162c-3.34314,-2.76414 -7.05073,-6.57322 -9.85968,-9.85481c-1.7111,-1.99901 -2.80411,-4.47218 -4.4887,-6.49358c-0.50177,-0.60209 -5.00286,-4.77444 -5.37634,-5.62826c-0.40077,-0.91618 0.32873,-2.05558 0,-3c-0.20615,-0.59227 -1.00376,-0.75664 -1.45807,-1.18894c-0.9032,-0.85946 -1.55224,-2.0182 -2.60846,-2.68066c-1.33615,-0.83803 -2.99663,-1.01586 -4.40793,-1.72002c-2.88261,-1.43825 -5.73884,-3.03436 -8.2045,-5.10764c-0.59892,-0.50361 -0.46158,-1.69059 -1.16181,-2.03989c-0.98935,-0.49352 -2.49209,0.55102 -3.31131,-0.19145c-2.50983,-2.2747 -2.00594,-5.59561 -2.00594,-8.42856c0.56665,-1.45577 0.62357,-3.23516 1.69995,-4.36731c0.98496,-1.03599 2.63501,-1.11206 3.9772,-1.60394c5.0095,-1.83587 10.51721,-1.14856 15.79057,-1.12829c2.49068,0.00957 4.92971,0.71766 7.40046,1.03228c3.23283,0.41167 6.52591,-0.25525 9.77677,-0.02599c3.28784,0.23186 6.54855,0.83865 9.84288,0.94375c13.30243,0.42436 26.67209,0.04996 39.97989,0.04996c4.88544,0 9.95087,0.35253 14.82278,0.00629c4.6885,-0.3332 9.30831,-1.69683 14,-2c5.66431,-0.36602 11.50234,-0.00629 17.17722,-0.00629c2.5511,0 5.14283,0.47791 7.65325,0.02416c4.71974,-0.85308 9.28092,-2.61445 14.12814,-3.01459c9.39068,-0.7752 18.77851,-1.00958 28.21862,-1.00958c8.50192,0 16.9322,-0.19663 25.31324,1.0197c3.96214,0.57502 8.81146,1.6842 12.55413,3.13559c1.3502,0.5236 2.49416,1.53178 3.87805,1.95843c4.46886,1.37772 9.30121,-0.03965 13.75316,0.9365c3.21357,0.70462 6.19185,2.35598 9.43926,2.88311c8.42069,1.36687 16.55465,2.06667 25.06217,2.06667c5.66667,0 11.33333,0 17,0c1.15459,0 6.53074,-0.0706 7.17964,0.29581c1.32,0.74536 1.75922,2.47512 2.75371,3.61921c1.81782,2.09126 4.01451,3.95566 5.2792,6.4211c0.76447,1.49029 1.12211,3.16502 1.86844,4.66448c0.61277,1.23112 3.40522,5.05905 4.08128,6.24457c1.54909,2.71646 2.28561,5.84289 3.81397,8.57107c0.98179,1.75253 3.11653,2.64709 4.15038,4.36942c1.45709,2.42741 1.59118,5.45156 2.73799,8.04005c0.91379,2.06252 3.10143,5.23393 4.38117,7.1759c0.87365,2.57984 2.54032,4.8782 3.18733,7.524c0.93477,3.82253 -0.42598,4.02129 0.04815,7.26892c0.7117,4.87496 1.89659,9.17341 1.98697,14.19216c0.02845,1.57973 0.03081,8.45172 0.03169,10.04167c0.00092,1.66712 0.04463,3.33484 0.00008,5.00136c-0.01891,0.70712 -0.45935,1.45935 -0.1903,2.11356c0.26948,0.65526 1.17765,0.82122 1.62366,1.37174c0.87789,1.08359 1.69684,2.23524 2.31243,3.48659c1.0018,2.03642 0.86088,4.45734 1.22193,6.69792c0.31925,1.98115 1.4217,3.7609 1.93258,5.70149c0.28189,1.07076 0.01491,2.34716 0.64324,3.25885c0.73503,1.06651 2.51781,1.13599 3.16065,2.26048c0.61464,1.07516 -0.05276,2.50618 0.2507,3.70688c0.40412,1.59894 1.23089,3.06016 1.84633,4.59023c0.13918,5.72492 6.46275,11.37125 1.68554,17.40002c-4.06278,5.12718 -13.19683,4.98252 -18.98677,4.98252c-14,0 -28,0 -42,0c-1,0 -2,0 -3,0z" fill="#000000" stroke="none" stroke-width="0.5"/><path d="M375.50648,196.14242l0.97307,3.00353c0.31697,1.58733 0.63395,3.17466 0.95092,4.76199c0.29483,2.73256 -0.51479,10.33494 1.16805,8.16205c2.02875,-2.61967 5.86882,-5.58324 8.94133,-4.34286c1.91869,0.77458 9.64074,18.37142 12.08183,17.32267c4.19477,-1.802 8.72829,-4.53173 13.20492,-3.63569c3.7714,0.75489 5.25672,6.06291 8.87079,7.37898c0.65908,0.23995 3.82643,-9.66311 4.55969,-9.93378c0.96114,-0.35478 2.12099,-0.35612 3.31357,-0.0935c-3.85998,-7.27481 -7.56837,-14.88859 -0.29237,-18.94281c2.99361,-1.66801 -3.90613,-5.73751 -4.98978,-8.9886c-0.70389,-2.11167 -0.98761,-3.61712 -1.04286,-5.04712l-0.89149,-3.56597c-0.08575,-0.31384 -0.13161,-0.64424 -0.13161,-0.98537c0,-2.05902 1.6692,-3.72822 3.72822,-3.72822c0.85287,0 1.63885,0.2864 2.26706,0.76824l3.49693,2.62266c15.97037,8.02291 22.48022,23.26069 30.02943,38.45574c10.1574,13.97786 27.06415,23.55731 41.0341,33.48326c7.71578,5.4822 8.95534,16.96588 14.35411,21.76388c3.78638,3.36502 20.09065,8.20209 21.51267,12.09958c2.31351,6.34096 -11.83838,12.00205 -15.3831,12.62362c-3.95609,0.56512 -7.996,0.33561 -11.98788,0.14861c-3.10651,-0.14555 3.99091,6.36348 2.37697,9.02186c-5.80149,9.55574 -32.49423,0.43195 -39.73698,7.89616c-2.10167,2.16595 3.11933,8.80599 -1.87902,12.26496c-8.95326,6.19594 -34.20541,-9.77846 -32.64448,-6.60962c-13.36524,6.93726 -20.8659,-4.59272 -31.38352,-13.00621c-4.17994,-3.3437 -10.2509,-15.13249 -12.38382,-10.22301c-4.76072,10.95837 -12.72346,22.48663 -25.22054,27.58252c-8.97935,3.66149 -13.20559,-1.63498 -20.38586,5.54529c-9.82573,-0.3333 -14.73864,-11.2441 -26.09757,-8.3885c-5.88478,1.47943 -6.35066,10.17656 -14.97016,7.45645c-8.44763,-2.6659 -18.57931,-9.25808 -27.16078,-13.10612c-1.96418,-0.88068 -3.98674,-5.45439 -5.27275,-3.72822c-6.43596,8.63874 -7.29874,13.02045 -20.10109,13.16652c-0.11468,-11.06746 4.27008,-32.14594 0.31526,-41.87728c-2.26952,-5.58443 -19.47147,-4.04825 -11.82615,-15.07053c2.71512,-3.91441 11.14456,-1.6648 13.3879,-5.34269c1.44282,-2.36548 6.88469,-11.95641 12.2493,-13.79771c-9.65834,-11.24999 9.46298,-15.89789 21.19391,-15.96194c10.57406,0 28.06756,3.96631 37.16972,-3.23587c5.15509,-4.07898 7.86655,-11.41321 12.60811,-15.44752c11.75494,-10.00133 19.49391,-9.93013 28.07398,-25.10892c0,0 1.84972,-3.23699 5.08671,-1.38727c3.23699,1.84972 1.38727,5.08671 1.38727,5.08671c-0.18417,0.31921 -0.36887,0.63246 -0.55424,0.93996z" fill="url(#color-3)" stroke="none" stroke-width="0.5"/><path d="M655,-12.5v284h-670v-284z" data-paper-data="{&quot;index&quot;:null}" fill="url(#color-4)" stroke="#000000" stroke-width="0"/><text transform="translate(21.32822,43.925)" font-size="22" xml:space="preserve" fill="#ffffff" fill-rule="nonzero" stroke="none" stroke-width="1" stroke-linecap="butt" stroke-linejoin="miter" stroke-miterlimit="10" stroke-dasharray="" stroke-dashoffset="0" font-family="Sans Serif" font-weight="400" text-anchor="start" style="mix-blend-mode: normal"><tspan x="0" dy="0">Earth got an SOS broadcast about a Venus colony named</tspan><tspan x="0" dy="24.86px">TecTown suffering some native disease that was making</tspan><tspan x="0" dy="24.86px">colonists morph into zombies, and gathering in a nearby</tspan><tspan x="0" dy="24.86px">volcano</tspan></text></g></g></svg>