<svg version="1.1" xmlns="http://www.w3.org/2000/svg" xmlns:xlink="http://www.w3.org/1999/xlink" width="31.21224" height="38.08105" viewBox="0,0,31.21224,38.08105"><g transform="translate(-309.87848,-143.03828)"><g data-paper-data="{&quot;isPaintingLayer&quot;:true}" fill-rule="nonzero" stroke="#000000" stroke-linejoin="miter" stroke-miterlimit="10" stroke-dasharray="" stroke-dashoffset="0" style="mix-blend-mode: normal"><path d="M325.09645,147.31168h-5.38527l-2.63984,0.95034l-1.26712,2.21746l-1.16153,4.11814l-3.80136,15.94461l-0.21119,4.11814l0.21119,2.42865l0.84475,1.90068l1.05593,0.95034l12.46003,0.42237l1.26712,-0.73915l2.32306,-2.11187l0.31678,-1.5839l-0.73915,-4.75171l0.31678,-5.91323l1.47831,-3.90696l2.42865,-3.37899l0.63356,-2.53424l-0.52797,-3.48458l-1.6895,-2.42865l-2.42865,-1.5839z" fill="#000000" stroke-width="1.5" stroke-linecap="round"/><path d="M323.93492,152.11618c0,-4.4613 3.6166,-8.0779 8.0779,-8.0779c4.4613,0 8.0779,3.6166 8.0779,8.0779c0,4.4613 -3.6166,8.0779 -8.0779,8.0779c-4.4613,0 -8.0779,-3.6166 -8.0779,-8.0779z" fill="#ffffff" stroke-width="2" stroke-linecap="butt"/></g></g></svg>