<svg version="1.1" xmlns="http://www.w3.org/2000/svg" xmlns:xlink="http://www.w3.org/1999/xlink" width="43.51446" height="41.7271" viewBox="0,0,43.51446,41.7271"><g transform="translate(-302.52814,-139.64451)"><g data-paper-data="{&quot;isPaintingLayer&quot;:true}" fill-rule="nonzero" stroke-linejoin="miter" stroke-miterlimit="10" stroke-dasharray="" stroke-dashoffset="0" style="mix-blend-mode: normal"><path d="M326.45208,161.27755l-0.07836,-0.45317l-0.0328,-0.07428l-0.00142,-0.08139l-0.05353,-0.19993l0.00216,-0.06563l0.03235,-0.25976l0.15451,0.00838l0.06753,-0.01311l0.06695,0.0152l0.15729,-0.00363l0.09423,0.03142l0.11041,0.00832l0.0999,0.04743l0.42395,0.08434l0.24873,0.06976l0.12057,0.00324l0.11166,0.04506l0.42168,0.05792l0.07409,-0.00816l0.07101,0.0219l0.40227,0.02104l0.04172,0.01164l0.21592,0.11394l0.55952,0.13556l0.16472,-0.00152l0.15704,0.04801l0.10634,0.00532l0.02063,0.0063l0.04242,0.02414l0.38902,0.10727l0.38655,0.11718l0.04919,0.00235l0.04878,0.01335l0.01723,-0.01018l0.22543,0.01076l0.4471,0.12145l0.26352,0.00577l0.25737,0.05614l0.13192,-0.00326l0.01342,0.00747l0.27737,0.07573l0.2611,0.1209l0.21695,0.0434l0.02836,0.01596l0.39761,0.11319l0.39286,0.12515l0.04949,0.00342l0.04928,0.01444l0.01707,-0.00986l0.00448,0.00031l0.16216,0.05598l0.29171,0.02621l0.09296,0.05423l0.16938,0.04978l0.1486,0.09652l0.38403,0.1326l0.04268,0.00365l0.03725,0.02177l0.10626,0.03099l0.01862,0.01087l0.31412,0.09134l2.76056,1.60104l0.01748,0.03544l0.0331,0.03905l0.00036,0.00134l0.00484,0.00875l-0.00782,0.03125l0.23062,0.37082l0.21164,0.38186l0.03093,0.00804l0.00527,0.00847l0.09602,0.09285l0.08886,0.13473l0.09298,0.08525l0.05839,0.11214l0.00012,0.00012l-0.001,0.30792l0.14488,0.13995l-0.01337,0.02671l0.03389,0.09629l-0.00735,0.02596l-0.22836,-0.04064l-0.43594,0.03076l-1.17093,-0.09527l-0.02403,0.00402l-0.0232,-0.00719l-1.05938,-0.05606l-0.10907,0.02141l-0.1091,-0.0191l-0.4611,0.03392l-0.4218,-0.02137l-0.27845,0.05495l-0.03104,0.00084l-0.315,-0.01557l-0.12365,-0.02392l-0.05307,0.00287l-0.04908,-0.0195l-0.73212,-0.0966l-0.20157,-0.05485l-0.19599,-0.00446l-0.0667,-0.02002l-0.18223,-0.10179l-0.3394,-0.09242l-0.09663,-0.09452l-0.23068,0.00466l-0.22221,-0.06168l-0.0183,0.01044l-0.13194,-0.06169l-0.18349,-0.03735l-0.04224,-0.01201l-0.15989,-0.09096l-0.06942,-0.01999l-0.03407,-0.05005l-0.3957,-0.07488l-0.24442,-0.07166l-0.02213,-0.01529l-0.31846,-0.12169l-0.08078,-0.04719l-0.20904,-0.06139l-0.18858,-0.11028l-0.31464,-0.09196l-0.0568,-0.00208l-0.93009,-0.54237l-0.0088,-0.01784l-0.04803,-0.01521l-0.04235,-0.02463l-0.31331,-0.09001l-1.59344,-0.92244l-0.03506,-0.03396l-0.04864,-0.0935l-0.05723,-0.06468l-0.00871,-0.03244l-0.13704,-0.24736l-0.09391,-0.26699l-0.16226,-0.24615l-0.00572,-0.05258z" data-paper-data="{&quot;noHover&quot;:false,&quot;origItem&quot;:[&quot;Path&quot;,{&quot;applyMatrix&quot;:true,&quot;segments&quot;:[[654.73221,315.87476],[654.64739,315.93674],[654.38468,316.46215],[654.01853,316.88933],[653.72906,317.37178],[653.6819,317.41894],[653.62748,317.5822],[653.51499,317.75897],[653.49139,317.85337],[653.49139,321.52659],[653.64924,322.15799],[653.64924,322.25552],[653.67104,322.35365],[653.64924,322.38636],[653.64924,324.52393],[653.70258,324.62396],[653.86043,325.25536],[653.86043,325.68623],[653.96494,326.10423],[653.96494,326.28811],[654.07516,326.94948],[654.07097,327.00192],[654.1922,327.48683],[654.45736,328.2293],[654.40433,328.33536],[654.43848,328.47198],[654.43848,328.83036],[654.45923,328.91335],[654.57457,329.25938],[654.59637,329.54269],[654.63238,329.56327],[654.74146,329.99956],[654.97283,330.38519],[654.90241,330.6434],[655.06988,331.31327],[655.06988,331.72649],[655.09969,331.86064],[655.28108,332.20074],[655.38132,332.6017],[655.9245,333.95965],[655.93872,334.06392],[655.99522,334.15272],[656.07441,334.39029],[656.35455,334.95057],[656.38627,335.00343],[656.75242,335.43061],[657.12852,336.18281],[657.63905,336.9486],[657.71344,337.15689],[657.85737,337.32481],[658.80447,339.219],[658.81501,339.26643],[658.84561,339.30415],[659.83832,341.43138],[660.3225,342.15764],[660.47849,342.59442],[660.53048,342.58142],[660.6628,342.42705],[660.72206,342.42376],[660.81966,342.03339],[661.3509,341.72982],[661.35101,341.7295],[661.48626,341.51697],[661.54091,341.27105],[661.68479,340.98329],[661.74945,340.72462],[661.75882,340.70707],[661.742,340.64542],[662.18925,339.90001],[662.59833,339.13298],[662.65984,339.11568],[662.67008,339.09862],[662.67203,339.09667],[662.70633,339.00065],[662.7499,338.93529],[662.7499,332.57607],[662.59205,331.94467],[662.59205,331.90199],[662.5387,331.6886],[662.5387,331.60326],[662.50217,331.52613],[662.34432,330.73688],[662.3609,330.38867],[662.27635,330.05047],[662.27635,329.83922],[662.02862,329.31623],[661.96269,328.9866],[661.95874,328.97868],[661.9246,328.95918],[661.90022,328.86166],[661.85661,328.77443],[661.68215,327.98937],[661.4871,327.20918],[661.4871,327.14575],[661.35101,326.73748],[661.30786,326.17651],[661.1714,325.63068],[661.1714,325.60041],[661.03878,325.37937],[660.88808,324.88421],[660.64451,324.42751],[660.42199,323.53745],[660.22239,323.13825],[660.18826,323.11874],[660.16388,323.02122],[660.12026,322.93399],[659.94581,322.14894],[659.75076,321.36874],[659.75076,321.27122],[659.74142,321.22921],[659.64671,321.03979],[659.57563,320.71991],[659.41187,320.43607],[659.09618,319.33112],[659.07991,318.84321],[659.05893,318.75928],[658.69962,318.04065],[658.6674,317.89567],[658.58044,317.77527],[658.26474,316.98602],[658.23221,316.74747],[658.11891,316.53503],[657.99366,316.03403],[657.72047,315.21446],[657.70351,314.99394],[657.60883,314.79407],[657.56988,314.59929],[657.40824,314.3299],[657.36828,314.19861],[657.27897,314.09441],[657.14072,313.81791],[656.66124,314.0198],[656.54607,314.08122],[656.25465,314.37264],[656.1159,314.45589],[656.02042,314.58654],[655.31776,315.17209]],&quot;closed&quot;:true}]}" fill="#493b29" stroke="#000000" stroke-width="1.5" stroke-linecap="butt"/><path d="M326.76576,147.94523l2.42865,1.5839l1.6895,2.42865l0.52797,3.48458l-0.63356,2.53424l-2.42865,3.37899l-1.47831,3.90696l-0.31678,5.91323l0.73915,4.75171l-0.31678,1.5839l-2.32306,2.11187l-1.26712,0.73915l-12.46003,-0.42237l-1.05593,-0.95034l-0.84475,-1.90068l-0.21119,-2.42865l0.21119,-4.11814l3.80136,-15.94461l1.16153,-4.11814l1.26712,-2.21746l2.63984,-0.95034h5.38527z" fill="#493b29" stroke="#000000" stroke-width="2" stroke-linecap="round"/><path d="M318.33126,148.72241c0,-4.4613 3.6166,-8.0779 8.0779,-8.0779c4.4613,0 8.0779,3.6166 8.0779,8.0779c0,4.4613 -3.6166,8.0779 -8.0779,8.0779c-4.4613,0 -8.0779,-3.6166 -8.0779,-8.0779z" fill="#493b29" stroke="#000000" stroke-width="2" stroke-linecap="butt"/><path d="M310.33057,157.02469l0.0978,-0.04363l0.00386,0.00047l1.28767,0.35983l0.13592,0.00365l0.12673,0.04836l0.38467,0.04599l0.0625,0.02952l0.08666,0.01716l0.74801,0.70721l0.05536,0.09037l0.02468,0.08441l0.02647,0.04548l0.00523,0.05226l0.08388,0.23493l0.06109,0.09217l0.0245,0.10768l0.07157,0.14222l0.04363,0.13058l0.05273,0.29411l0.3986,0.89023l0.13258,0.16979l0.08832,0.1961l1.22456,1.54181l0.19815,0.12775l0.09044,0.13912l0.44479,0.3507l0.08295,0.03576l0.06533,0.06349l0.20229,0.12046l0.27544,0.24781l0.31189,0.30738l0.13742,0.07983l0.10744,0.11724l0.17883,0.11956l0.14384,0.15246l0.2722,0.21239l-0.02364,0.05763l0.20901,0.08182l0.17707,0.13857l0.13156,-0.01801l0.32132,0.12526l0.28544,0.03683l0.12157,0.10131l0.12615,0.0805l0.15648,0.05615l0.05344,0.07861l0.32629,0.05753l0.31231,0.11185l0.05007,-0.02487l0.04153,0.02919l0.36634,0.14194l0.0845,0.04037l0.13542,0.09099l0.30167,0.27813l0.18533,0.10073l0.15438,0.14379l0.37804,0.20172l0.34909,0.22881l0.09101,0.07855l0.15407,0.19838l-0.00207,0.00145l-0.04296,-0.0052l-0.41643,0.05237l-0.35413,0.02754l-0.04967,-0.006l-0.12538,0.0158l-0.12299,-0.02795l-0.27098,0.00606l-0.09837,-0.01183l-0.28024,0.03538l-0.19549,-0.00833l-0.0669,-0.04913l-0.15618,0.0278l-0.15517,-0.03083l-0.1128,0.07853l-0.37984,0.06759l-0.07824,-0.00935l-0.12767,0.01614l-0.03891,-0.00163l-0.06426,0.01317l-0.35216,-0.07941l-0.04904,0.00113l-0.04953,-0.00979l-0.0163,0.01131l-0.01993,0.00047l-0.24339,-0.0173l-0.15936,-0.03586l-0.29145,-0.16136l-0.20116,-0.05346l-0.00484,-0.00212l-0.00124,0.00051l-0.0229,-0.00609l-0.17732,-0.0834l-0.27802,-0.05478l-0.18435,-0.06987l-0.07693,-0.05948l-0.25487,-0.20793l-0.00076,-0.00083l-0.00129,-0.00084l-0.05573,-0.04542l-0.04447,-0.02084l-0.03997,-0.03084l-0.00651,0.00096l-0.27197,-0.17815l-0.22307,-0.07774l-0.20002,-0.12484l-0.04836,-0.01574l-0.43522,-0.28452l-0.08474,-0.0297l-0.06811,-0.05237l-0.04949,-0.06233l-0.26645,-0.20497l-0.2428,-0.23295l-0.25725,-0.14905l-0.1285,-0.13911l-0.18308,-0.1216l-0.02004,-0.02538l-0.26173,-0.20487l-0.44606,-0.57217l-0.10035,-0.07971l-0.06791,-0.10912l-0.40487,-0.3963l-0.14132,-0.0829l-0.02485,-0.03236l-0.00152,-0.01994l-0.03887,-0.03264l-0.03008,-0.03918l-0.31715,-0.25211l-0.06054,-0.05074l-0.01985,-0.02854l-0.17359,-0.15175l-1.40765,-1.82628l-0.04431,-0.10121l-0.1321,-0.17077l-0.0868,-0.19811l-0.43567,-0.56242l-0.13117,-0.29882l-0.02992,-0.03857l-0.01594,-0.03385l0.01349,-0.03485l0.05641,-0.44564l-0.04093,-0.3442l0.05133,-0.12454l-0.03992,-0.09076l0.06073,-0.29558l-0.01287,-0.01861l0.0109,-0.13822l0.06343,-0.16346l0.0125,-0.09852l0.04323,-0.15762c0.02677,-0.03365 0.05274,-0.06873 0.07674,-0.10395z" data-paper-data="{&quot;noHover&quot;:false,&quot;origItem&quot;:[&quot;Path&quot;,{&quot;applyMatrix&quot;:true,&quot;segments&quot;:[[[625.87394,302.98823],[0.08362,-0.02015],[0,0]],[625.61378,303.18335],[625.47397,303.32316],[625.17504,303.50252],[624.98935,303.70678],[624.98684,303.75194],[624.53112,304.14256],[624.4831,304.33463],[624.25073,304.46742],[623.89547,305.05951],[623.26407,305.69091],[623.20045,305.72908],[623.18425,305.80195],[623.18425,305.89948],[623.0264,306.53088],[623.0264,307.95152],[622.9219,308.36953],[622.9219,308.8004],[622.86855,309.01379],[622.86855,313.60324],[622.95844,314.05265],[622.95516,314.12138],[622.9892,314.27456],[623.18425,315.05476],[623.18425,315.15228],[623.20606,315.25041],[623.18425,315.28312],[623.18425,315.36362],[623.30693,315.66473],[623.46477,316.76968],[623.43885,317.02026],[623.49995,317.26465],[623.49995,318.6853],[623.6578,319.3167],[623.6578,319.38012],[623.79389,319.7884],[623.82241,320.15913],[624.03887,320.70027],[624.12843,321.35706],[624.2892,322.00014],[624.2892,322.15799],[624.33037,322.32268],[624.42529,322.47184],[624.75062,323.44783],[624.80632,323.53138],[624.96356,323.97164],[625.21454,324.36604],[625.41892,324.97919],[625.4302,324.98563],[625.45458,325.08316],[625.49819,325.17038],[625.52927,325.31022],[625.53024,325.31313],[625.53041,325.31537],[625.67265,325.95544],[625.71967,326.14352],[625.92129,326.47955],[626.28744,326.90673],[626.462,327.25585],[626.49027,327.29354],[626.49282,327.29426],[626.49777,327.30354],[626.74619,327.63477],[627.0041,328.2473],[627.20913,328.49965],[627.56815,328.82603],[627.59985,328.8498],[627.6391,328.85198],[627.70452,328.92831],[627.78254,328.98682],[628.23618,329.54514],[628.35273,329.60342],[628.4116,329.65388],[628.63096,329.7855],[628.74198,329.89651],[629.41883,330.2575],[629.69114,330.27263],[629.89657,330.5123],[630.1751,330.66084],[630.22004,330.82062],[630.51626,331.07452],[630.99871,331.36399],[631.13852,331.50381],[631.57093,331.82811],[631.72979,332.02363],[631.9458,332.15324],[632.01644,332.22388],[632.60588,332.61684],[633.32371,333.04754],[633.38484,333.10866],[633.38986,333.10894],[633.38986,332.60694],[633.34272,332.3712],[633.14196,331.76893],[632.72576,330.79779],[632.65859,330.38133],[632.49039,329.99447],[632.35552,329.18525],[632.32475,329.06218],[632.24099,328.89465],[631.83659,328.22067],[631.80704,328.12356],[631.69663,328.10148],[631.34024,327.54144],[630.89371,327.05026],[630.90681,326.86034],[630.72818,326.57963],[630.57033,326.10608],[630.56126,325.98817],[630.15305,325.57996],[629.7978,324.98787],[629.56542,324.85509],[629.45635,324.4188],[629.22497,324.03317],[629.29539,323.77496],[629.12792,323.10509],[629.12792,322.88381],[628.99183,322.47554],[628.96743,322.15834],[628.8474,321.86372],[628.69531,320.79905],[628.60635,320.26529],[628.43116,319.82732],[628.40654,319.64679],[628.31549,319.48897],[627.99979,318.38403],[627.98353,317.89611],[627.86513,317.4225],[627.86513,313.47626],[627.96963,313.05825],[627.96963,312.62739],[628.44318,310.73319],[628.72504,310.20469],[628.81773,309.94516],[628.88019,309.63286],[628.97487,309.43298],[628.99183,309.21247],[629.14968,308.73892],[629.20619,308.65013],[629.22041,308.54585],[629.28577,308.38243],[629.28577,308.37041],[628.98054,306.33552],[628.86603,306.20193],[628.80434,306.07854],[628.25885,305.53306],[628.11957,305.30092],[627.91131,305.12796],[626.33325,302.97605],[626.32775,302.97056],[[626.12115,302.91891],[0,0],[-0.08116,0.02603]]],&quot;closed&quot;:true}]}" fill="#493b29" stroke="#000000" stroke-width="1.5" stroke-linecap="butt"/><path d="M319.8805,167.38056l2.36906,-7.61123l3.99401,1.24317l-2.36906,7.61123z" fill="#366e4a" stroke="#000000" stroke-width="2" stroke-linecap="butt"/><path d="M303.52814,162.81534v-9.15528h33.93768v9.15528z" fill="#366e4a" stroke="#000000" stroke-width="2" stroke-linecap="butt"/><path d="M339.99141,163.20997v-9.70776h5.05119v9.70776z" fill="#366e4a" stroke="#000000" stroke-width="2" stroke-linecap="butt"/><path d="M336.36087,161.86825v-7.18216h4.81441v7.18216z" fill="#fff236" stroke="none" stroke-width="0" stroke-linecap="butt"/><path d="M327.83699,148.41156c0,1.28587 -1.20142,2.32828 -2.68344,2.32828c-1.48203,0 -2.68344,-1.04241 -2.68344,-2.32828c0,-1.28587 1.20142,-2.32828 2.68344,-2.32828c1.48203,0 2.68344,1.04241 2.68344,2.32828z" fill="#ff0000" stroke="none" stroke-width="0" stroke-linecap="butt"/><path d="M333.20387,148.01694c0,1.28588 -1.20141,2.32828 -2.68344,2.32828c-1.48203,0 -2.68345,-1.04241 -2.68345,-2.32828c0,-1.28588 1.20142,-2.32828 2.68345,-2.32828c1.48203,0 2.68344,1.04241 2.68344,2.32828z" fill="#ff0000" stroke="none" stroke-width="0" stroke-linecap="butt"/></g></g></svg>