<svg version="1.1" xmlns="http://www.w3.org/2000/svg" xmlns:xlink="http://www.w3.org/1999/xlink" width="23.60288" height="25.18971" viewBox="0,0,23.60288,25.18971"><defs><linearGradient x1="321.5204" y1="173.13369" x2="321.5204" y2="191.32942" gradientUnits="userSpaceOnUse" id="color-1"><stop offset="0" stop-color="#808080"/><stop offset="1" stop-color="#333333"/></linearGradient></defs><g transform="translate(-307.51539,-166.63971)"><g data-paper-data="{&quot;isPaintingLayer&quot;:true}" fill-rule="nonzero" stroke-linejoin="miter" stroke-miterlimit="10" stroke-dasharray="" stroke-dashoffset="0" style="mix-blend-mode: normal"><path d="M312.42253,182.23155c0,-5.02462 4.07326,-9.09787 9.09787,-9.09787c5.02462,0 9.09787,4.07326 9.09787,9.09787c0,5.02462 -4.07326,9.09787 -9.09787,9.09787c-5.02462,0 -9.09787,-4.07326 -9.09787,-9.09787z" fill="url(#color-1)" stroke="#000000" stroke-width="1" stroke-linecap="butt"/><path d="M311.55606,171.21911c0.14895,-0.67028 0.81923,-0.52133 0.81923,-0.52133l0.67333,0.19706c0.63027,0.42129 1.39785,1.061 2.19522,0.9675c0.99887,-0.11713 1.4315,-1.04888 2.33158,-1.38205c1.74233,-0.64493 2.96323,0.41393 3.78093,1.82229c0,0 0.34066,0.59617 -0.2555,0.93683c-0.59617,0.34066 -0.93683,-0.2555 -0.93683,-0.2555c-0.11396,-0.20351 -0.20391,-0.42244 -0.34187,-0.61052c-1.35075,-1.84148 -2.89572,0.69829 -4.43364,0.85457c-1.18976,0.1209 -2.15434,-0.56047 -3.10165,-1.19049l-0.20948,0.00088c0,0 -0.67028,-0.14895 -0.52133,-0.81923z" fill="#c7b191" stroke="none" stroke-width="0.5" stroke-linecap="butt"/><path d="M312.2754,171.41711l-2.20703,0.58854l0.58854,-1.27517l-1.27517,-1.5204l2.45226,0.39236l1.12804,-0.93186z" fill="#fff12b" stroke="#fff12b" stroke-width="1.5" stroke-linecap="round"/></g></g></svg>