<svg version="1.1" xmlns="http://www.w3.org/2000/svg" xmlns:xlink="http://www.w3.org/1999/xlink" width="37.71593" height="23.01074" viewBox="0,0,37.71593,23.01074"><g transform="translate(-300.66757,-200.06547)"><g data-paper-data="{&quot;isPaintingLayer&quot;:true}" fill-rule="nonzero" stroke-linejoin="miter" stroke-miterlimit="10" stroke-dasharray="" stroke-dashoffset="0" style="mix-blend-mode: normal"><path d="M310.67903,213.73602l0.72172,0.80191l0.08019,2.24534l-5.1322,0.24057l-2.80667,0.80191l-1.44343,1.20286l-0.32076,2.32553l2.32553,0.64153l30.71301,0.08019l2.24534,-0.64153l0.08019,-2.32553l-1.04248,-1.12267l-1.92458,-0.56133l-5.85392,-0.16038l0.16038,-2.5661l2.00477,-1.44343h5.61334l0.8821,-0.72172l0.40095,-4.2501l-0.08019,-3.84915l-1.36324,-1.28305l-3.12743,-1.20286l-4.33029,-0.72172l-16.2787,-0.16038l-4.57087,0.40095l-3.60858,1.28305l-1.52362,1.04248l-0.32076,0.96229l-0.08019,4.97182l0.96229,2.00477l2.16515,1.44343z" fill="#000000" stroke="#000000" stroke-width="2" stroke-linecap="round"/><path d="M301.13634,210.52839v-4.49068h37.12826v4.49068z" fill="#003fff" stroke="none" stroke-width="0" stroke-linecap="butt"/></g></g></svg>