<svg version="1.1" xmlns="http://www.w3.org/2000/svg" xmlns:xlink="http://www.w3.org/1999/xlink" width="66" height="40.84211" viewBox="0,0,66,40.84211"><g transform="translate(-83.625,-16.875)"><g data-paper-data="{&quot;isPaintingLayer&quot;:true}" fill-rule="nonzero" stroke-linecap="butt" stroke-linejoin="miter" stroke-miterlimit="10" stroke-dasharray="" stroke-dashoffset="0" style="mix-blend-mode: normal"><path d="M112.88816,34.98026c0,-6.51115 5.27833,-11.78947 11.78947,-11.78947c6.51115,0 11.78947,5.27832 11.78947,11.78947c0,6.51115 -5.27832,11.78947 -11.78947,11.78947c-6.51114,0 -11.78947,-5.27832 -11.78947,-11.78947z" fill="#ff0000" stroke="#000000" stroke-width="2"/><path d="M90.99342,34.66447c0,-6.51115 5.27833,-11.78947 11.78947,-11.78947c6.51114,0 11.78947,5.27832 11.78947,11.78947c0,6.51115 -5.27833,11.78947 -11.78947,11.78947c-6.51114,0 -11.78947,-5.27832 -11.78947,-11.78947z" fill="#ff0000" stroke="#000000" stroke-width="2"/><path d="M102.25658,38.55921c0,-6.51115 5.27832,-11.78947 11.78947,-11.78947c6.51115,0 11.78947,5.27832 11.78947,11.78947c0,6.51115 -5.27832,11.78947 -11.78947,11.78947c-6.51115,0 -11.78947,-5.27832 -11.78947,-11.78947z" fill="#ff0000" stroke="#000000" stroke-width="2"/><path d="M83.625,57.71711v-40.84211h66v40.84211z" fill="none" stroke="none" stroke-width="0"/></g></g></svg>