<svg version="1.1" xmlns="http://www.w3.org/2000/svg" xmlns:xlink="http://www.w3.org/1999/xlink" width="218.25717" height="168.63445" viewBox="0,0,218.25717,168.63445"><g transform="translate(-119.35534,-144.53122)"><g data-paper-data="{&quot;isPaintingLayer&quot;:true}" fill-rule="nonzero" stroke-linejoin="miter" stroke-miterlimit="10" stroke-dasharray="" stroke-dashoffset="0" style="mix-blend-mode: normal"><path d="M317.20689,170.1916c0.93544,-0.82912 1.76456,0.10633 1.76456,0.10633l-0.12856,-0.06657c2.00405,1.42018 3.19143,3.45318 4.75969,5.29194c0,0 0.81116,0.95107 -0.13991,1.76222c-0.95107,0.81116 -1.76222,-0.13991 -1.76222,-0.13991c-1.42239,-1.66773 -2.50046,-3.5971 -4.30305,-4.87451l-0.29684,-0.31493c0,0 -0.82912,-0.93545 0.10633,-1.76456z" fill="#0fa1cc" stroke="none" stroke-width="0.5" stroke-linecap="butt"/><path d="M315.58866,182.41703c-0.09346,0.01459 -0.21673,0.01915 -0.36522,0.01392c-0.02247,0.00041 -0.04503,0.00051 -0.06764,0.00031c-0.15837,-0.00137 -0.31318,-0.01745 -0.46313,-0.04691c-2.72245,-0.34849 -9.4314,-2.5459 -7.72172,-5.89236c1.45949,-2.85674 9.85864,0.12653 10.1456,1.86127c0.35516,0.43592 0.5661,0.99359 0.56084,1.59979c-0.00976,1.12513 -0.7613,2.0702 -1.78634,2.375c-0.09401,0.04178 -0.19441,0.07212 -0.30238,0.08898z" fill="#0fa1cc" stroke="none" stroke-width="0.5" stroke-linecap="butt"/><path d="M307.03127,179.46067c-1.49111,-0.01294 -2.68912,-1.26579 -2.67582,-2.79832c0.0133,-1.53253 1.23286,-2.76441 2.72397,-2.75147c1.49111,0.01294 2.68912,1.26579 2.67582,2.79832c-0.0133,1.53253 -1.23286,2.76441 -2.72397,2.75147z" fill="#ffe896" stroke="none" stroke-width="0" stroke-linecap="butt"/><path d="M327.18665,194.30468l-5.61012,-7.41732l3.58902,-2.71457l5.61012,7.41732z" fill="#3f51b5" stroke="none" stroke-width="0" stroke-linecap="butt"/><path d="M332.88448,187.33101l-8.75887,-3.12605l1.31092,-3.67307l8.75887,3.12605z" fill="#3f51b5" stroke="none" stroke-width="0" stroke-linecap="butt"/><path d="M321.28225,186.76482l-6.05528,-5.38083l5.28934,-6.0919l6.05528,5.38083z" fill="#0fa1cc" stroke="none" stroke-width="0" stroke-linecap="butt"/><path d="M323.57346,188.78574l-2.51181,-2.13782l5.18011,-6.0863l2.51181,2.13782z" fill="#3f51b5" stroke="none" stroke-width="0" stroke-linecap="butt"/><path d="M331.07082,191.7641c0.72462,0.95805 0.02656,2.70698 -1.55918,3.90635c-1.58573,1.19937 -3.45864,1.39501 -4.18326,0.43696c-0.72462,-0.95805 -0.02656,-2.70698 1.55918,-3.90635c1.58573,-1.19938 3.45864,-1.39501 4.18326,-0.43696z" fill="#000000" stroke="none" stroke-width="0" stroke-linecap="butt"/><path d="M336.44305,180.9181c1.13133,0.40377 1.50667,2.24908 0.83836,4.12162c-0.66831,1.87253 -2.1272,3.06321 -3.25853,2.65944c-1.13133,-0.40377 -1.50667,-2.24908 -0.83836,-4.12162c0.66831,-1.87254 2.1272,-3.06321 3.25853,-2.65944z" fill="#000000" stroke="none" stroke-width="0" stroke-linecap="butt"/><path d="M321.43622,171.61259c1.00292,3.29509 -0.9467,6.80715 -4.35457,7.84439c-3.40787,1.03724 -6.98354,-0.7931 -7.98645,-4.08819c-1.00292,-3.29509 0.9467,-6.80716 4.35457,-7.8444c3.40787,-1.03724 6.98354,0.7931 7.98646,4.0882z" fill="#ffe896" stroke="none" stroke-width="0" stroke-linecap="butt"/><path d="M316.09707,176.56561c-1.03028,0.31358 -2.24682,-0.68503 -2.7172,-2.23046c-0.47038,-1.54543 -0.01648,-3.05247 1.01381,-3.36605c1.03029,-0.31359 2.24682,0.68503 2.7172,2.23046c0.47038,1.54544 0.01648,3.05247 -1.01381,3.36605z" fill="#ffffff" stroke="none" stroke-width="0" stroke-linecap="butt"/><path d="M319.7323,175.15638c-0.83216,0.25328 -1.86607,-0.72194 -2.30931,-2.17821c-0.44324,-1.45628 -0.12796,-2.84214 0.70419,-3.09542c0.83216,-0.25328 1.86607,0.72194 2.30931,2.17821c0.44324,1.45628 0.12796,2.84214 -0.70419,3.09542z" fill="#ffffff" stroke="none" stroke-width="0" stroke-linecap="butt"/><path d="M317.30448,173.18608c0.2774,0.91141 -0.07594,1.82624 -0.78922,2.04334c-0.71328,0.2171 -1.51638,-0.34575 -1.79379,-1.25716c-0.2774,-0.91141 0.07594,-1.82624 0.78922,-2.04334c0.71328,-0.2171 1.51638,0.34575 1.79379,1.25716z" fill="#000aa7" stroke="none" stroke-width="0" stroke-linecap="butt"/><path d="M309.23938,176.80998c-0.1476,0.02319 -0.29466,0.04643 -0.38487,0.07389c-0.63296,0.1354 -1.3593,0.53338 -1.92211,0.25694c-0.18796,-0.09232 0.08531,-1.19012 0.13722,-1.34602c0.43584,-1.30885 0.90639,-2.94375 1.6091,-4.16168c0.7749,0.10295 -1.3321,-0.5297 -1.64102,-1.23774c-0.18296,-0.41934 3.38986,-2.23129 3.75787,-2.3433c0.47905,-0.1296 2.87104,-1.09676 3.78143,-0.89944c-0.03807,-0.17653 -0.08303,-0.34048 -0.14138,-0.43909c-0.24184,-0.4087 -0.37191,-0.69993 -0.38402,-0.97943l-0.00399,0.00121l-0.19454,-0.63918l0.43811,-0.13335c0.07578,-0.13006 0.16973,-0.27192 0.28216,-0.43157c0.10529,0.05171 0.72768,0.35742 0.79009,0.38807c0.70858,0.52039 2.02795,0.20976 2.81372,0.69766c0.87765,0.54494 1.45003,2.0358 1.93617,2.91575c0.01677,0.02886 0.03045,0.05998 0.04053,0.09311c0.00768,0.02525 0.01298,0.0507 0.01603,0.07611c0.02201,0.13721 -0.00175,0.33342 -0.25047,0.47078c-0.00989,0.0056 -0.02002,0.01091 -0.03038,0.01592c-0.11418,0.05664 -0.21375,0.07046 -0.29844,0.06009l0.0117,0.03035c-0.54327,0.94159 -0.94078,1.97197 -2.12415,1.06088c-0.08911,-0.24073 -0.70332,-0.14664 -1.02594,-0.1153c0.12446,0.35092 0.17618,0.89958 -0.25512,1.12967c-0.90563,0.48312 -1.6308,0.16845 -2.81455,0.85421c0.02699,0.08435 0.62337,2.27201 0.54789,2.76008c-0.0573,0.37048 -0.4549,1.07143 -0.76821,1.29879c0.20286,0.23426 0.409,0.49609 0.46108,0.56092c0.67171,0.84733 1.50021,1.21779 1.04516,2.47629c-0.58959,1.63058 -3.02699,-1.4883 -2.83095,-1.10781c0.15712,0.30493 -0.20659,0.61046 -0.67173,0.85915l-0.52906,0.67666c-0.063,0.08236 -0.15338,0.14742 -0.2628,0.18072c-0.26417,0.08041 -0.5393,-0.05473 -0.61452,-0.30184l-0.07782,-0.25567c-0.00129,-0.00425 -0.00264,-0.00866 -0.00402,-0.01321l-0.0738,-0.24246l0.0011,-0.00033c-0.17221,-0.58761 -0.49364,-1.78571 -0.36547,-2.28988z" fill="#000000" stroke="none" stroke-width="0.5" stroke-linecap="butt"/><path d="M320.06947,172.26611c0.28946,0.95103 0.01014,1.87844 -0.62388,2.07142c-0.63402,0.19298 -1.38266,-0.42156 -1.67212,-1.37259c-0.28946,-0.95103 -0.01014,-1.87844 0.62388,-2.07142c0.63402,-0.19298 1.38266,0.42155 1.67212,1.37259z" fill="#000aa7" stroke="none" stroke-width="0" stroke-linecap="butt"/><path d="M318.13385,176.232c0.04824,0.1585 -0.23388,0.38477 -0.63015,0.50538c-0.39627,0.12061 -0.75661,0.08989 -0.80486,-0.06862c-0.04824,-0.1585 0.23388,-0.38477 0.63015,-0.50538c0.39627,-0.12061 0.75661,-0.08988 0.80486,0.06862z" fill="#000000" stroke="none" stroke-width="0" stroke-linecap="butt"/><path d="M313.61169,172.83217l6,-2.75l0.8125,1.375v2l-1.125,0.9375l-0.875,-0.4375l-1.25,-1.3125l0.375,2.125l-0.5,0.6875l-1.6875,0.5l-1.5625,-0.625l-1.375,-1.75z" fill="#00087f" stroke="#00087f" stroke-width="1" stroke-linecap="round"/><path d="M186.69346,174.18982c4.90144,-4.34436 9.24571,0.55711 9.24571,0.55711l-0.67361,-0.34883c10.5006,7.44133 16.72209,18.09356 24.93928,27.72811c0,0 4.25023,4.98331 -0.73308,9.23345c-4.98331,4.2502 -9.23345,-0.73309 -9.23345,-0.73309c-7.4529,-8.73841 -13.10166,-18.84767 -22.54664,-25.54093l-1.55537,-1.65014c0,0 -4.3443,-4.90147 0.55716,-9.24577z" fill="#0fa1cc" stroke="none" stroke-width="0.5" stroke-linecap="butt"/><path d="M178.21444,238.24721c-0.4897,0.07645 -1.13563,0.10037 -1.91367,0.07297c-0.11776,0.00212 -0.23592,0.00265 -0.35439,0.00162c-0.82984,-0.0072 -1.64096,-0.09143 -2.42665,-0.24579c-14.26478,-1.82598 -49.41755,-13.33969 -40.45939,-30.87412c7.64727,-14.96839 51.65621,0.663 53.15979,9.75247c1.86093,2.28409 2.96618,5.20611 2.93863,8.38237c-0.05114,5.89533 -3.98895,10.8472 -9.35986,12.44425c-0.49256,0.21889 -1.01867,0.37786 -1.5844,0.46623z" fill="#0fa1cc" stroke="none" stroke-width="0.5" stroke-linecap="butt"/><path d="M133.37637,222.75681c-7.81297,-0.06778 -14.09012,-6.63234 -14.02046,-14.66232c0.06966,-8.02998 6.45978,-14.48462 14.27275,-14.41684c7.81297,0.06778 14.09015,6.63234 14.02049,14.66232c-0.06966,8.02998 -6.4598,14.48462 -14.27277,14.41684z" fill="#ffe896" stroke="none" stroke-width="0" stroke-linecap="butt"/><path d="M238.9843,300.5348l-29.39527,-38.86444l18.80536,-14.2235l29.39524,38.86441z" fill="#3f51b5" stroke="none" stroke-width="0" stroke-linecap="butt"/><path d="M268.83914,263.99496l-45.89373,-16.37952l6.86881,-19.24576l45.89376,16.37952z" fill="#3f51b5" stroke="none" stroke-width="0" stroke-linecap="butt"/><path d="M208.04707,261.02832l-31.72777,-28.19389l27.71448,-31.91962l31.72775,28.19387z" fill="#0fa1cc" stroke="none" stroke-width="0" stroke-linecap="butt"/><path d="M220.05229,271.61731l-13.16107,-11.20153l27.14215,-31.8903l13.16107,11.2015z" fill="#3f51b5" stroke="none" stroke-width="0" stroke-linecap="butt"/><path d="M259.33608,287.22296c3.79678,5.01986 0.13916,14.18372 -8.16959,20.46808c-8.3087,6.28433 -18.12219,7.30939 -21.91897,2.28954c-3.79678,-5.01986 -0.13916,-14.1837 8.16959,-20.46805c8.30875,-6.28435 18.12219,-7.30942 21.91897,-2.28956z" fill="#000000" stroke="none" stroke-width="0" stroke-linecap="butt"/><path d="M287.48493,230.39329c5.92779,2.11563 7.89448,11.78447 4.39274,21.59602c-3.50173,9.81149 -11.14589,16.05024 -17.07368,13.93461c-5.92779,-2.11563 -7.89447,-11.78445 -4.39274,-21.596c3.50173,-9.81155 11.14589,-16.05026 17.07368,-13.93463z" fill="#000000" stroke="none" stroke-width="0" stroke-linecap="butt"/><path d="M208.85382,181.63536c5.25496,17.26522 -4.96038,35.66731 -22.81658,41.10215c-17.8562,5.43484 -36.59153,-4.1556 -41.84652,-21.42086c-5.25496,-17.26522 4.96038,-35.66733 22.81658,-41.10217c17.8562,-5.43484 36.59153,4.15562 41.84652,21.42089z" fill="#ffe896" stroke="none" stroke-width="0" stroke-linecap="butt"/><path d="M180.87835,207.58763c-5.39837,1.64309 -11.77263,-3.58934 -14.23727,-11.68691c-2.46464,-8.09757 -0.08633,-15.99399 5.31204,-17.63708c5.39843,-1.64309 11.77263,3.58934 14.23728,11.68691c2.46464,8.09762 0.08632,15.99399 -5.31205,17.63707z" fill="#ffffff" stroke="none" stroke-width="0" stroke-linecap="butt"/><path d="M199.92581,200.20368c-4.36026,1.32711 -9.77762,-3.78273 -12.10006,-11.41313c-2.32246,-7.63045 -0.67052,-14.89195 3.68974,-16.21906c4.36026,-1.32711 9.77764,3.78274 12.10008,11.41314c2.32246,7.63045 0.6705,14.89194 -3.68976,16.21905z" fill="#ffffff" stroke="none" stroke-width="0" stroke-linecap="butt"/><path d="M187.20482,189.87996c1.45352,4.77551 -0.39787,9.56892 -4.13527,10.70646c-3.73739,1.13754 -7.94536,-1.81162 -9.39887,-6.58712c-1.45352,-4.77551 0.39787,-9.56895 4.13527,-10.70649c3.73739,-1.13754 7.94536,1.81165 9.39887,6.58715z" fill="#000aa7" stroke="none" stroke-width="0" stroke-linecap="butt"/><path d="M144.94617,208.86806c-0.77338,0.12153 -1.54389,0.24328 -2.01659,0.38716c-3.31651,0.70945 -7.12233,2.79475 -10.07128,1.34628c-0.98483,-0.48373 0.447,-6.23586 0.71902,-7.05272c2.28364,-6.85797 4.7492,-15.42433 8.4312,-21.8059c4.06026,0.5394 -6.97978,-2.77546 -8.59843,-6.48537c-0.95865,-2.19718 17.76183,-11.69126 19.69003,-12.27815c2.5101,-0.67903 15.04337,-5.74666 19.81348,-4.71278c-0.19948,-0.92499 -0.43505,-1.78401 -0.74078,-2.3007c-1.26719,-2.14146 -1.94869,-3.66741 -2.01215,-5.13193l-0.0209,0.00636l-1.01936,-3.3491l2.29556,-0.69869c0.39709,-0.68148 0.88931,-1.4248 1.47843,-2.26129c0.55168,0.27097 3.81284,1.87279 4.13985,2.03337c3.71274,2.72665 10.62582,1.09911 14.74301,3.6555c4.59864,2.85531 7.59773,10.66692 10.14495,15.27761c0.08787,0.15122 0.1595,0.3143 0.21234,0.48789c0.04027,0.13227 0.06806,0.26563 0.08399,0.39879c0.1153,0.71893 -0.0092,1.74701 -1.31241,2.46676c-0.05179,0.02934 -0.10489,0.05716 -0.15918,0.08339c-0.5983,0.29677 -1.11996,0.36919 -1.56376,0.31488l0.06133,0.159c-2.84656,4.93364 -4.92939,10.33253 -11.12985,5.55871c-0.46688,-1.26132 -3.68523,-0.76835 -5.37561,-0.60411c0.65216,1.83874 0.92316,4.71352 -1.33675,5.91909c-4.74519,2.53143 -8.5449,0.88265 -14.74736,4.47579c0.14142,0.44194 3.26629,11.9046 2.87077,14.46198c-0.30023,1.94117 -2.38356,5.61399 -4.02518,6.80528c1.06293,1.22745 2.14306,2.59938 2.41589,2.93904c3.51955,4.43974 7.86066,6.38082 5.47634,12.97499c-3.08927,8.54373 -15.86051,-7.7982 -14.83329,-5.80458c0.82326,1.59777 -1.08247,3.19859 -3.51965,4.50168l-2.77211,3.54549c-0.3301,0.43154 -0.80366,0.77244 -1.37701,0.94694c-1.3842,0.42129 -2.82579,-0.28674 -3.21986,-1.58152l-0.40772,-1.33963c-0.00679,-0.02227 -0.01381,-0.04535 -0.02107,-0.06922l-0.38669,-1.27041l0.00576,-0.00176c-0.90232,-3.07889 -2.58649,-9.35656 -1.91492,-11.99822z" fill="#000000" stroke="none" stroke-width="0.5" stroke-linecap="butt"/><path d="M201.69248,185.0596c1.51671,4.98313 0.05316,9.84246 -3.26893,10.85359c-3.32209,1.01113 -7.24471,-2.20881 -8.76141,-7.19194c-1.51671,-4.98313 -0.05316,-9.84246 3.26893,-10.85359c3.32209,-1.01113 7.24471,2.20876 8.76141,7.19194z" fill="#000aa7" stroke="none" stroke-width="0" stroke-linecap="butt"/><path d="M191.55044,205.83962c0.25276,0.83049 -1.22546,2.0161 -3.30179,2.64806c-2.07633,0.63196 -3.9644,0.47099 -4.21719,-0.35955c-0.25276,-0.83049 1.22544,-2.0161 3.30177,-2.64806c2.07633,-0.63196 3.96445,-0.47094 4.21721,0.35955z" fill="#000000" stroke="none" stroke-width="0" stroke-linecap="butt"/><path d="M167.85573,188.02558l31.43812,-14.40914l4.25725,7.20457v10.47937l-5.89464,4.91221l-4.58473,-2.29236l-6.54961,-6.87709l1.96488,11.13433l-2.61984,3.60228l-8.84197,2.61984l-8.18701,-3.27481l-7.20457,-9.16945z" fill="#00087f" stroke="#00087f" stroke-width="1" stroke-linecap="round"/></g></g></svg>