<svg version="1.1" xmlns="http://www.w3.org/2000/svg" xmlns:xlink="http://www.w3.org/1999/xlink" width="24.29978" height="35.24337" viewBox="0,0,24.29978,35.24337"><g transform="translate(-306.66195,-162.64892)"><g data-paper-data="{&quot;isPaintingLayer&quot;:true}" fill-rule="nonzero" stroke-linejoin="miter" stroke-miterlimit="10" stroke-dasharray="" stroke-dashoffset="0" style="mix-blend-mode: normal"><path d="M327.20254,182.3875c-0.08662,0.03799 -0.20464,0.07393 -0.34952,0.10684c-0.02163,0.00613 -0.0434,0.01201 -0.06531,0.01759c-0.15346,0.03916 -0.30724,0.0632 -0.45973,0.07305c-2.72106,0.35916 -9.76885,-0.04989 -8.97161,-3.72226c0.68058,-3.13494 9.56332,-2.39829 10.28427,-0.79458c0.45481,0.33062 0.80133,0.81583 0.95123,1.40321c0.27824,1.09023 -0.20669,2.19604 -1.11974,2.75278c-0.0802,0.06443 -0.16951,0.11942 -0.26958,0.16333z" data-paper-data="{&quot;origRot&quot;:0}" fill="#000000" stroke="none" stroke-width="0.5" stroke-linecap="butt"/><path d="M318.1737,181.71732c-1.44486,0.36874 -2.92337,-0.53617 -3.30235,-2.02116c-0.37898,-1.48499 0.48508,-2.98774 1.92994,-3.35647c1.44486,-0.36874 2.92337,0.53617 3.30236,2.02116c0.37898,1.48499 -0.48508,2.98774 -1.92994,3.35647z" data-paper-data="{&quot;origRot&quot;:0}" fill="#ffffff" stroke="none" stroke-width="0" stroke-linecap="butt"/><path d="M322.77154,165.9075c-0.06652,1.73843 -1.39549,3.09891 -2.96835,3.03873c-1.57286,-0.06018 -2.79399,-1.51824 -2.72748,-3.25666c0.06652,-1.73843 1.39549,-3.09891 2.96835,-3.03873c1.57286,0.06018 2.79399,1.51824 2.72748,3.25666z" fill="#0392cf" stroke="none" stroke-width="0" stroke-linecap="butt"/><path d="M330.7777,172.43826c-0.14401,3.76375 -3.14641,6.70446 -6.70603,6.56827c-3.55963,-0.1362 -6.32854,-3.29773 -6.18453,-7.06148c0.14401,-3.76375 3.14641,-6.70447 6.70603,-6.56828c3.55963,0.1362 6.32854,3.29774 6.18453,7.06149z" fill="#ffe896" stroke="none" stroke-width="0" stroke-linecap="butt"/><path d="M324.08846,175.95216c-1.07616,-0.04118 -1.8985,-1.38317 -1.83674,-2.99742c0.06176,-1.61425 0.98425,-2.88948 2.06041,-2.84831c1.07617,0.04118 1.8985,1.38317 1.83674,2.99742c-0.06176,1.61426 -0.98425,2.88948 -2.06041,2.84831z" fill="#ffffff" stroke="none" stroke-width="0" stroke-linecap="butt"/><path d="M327.98473,175.81136c-0.86921,-0.03326 -1.52667,-1.29334 -1.46847,-2.81445c0.0582,-1.52113 0.81002,-2.72727 1.67923,-2.69402c0.86921,0.03326 1.52667,1.29334 1.46847,2.81445c-0.0582,1.52113 -0.81002,2.72727 -1.67923,2.69402z" fill="#ffffff" stroke="none" stroke-width="0" stroke-linecap="butt"/><path d="M326.3362,173.15453c-0.03643,0.95199 -0.66992,1.70063 -1.41497,1.67212c-0.74504,-0.02851 -1.31948,-0.82336 -1.28306,-1.77535c0.03643,-0.95199 0.66992,-1.70063 1.41497,-1.67212c0.74504,0.02851 1.31948,0.82336 1.28306,1.77535z" fill="#000aa7" stroke="none" stroke-width="0" stroke-linecap="butt"/><path d="M317.52901,173.93686c-0.14706,-0.02643 -0.29361,-0.05264 -0.38784,-0.05625c-0.64239,-0.07939 -1.45902,0.05873 -1.90024,-0.38681c-0.14735,-0.14879 0.47042,-1.09653 0.57053,-1.22682c0.8405,-1.09389 1.82059,-2.48448 2.88347,-3.40505c0.69844,0.35108 -1.08512,-0.9368 -1.14508,-1.70697c-0.03552,-0.45613 3.93371,-0.99788 4.3181,-0.98317c0.49507,0.03446 3.0719,-0.09587 3.86743,0.38875c0.02185,-0.17927 0.03307,-0.34889 0.01024,-0.46118c-0.09464,-0.46537 -0.12214,-0.78313 -0.04203,-1.05119l-0.00417,-0.00016l0.02555,-0.66764l0.45762,0.01751c0.1142,-0.09807 0.24943,-0.20133 0.40796,-0.31534c0.08254,0.08335 0.57047,0.57605 0.6194,0.62545c0.49904,0.72377 1.84738,0.86243 2.43,1.58078c0.65075,0.80235 0.70323,2.39844 0.87433,3.38909c0.00639,0.03276 0.00912,0.06665 0.00779,0.10125c-0.00101,0.02637 -0.00434,0.05215 -0.00979,0.07716c-0.02415,0.13685 -0.11086,0.31445 -0.39086,0.36277c-0.01118,0.00205 -0.02249,0.00375 -0.03392,0.00509c-0.12644,0.01612 -0.22503,-0.00344 -0.30166,-0.04097l0.00112,0.03251c-0.82171,0.7117 -1.53479,1.55505 -2.35445,0.30661c-0.00534,-0.25663 -0.6165,-0.36892 -0.93158,-0.44497c0.00266,0.37233 -0.12819,0.90766 -0.61106,0.98379c-1.01391,0.15984 -1.59602,-0.375 -2.93908,-0.1148c-0.00213,0.08853 -0.1552,2.35086 -0.38638,2.78729c-0.17548,0.33127 -0.78075,0.86333 -1.15124,0.97553c0.11494,0.28779 0.22395,0.60269 0.25192,0.681c0.35712,1.0206 1.01857,1.64199 0.17641,2.68203c-1.09115,1.34752 -2.37253,-2.39766 -2.31193,-1.97396c0.04857,0.33958 -0.39514,0.50911 -0.91608,0.59174l-0.72151,0.46604c-0.0865,0.05718 -0.19321,0.08905 -0.3075,0.08467c-0.27594,-0.01056 -0.49163,-0.22835 -0.48175,-0.48646l0.01022,-0.26705c0.00017,-0.00444 0.00035,-0.00904 0.00053,-0.0138l0.00969,-0.25325l0.00115,0.00004c0.02976,-0.6116 0.11849,-1.84889 0.40472,-2.28327z" fill="#000000" stroke="none" stroke-width="0.5" stroke-linecap="butt"/><path d="M327.73965,162.74297c1.4073,0.05385 2.5032,1.27189 2.44777,2.72058c-0.05543,1.44869 -1.24121,2.57943 -2.6485,2.52558c-1.40729,-0.05385 -2.5032,-1.27189 -2.44777,-2.72058c0.05543,-1.44869 1.24121,-2.57943 2.6485,-2.52558z" fill="#0392cf" stroke="none" stroke-width="0" stroke-linecap="butt"/><path d="M329.24999,173.19097c-0.03801,0.99338 -0.60569,1.77814 -1.26794,1.7528c-0.66226,-0.02534 -1.16831,-0.85118 -1.1303,-1.84456c0.03801,-0.99338 0.60569,-1.77814 1.26794,-1.7528c0.66226,0.02534 1.16831,0.85117 1.1303,1.84456z" fill="#000aa7" stroke="none" stroke-width="0" stroke-linecap="butt"/><path d="M320.4185,171.45747c-0.11561,3.02155 -1.41728,5.42478 -2.90736,5.36777c-1.49008,-0.05701 -2.60431,-2.55268 -2.4887,-5.57423c0.11561,-3.02155 1.41728,-5.42478 2.90736,-5.36777c1.49008,0.05701 2.60431,2.55268 2.4887,5.57423z" fill="#0392cf" stroke="none" stroke-width="0" stroke-linecap="butt"/><path d="M329.98318,165.3674c-0.04361,1.13976 -0.99319,2.02872 -2.12095,1.98557c-1.12775,-0.04315 -2.00663,-1.00207 -1.96302,-2.14183c0.04361,-1.13976 0.99319,-2.02873 2.12095,-1.98558c1.12775,0.04315 2.00663,1.00208 1.96302,2.14184z" fill="#03b3ff" stroke="none" stroke-width="0" stroke-linecap="butt"/><path d="M330.96103,167.64689c-0.05543,1.44869 -3.35511,2.49855 -7.37004,2.34493c-4.01493,-0.15362 -7.22475,-1.45254 -7.16932,-2.90123c0.05543,-1.44869 3.35511,-2.49855 7.37004,-2.34493c4.01493,0.15362 7.22475,1.45254 7.16932,2.90123z" fill="#0392cf" stroke="none" stroke-width="0" stroke-linecap="butt"/><path d="M326.12214,176.30408c-0.00633,0.16556 -0.347,0.28694 -0.76092,0.27111c-0.41392,-0.01584 -0.74432,-0.16289 -0.73798,-0.32846c0.00633,-0.16556 0.347,-0.28694 0.76092,-0.27111c0.41392,0.01584 0.74432,0.1629 0.73798,0.32846z" fill="#000000" stroke="none" stroke-width="0" stroke-linecap="butt"/><path d="M319.19226,180.42062c-0.08528,0.04093 -0.20201,0.08085 -0.34569,0.11866c-0.0214,0.00687 -0.04296,0.01348 -0.06467,0.0198c-0.15204,0.04436 -0.30491,0.07361 -0.45698,0.08865c-2.70728,0.45148 -9.7649,0.28232 -9.093,-3.41502c0.57358,-3.15627 9.47624,-2.72211 10.25131,-1.14384c0.46579,0.31497 0.8286,0.78811 0.99839,1.37006c0.31514,1.08013 -0.1319,2.2018 -1.02548,2.78928c-0.07796,0.06712 -0.16535,0.12512 -0.26387,0.17241z" data-paper-data="{&quot;origRot&quot;:0}" fill="#000000" stroke="none" stroke-width="0.5" stroke-linecap="butt"/><path d="M310.14586,180.05785c-1.43149,0.41766 -2.93991,-0.43645 -3.36917,-1.9077c-0.42925,-1.47124 0.38321,-3.0025 1.8147,-3.42016c1.43149,-0.41766 2.93991,0.43645 3.36917,1.9077c0.42925,1.47124 -0.38321,3.0025 -1.8147,3.42016z" data-paper-data="{&quot;origRot&quot;:0}" fill="#ffffff" stroke="none" stroke-width="0" stroke-linecap="butt"/><path d="M319.62805,186.56085l2.13174,-7.81445l2.60482,0.71058l-2.13174,7.81445z" fill="#0fa1cc" stroke="none" stroke-width="0" stroke-linecap="butt"/><path d="M318.4447,175.80396l3.2756,3.28724l-2.11854,6.99603l-3.76252,-0.99785z" fill="#000000" stroke="#000000" stroke-width="0.5" stroke-linecap="round"/><path d="M327.69308,178.65467l-2.81593,9.18262l-2.74953,-0.75006l2.09226,-7.66974z" fill="#000000" stroke="#000000" stroke-width="0.5" stroke-linecap="round"/><path d="M328.35024,168.12271c-0.03469,0.90666 -1.22922,1.59702 -2.66806,1.54197c-1.43884,-0.05505 -2.57712,-0.83467 -2.54243,-1.74133c0.03469,-0.90666 1.22922,-1.59703 2.66806,-1.54198c1.43884,0.05505 2.57712,0.83468 2.54243,1.74134z" fill="#03b3ff" stroke="none" stroke-width="0" stroke-linecap="butt"/><path d="M326.75501,166.84649c-0.01357,0.35478 -0.32817,0.63077 -0.70265,0.61645c-0.37449,-0.01433 -0.66707,-0.31355 -0.65349,-0.66833c0.01357,-0.35478 0.32817,-0.63077 0.70265,-0.61645c0.37449,0.01433 0.66707,0.31355 0.65349,0.66833z" fill="#000000" stroke="none" stroke-width="0" stroke-linecap="butt"/><path d="M324.38324,166.16837c-0.01239,0.32393 -0.32394,0.57499 -0.69586,0.56076c-0.37192,-0.01423 -0.66337,-0.28836 -0.65098,-0.6123c0.01239,-0.32393 0.32394,-0.57499 0.69586,-0.56076c0.37192,0.01423 0.66337,0.28836 0.65098,0.6123z" fill="#000000" stroke="none" stroke-width="0" stroke-linecap="butt"/><path d="M327.99761,166.08911c-0.01239,0.32392 -0.32395,0.57499 -0.69586,0.56076c-0.37192,-0.01423 -0.66337,-0.28836 -0.65098,-0.6123c0.01239,-0.32392 0.32395,-0.57498 0.69586,-0.56075c0.37192,0.01423 0.66337,0.28836 0.65098,0.61229z" fill="#000000" stroke="none" stroke-width="0" stroke-linecap="butt"/><path d="M321.62815,165.39579c-0.04361,1.13976 -0.99319,2.02873 -2.12095,1.98558c-1.12775,-0.04315 -2.00663,-1.00208 -1.96302,-2.14184c0.04361,-1.13976 0.99319,-2.02873 2.12095,-1.98558c1.12775,0.04315 2.00663,1.00208 1.96302,2.14184z" fill="#03b3ff" stroke="none" stroke-width="0" stroke-linecap="butt"/><path d="M327.41578,191.07262c0,3.21411 -3.44371,5.81967 -7.69175,5.81967c-4.24803,0 -7.69175,-2.60556 -7.69175,-5.81967c0,-3.21411 3.44371,-5.81967 7.69175,-5.81967c4.24803,0 7.69175,2.60556 7.69175,5.81967z" data-paper-data="{&quot;origPos&quot;:null}" fill="#3f51b5" stroke="#000000" stroke-width="2" stroke-linecap="butt"/></g></g></svg>