<svg version="1.1" xmlns="http://www.w3.org/2000/svg" xmlns:xlink="http://www.w3.org/1999/xlink" width="3015.09029" height="1519.85838" viewBox="0,0,3015.09029,1519.85838"><defs><linearGradient x1="379.10984" y1="93.08465" x2="379.10984" y2="243.65248" gradientUnits="userSpaceOnUse" id="color-1"><stop offset="0" stop-color="#000000"/><stop offset="1" stop-color="#e28445"/></linearGradient><linearGradient x1="402.52695" y1="191.69223" x2="402.52695" y2="230.69223" gradientUnits="userSpaceOnUse" id="color-2"><stop offset="0" stop-color="#f5cf03" stop-opacity="0"/><stop offset="1" stop-color="#f5cf03"/></linearGradient><linearGradient x1="390.92872" y1="177.5077" x2="390.92872" y2="331.94521" gradientUnits="userSpaceOnUse" id="color-3"><stop offset="0" stop-color="#832e00"/><stop offset="1" stop-color="#4c1a00"/></linearGradient></defs><g transform="translate(2318.99191,1111.6246)"><g data-paper-data="{&quot;isPaintingLayer&quot;:true}" fill-rule="nonzero" stroke="none" stroke-linecap="butt" stroke-linejoin="miter" stroke-miterlimit="10" stroke-dasharray="" stroke-dashoffset="0" style="mix-blend-mode: normal"><path d="M-45.90162,185.15068v-222h742v222z" fill="#b5daff" stroke-width="0"/><path d="M-25.90162,408.23378v-236h720v236z" fill="#006622" stroke-width="0"/><path d="M-391.4403,-1049.86725c0,4.21148 -0.93959,7.47158 -2.39404,9.99507c4.82999,9.31691 11.77314,17.62376 15.63513,27.41028c12.94685,32.80904 14.77391,77.06023 46.40975,101.14016c16.6451,12.66962 39.71506,20.44707 57.37752,32.39648c26.76171,18.10545 48.91206,40.21829 72.11288,61.38051c13.75484,12.54622 31.45629,21.07364 42.68317,35.9793c10.22503,13.57551 17.15669,29.46952 27.18748,43.19274c16.05664,40.30829 47.55417,70.46247 66.60569,108.7649c11.95761,24.04033 19.18209,50.35794 32.6632,73.69446c23.79494,41.19017 54.60521,72.89245 83.25803,109.73126c18.31557,23.54828 27.58409,54.26371 44.77985,79.12276c18.2164,26.33453 39.7982,49.35013 57.15994,76.12407c44.64369,32.99135 82.37839,84.02321 105.86546,134.47242c22.93827,49.2705 29.58458,107.11352 67.35149,149.08572c21.49821,23.8921 71.81671,64.47196 59.18049,104.03542c-13.94758,43.66914 -62.40026,29.72856 -91.70238,22.32759c-10.20646,-7.83516 -24.22324,-9.02133 -35.03494,-15.97417c-11.55518,-7.43095 -11.25312,-20.22644 -24.04212,-25.12241c-10.8337,-4.14743 -22.61951,-5.23726 -33.59257,-8.99031c-12.99189,-4.4436 -23.23705,-14.94675 -35.7782,-20.56347c-6.10802,-2.73562 -13.75237,-1.00416 -19.57877,-4.31042c-6.95537,-3.94692 -11.04964,-11.73011 -17.36756,-16.65524c-14.71828,-11.47368 -31.8271,-22.11113 -47.16039,-33.02953c-17.9725,-12.79773 -41.96638,-16.68649 -57.76093,-32.15317c-9.96741,-9.76049 -12.47971,-25.09468 -19.39668,-37.26405c-18.2683,-32.14005 -62.17366,-61.34159 -98.43936,-53.98237c-32.42086,0.05943 -70.79898,4.53673 -102.44504,-4.42801c-19.43314,-5.50502 -32.85557,-23.7388 -49.09512,-35.86947c-19.95823,-14.90857 -52.03617,-27.23169 -75.95258,-34.93234c-30.55779,-9.83908 -66.38036,6.48062 -95.95107,-3.79921c-14.64931,-5.09261 -25.99064,-17.95878 -40.82346,-22.47366c-27.82314,-8.46903 -58.4458,-11.72609 -85.43941,-22.64054c-31.20867,-12.6187 -60.72867,-26.34266 -94.00546,-33.00306c-28.93952,-9.9686 -63.71035,-16.34632 -94.87122,-10.89656c-6.77985,1.18572 -12.36018,7.19898 -19.22914,7.59738c-14.83423,0.8604 -30.06589,0.02461 -44.40844,-3.90636c-28.6092,-7.84128 -52.13869,-32.28433 -80.28022,-41.13551c-12.56479,-3.95199 -27.16317,0.84675 -39.22137,-4.48364c-19.73207,-8.72263 -35.23746,-25.9846 -55.40171,-33.62649c-10.20967,-3.8693 -21.55242,-3.73911 -31.95841,-7.0286c-6.07417,-1.92011 -35.49038,-16.52289 -45.15901,-17.98309c-49.29488,-7.44459 -97.58925,7.8239 -146.0622,-8.04849c-29.61686,-8.56492 -65.67669,-11.48144 -88.70213,-34.59434c-6.44245,-6.46698 -10.64326,-15.02661 -14.37976,-23.39759c-1.56623,-3.50871 2.21986,-9.79002 -1.19244,-11.48837c-4.71784,-2.34826 -10.20885,2.79155 -15.44984,3.20501c-33.97546,2.68067 -60.97324,9.51644 -93.06401,21.23194c-12.96356,4.73268 -23.88054,14.38953 -36.98562,18.70413c-33.67541,11.08714 -72.57436,3.69661 -106.69723,1.03831c-21.59514,-1.68232 -29.37624,4.15854 -53.87329,-5.16046c-8.31319,-3.16243 -13.65507,-11.58657 -21.16662,-16.38368c-14.1504,-9.03699 -29.67458,-15.68076 -44.1122,-24.23905c-45.27369,-7.36526 -87.90355,-23.04997 -128.01141,-46.05147c-7.97661,-4.57453 -15.92414,-9.39535 -22.90785,-15.40875c-2.51513,-2.16573 -1.77046,-8.08383 -5.02527,-8.64314c-2.53288,-0.43523 1.3224,5.49272 0.14294,7.80414c-3.2153,6.30107 -7.78319,11.91287 -12.75373,16.90944c-17.45562,17.54711 -36.5052,20.7331 -57.04056,29.93391c-6.1459,2.75359 -10.00059,9.82946 -16.41753,11.85158c-50.79146,16.00571 -105.07992,-21.74174 -156.95436,-10.56445c-24.57392,5.2949 -46.94617,23.0487 -70.14885,32.50721c-33.78047,14.25129 -66.81231,29.75675 -100.0164,45.32745l-7.77812,1.5282c-1.59613,3.67625 -4.77735,7.19592 -10.77412,9.36493c-17.33415,6.26968 -23.52495,-11.28541 -23.52495,-11.28541c-10.30071,-29.26507 -22.86102,-62.29885 -26.70348,-93.46941c-3.95483,-32.08226 2.87409,-65.50259 -0.07516,-97.67395c-8.78511,-95.83184 -7.42528,-191.91988 -7.42528,-288.61078c0,-51.39812 -14.01134,-135.84098 28.16673,-174.15646c32.85885,-29.84973 84.89808,-30.04114 125.71982,-30.37809c56.83715,-0.46923 111.04605,8.22133 167.44312,10.69769c57.74147,2.53534 115.1597,0.9976 172.96917,4.6567c73.42648,4.65864 151.20961,7.18891 224.20802,-4.44501c48.84593,-7.78461 98.12485,-15.93428 147.75534,-18.69145c50.22231,-2.79005 101.61834,4.60294 151.6438,-0.10148c45.82047,-4.30893 91.7076,-3.81897 138.02184,-3.81897c95.7138,0 191.42753,0 287.14126,0c46.19359,0 95.63618,-4.78838 141.5424,0.07531c55.74262,5.90588 108.85967,7.33021 165.3102,7.42804c39.41553,5.65497 82.9034,11.46011 121.39344,21.81466c12.07042,3.24713 23.26166,9.66676 35.52617,12.05447l0.07151,-0.36201c0,0 18.40654,0 18.40654,18.64112z" fill="#000000" stroke-width="0.5"/><path d="M323.51846,114.39751c6.68223,-13.47022 21.93864,-19.2802 36.08831,-21.31281c47.66643,3.26708 35.14601,38.31368 50.71389,69.48215c4.4457,8.90071 15.00375,19.21322 21.52243,26.95268c0,7.09296 10.22911,45.98418 1.83834,51.50061c-17.8938,11.76409 -49.55674,-18.98015 -57.18622,-31.61272c-9.78212,-29.62909 -26.77554,-75.70895 -55.26273,-93.1298z" data-paper-data="{&quot;noHover&quot;:false,&quot;origItem&quot;:[&quot;Path&quot;,{&quot;applyMatrix&quot;:true,&quot;segments&quot;:[[[696.00398,311.55876],[0,0],[6.55825,4.01058]],[[708.65851,332.83214],[-2.25203,-6.82115],[1.75644,2.90826]],[[721.7573,340.1298],[-4.11947,2.7083],[1.93171,-1.26998]],[[721.30132,328.31623],[0,1.63292],[-1.50073,-1.78175]],[[716.34101,322.16682],[1.02348,2.04911],[-3.584,-7.17553]],[[704.78917,306.24923],[10.97364,0.75213],[-3.2575,0.46795]],[[696.52767,311.12868],[1.53837,-3.10109],[0,0]]],&quot;closed&quot;:true}]}" fill="url(#color-1)" stroke-width="0.5"/><path d="M369.95552,230.69223v-39h65.14286v39z" fill="url(#color-2)" stroke-width="0"/><path d="M375.50648,196.14241l0.97307,3.00353c0.31697,1.58733 0.63395,3.17466 0.95092,4.76199c0.29483,2.73256 -0.51479,10.33494 1.16805,8.16205c2.02875,-2.61967 5.86882,-5.58324 8.94133,-4.34286c1.91869,0.77458 9.64074,18.37142 12.08183,17.32267c4.19477,-1.802 8.72829,-4.53173 13.20492,-3.63569c3.7714,0.75489 5.25672,6.06291 8.87079,7.37898c0.65908,0.23995 3.82643,-9.66311 4.55969,-9.93378c0.96114,-0.35478 2.12099,-0.35612 3.31357,-0.0935c-3.85998,-7.27481 -7.56837,-14.88859 -0.29237,-18.94281c2.99361,-1.66801 -3.90613,-5.73751 -4.98978,-8.9886c-0.70389,-2.11167 -0.98761,-3.61712 -1.04286,-5.04712l-0.89149,-3.56597c-0.08575,-0.31384 -0.13161,-0.64424 -0.13161,-0.98537c0,-2.05902 1.6692,-3.72822 3.72822,-3.72822c0.85287,0 1.63885,0.2864 2.26706,0.76824l3.49693,2.62266c15.97037,8.02291 22.48022,23.26069 30.02943,38.45574c10.1574,13.97786 27.06415,23.55731 41.0341,33.48326c7.71578,5.4822 8.95534,16.96588 14.35411,21.76388c3.78638,3.36502 20.09065,8.20209 21.51267,12.09958c2.31351,6.34096 -11.83838,12.00205 -15.3831,12.62362c-3.95609,0.56512 -7.996,0.33561 -11.98788,0.14861c-3.10651,-0.14555 3.99091,6.36348 2.37697,9.02186c-5.80149,9.55574 -32.49423,0.43195 -39.73698,7.89616c-2.10167,2.16595 3.11933,8.80599 -1.87902,12.26496c-8.95326,6.19594 -34.20541,-9.77846 -32.64448,-6.60962c-13.36524,6.93726 -20.8659,-4.59272 -31.38352,-13.00621c-4.17994,-3.3437 -10.2509,-15.13249 -12.38382,-10.22301c-4.76072,10.95837 -12.72346,22.48663 -25.22054,27.58252c-8.97935,3.66149 -13.20559,-1.63498 -20.38586,5.54529c-9.82573,-0.3333 -14.73864,-11.2441 -26.09757,-8.3885c-5.88478,1.47943 -6.35066,10.17656 -14.97016,7.45645c-8.44763,-2.6659 -18.57931,-9.25808 -27.16078,-13.10612c-1.96418,-0.88068 -3.98674,-5.45439 -5.27275,-3.72822c-6.43596,8.63874 -7.29874,13.02045 -20.10109,13.16652c-0.11468,-11.06746 4.27008,-32.14594 0.31526,-41.87728c-2.26952,-5.58443 -19.47147,-4.04825 -11.82615,-15.07053c2.71512,-3.91441 11.14456,-1.6648 13.3879,-5.34269c1.44282,-2.36548 6.88469,-11.95641 12.2493,-13.79771c-9.65834,-11.24999 9.46298,-15.89789 21.19391,-15.96194c10.57406,0 28.06756,3.96631 37.16972,-3.23587c5.15509,-4.07898 7.86655,-11.41321 12.60811,-15.44752c11.75494,-10.00133 19.49391,-9.93013 28.07398,-25.10892c0,0 1.84972,-3.23699 5.08671,-1.38727c3.23699,1.84972 1.38727,5.08671 1.38727,5.08671c-0.18417,0.31921 -0.36887,0.63246 -0.55424,0.93996z" fill="url(#color-3)" stroke-width="0.5"/></g></g></svg>