<svg version="1.1" xmlns="http://www.w3.org/2000/svg" xmlns:xlink="http://www.w3.org/1999/xlink" width="47.57143" height="51.85714" viewBox="0,0,47.57143,51.85714"><g transform="translate(-296.2143,-153.5)"><g data-paper-data="{&quot;isPaintingLayer&quot;:true}" fill-rule="nonzero" stroke-linejoin="miter" stroke-miterlimit="10" stroke-dasharray="" stroke-dashoffset="0" style="mix-blend-mode: normal"><path d="M296.2143,205.35714v-51.85714h47.57143v51.85714z" fill="none" stroke="none" stroke-width="0" stroke-linecap="butt"/><path d="M325.51035,195.33707l-1.78549,-5.7369l3.72382,-1.15896l1.78549,5.7369z" fill="#3f51b5" stroke="none" stroke-width="0" stroke-linecap="butt"/><path d="M326.02316,179.71088c-0.08112,0.04864 -0.19365,0.09921 -0.33321,0.15017c-0.02068,0.00882 -0.04153,0.0174 -0.06256,0.02571c-0.14728,0.05825 -0.29678,0.10154 -0.44681,0.13059c-2.65382,0.7003 -9.69677,1.18557 -9.37022,-2.55812c0.27877,-3.19583 9.18337,-3.58812 10.10129,-2.08843c0.49296,0.27047 0.89804,0.70797 1.121,1.27169c0.41384,1.0463 0.07261,2.20455 -0.76272,2.87226c-0.07141,0.07405 -0.15305,0.13989 -0.24677,0.1961z" data-paper-data="{&quot;origRot&quot;:0,&quot;origPos&quot;:null}" fill="#000000" stroke="none" stroke-width="0.5" stroke-linecap="butt"/><path d="M319.32501,185.52857v-8.1h2.7v8.1z" data-paper-data="{&quot;origPos&quot;:null}" fill="#0fa1cc" stroke="none" stroke-width="0" stroke-linecap="butt"/><path d="M324.75045,191.22179l-4.34344,-4.15146l2.69471,-2.81932l4.34343,4.15146z" fill="#3f51b5" stroke="none" stroke-width="0" stroke-linecap="butt"/><path d="M315.90604,188.67857v-3.9h8.51897v3.9z" fill="#3f51b5" stroke="none" stroke-width="0" stroke-linecap="butt"/><path d="M331.58642,192.02581c0.44948,1.11396 -0.68082,2.6201 -2.52461,3.36408c-1.84378,0.74398 -3.70284,0.44406 -4.15233,-0.6699c-0.44948,-1.11396 0.68082,-2.6201 2.5246,-3.36408c1.84379,-0.74398 3.70285,-0.44405 4.15233,0.66991z" fill="#000000" stroke="none" stroke-width="0" stroke-linecap="butt"/><path d="M316.98204,180.18758c-1.38665,0.54845 -2.9677,-0.16227 -3.53138,-1.58743c-0.56368,-1.42516 0.10345,-3.02509 1.4901,-3.57354c1.38665,-0.54845 2.9677,0.16227 3.53139,1.58743c0.56368,1.42516 -0.10345,3.02509 -1.4901,3.57354z" data-paper-data="{&quot;origPos&quot;:null,&quot;origRot&quot;:0}" fill="#ffffff" stroke="none" stroke-width="0" stroke-linecap="butt"/><path d="M318.80359,164.43571c0,1.7397 -1.27599,3.15 -2.85,3.15c-1.57401,0 -2.85,-1.4103 -2.85,-3.15c0,-1.7397 1.27599,-3.15 2.85,-3.15c1.57401,0 2.85,1.4103 2.85,3.15z" data-paper-data="{&quot;origPos&quot;:null}" fill="#0392cf" stroke="none" stroke-width="0" stroke-linecap="butt"/><path d="M327.05359,170.65558c0,3.7665 -2.88777,6.81986 -6.45,6.81986c-3.56223,0 -6.45,-3.05335 -6.45,-6.81986c0,-3.7665 2.88777,-6.81987 6.45,-6.81987c3.56223,0 6.45,3.05336 6.45,6.81987z" data-paper-data="{&quot;origPos&quot;:null}" fill="#ffe896" stroke="none" stroke-width="0" stroke-linecap="butt"/><path d="M320.50357,174.42267c-1.07695,0 -1.95,-1.30957 -1.95,-2.925c0,-1.61543 0.87305,-2.925 1.95,-2.925c1.07696,0 1.95,1.30957 1.95,2.925c0,1.61544 -0.87305,2.925 -1.95,2.925z" data-paper-data="{&quot;origPos&quot;:null}" fill="#ffffff" stroke="none" stroke-width="0" stroke-linecap="butt"/><path d="M324.39163,174.133c-0.86985,0 -1.575,-1.23402 -1.575,-2.75625c0,-1.52224 0.70515,-2.75625 1.575,-2.75625c0.86985,0 1.575,1.23402 1.575,2.75625c0,1.52224 -0.70515,2.75625 -1.575,2.75625z" data-paper-data="{&quot;origPos&quot;:null}" fill="#ffffff" stroke="none" stroke-width="0" stroke-linecap="butt"/><path d="M322.64271,171.54115c0,0.95269 -0.60441,1.725 -1.35,1.725c-0.74559,0 -1.35,-0.77231 -1.35,-1.725c0,-0.95269 0.60441,-1.725 1.35,-1.725c0.74559,0 1.35,0.77231 1.35,1.725z" data-paper-data="{&quot;origPos&quot;:null}" fill="#000aa7" stroke="none" stroke-width="0" stroke-linecap="butt"/><path d="M313.87188,172.65964c-0.14796,-0.02079 -0.29541,-0.04138 -0.38971,-0.04138c-0.64496,-0.05477 -1.45571,0.11447 -1.91364,-0.31387c-0.15293,-0.14305 0.42815,-1.11371 0.52321,-1.24774c0.79806,-1.12523 1.72427,-2.55227 2.75117,-3.51281c0.71135,0.32412 -1.12014,-0.89463 -1.20951,-1.66194c-0.05293,-0.45444 3.89268,-1.14755 4.27735,-1.14755c0.49603,0.01551 3.06599,-0.21325 3.87947,0.2406c0.01498,-0.17997 0.01971,-0.3499 -0.0074,-0.46123c-0.11236,-0.46141 -0.15199,-0.77789 -0.08219,-1.04881h-0.00417v-0.66813h0.45795c0.11037,-0.10236 0.24155,-0.21072 0.3956,-0.33071c0.08567,0.08013 0.59208,0.55382 0.64286,0.60131c0.52635,0.70416 1.879,0.79117 2.48866,1.48672c0.68095,0.77688 0.79442,2.3698 1.00327,3.35318c0.00764,0.03249 0.01166,0.06625 0.01166,0.10088c0,0.02639 -0.00234,0.05228 -0.00683,0.07748c-0.0189,0.13767 -0.09876,0.31846 -0.3767,0.37745c-0.01109,0.00248 -0.02233,0.00461 -0.0337,0.00638c-0.12573,0.02094 -0.225,0.00517 -0.30301,-0.02941l0.00236,0.03244c-0.7939,0.7426 -1.47421,1.61259 -2.34101,0.39641c-0.01515,-0.25624 -0.63015,-0.34508 -0.94791,-0.40903c0.01689,0.37196 -0.09339,0.9119 -0.573,1.00643c-1.00706,0.19849 -1.60919,-0.3137 -2.94132,-0.00234c0.00126,0.08855 -0.0652,2.35507 -0.27953,2.80002c-0.16269,0.33774 -0.74717,0.89255 -1.1131,1.01883c0.12586,0.28318 0.24683,0.59369 0.27777,0.67087c0.39588,1.0062 1.08061,1.60185 0.27883,2.67332c-1.03883,1.38825 -2.46247,-2.3052 -2.38571,-1.88412c0.06152,0.33747 -0.37539,0.52385 -0.89279,0.62633l-0.70316,0.49329c-0.08425,0.06045 -0.18966,0.09637 -0.30404,0.09637c-0.27614,0 -0.5,-0.20939 -0.5,-0.46769v-0.26725c0,-0.00444 0,-0.00905 0,-0.01381v-0.25344h0.00115c0.00635,-0.61229 0.04771,-1.85207 0.31713,-2.29707z" data-paper-data="{&quot;origPos&quot;:null}" fill="#000000" stroke="none" stroke-width="0.5" stroke-linecap="butt"/><path d="M323.64707,161.08354c1.40833,0 2.55,1.17525 2.55,2.625c0,1.44975 -1.14168,2.625 -2.55,2.625c-1.40832,0 -2.55,-1.17525 -2.55,-2.625c0,-1.44975 1.14168,-2.625 2.55,-2.625z" data-paper-data="{&quot;origPos&quot;:null}" fill="#0392cf" stroke="none" stroke-width="0" stroke-linecap="butt"/><path d="M325.55576,171.46615c0,0.99411 -0.53726,1.8 -1.2,1.8c-0.66274,0 -1.2,-0.80589 -1.2,-1.8c0,-0.99411 0.53726,-1.8 1.2,-1.8c0.66274,0 1.2,0.80588 1.2,1.8z" data-paper-data="{&quot;origPos&quot;:null}" fill="#000aa7" stroke="none" stroke-width="0" stroke-linecap="butt"/><path d="M316.66446,170.07158c0,3.02376 -1.20883,5.475 -2.7,5.475c-1.49117,0 -2.7,-2.45124 -2.7,-5.475c0,-3.02376 1.20883,-5.475 2.7,-5.475c1.49117,0 2.7,2.45124 2.7,5.475z" data-paper-data="{&quot;origPos&quot;:null}" fill="#0392cf" stroke="none" stroke-width="0" stroke-linecap="butt"/><path d="M325.9893,163.62027c0,1.14059 -0.9149,2.06521 -2.04348,2.06521c-1.12858,0 -2.04348,-0.92462 -2.04348,-2.06521c0,-1.14059 0.9149,-2.06522 2.04348,-2.06522c1.12858,0 2.04348,0.92463 2.04348,2.06522z" data-paper-data="{&quot;origPos&quot;:null}" fill="#03b3ff" stroke="none" stroke-width="0" stroke-linecap="butt"/><path d="M327.05359,165.86071c0,1.44975 -3.25713,2.625 -7.275,2.625c-4.01787,0 -7.275,-1.17525 -7.275,-2.625c0,-1.44975 3.25713,-2.625 7.275,-2.625c4.01787,0 7.275,1.17525 7.275,2.625z" data-paper-data="{&quot;origPos&quot;:null}" fill="#0392cf" stroke="none" stroke-width="0" stroke-linecap="butt"/><path d="M322.54923,174.69658c0,0.16568 -0.33578,0.3 -0.75,0.3c-0.41422,0 -0.75,-0.13431 -0.75,-0.3c0,-0.16568 0.33578,-0.3 0.75,-0.3c0.41422,0 0.75,0.13432 0.75,0.3z" data-paper-data="{&quot;origPos&quot;:null}" fill="#000000" stroke="none" stroke-width="0" stroke-linecap="butt"/><path d="M310.9322,191.65534l4.65281,-3.8015l2.46755,3.02014l-4.65282,3.8015z" fill="#3f51b5" stroke="none" stroke-width="0" stroke-linecap="butt"/><path d="M314.45233,189.56556l2.03448,-5.6534l3.66962,1.32058l-2.03448,5.6534z" fill="#3f51b5" stroke="none" stroke-width="0" stroke-linecap="butt"/><path d="M316.99058,180.08763c-0.08112,0.04865 -0.19365,0.09921 -0.33321,0.15017c-0.02067,0.00882 -0.04153,0.0174 -0.06256,0.02571c-0.14728,0.05825 -0.29678,0.10154 -0.4468,0.1306c-2.65382,0.7003 -9.69677,1.18557 -9.37022,-2.55811c0.27877,-3.19583 9.18337,-3.58813 10.10129,-2.08844c0.49296,0.27047 0.89804,0.70797 1.121,1.2717c0.41383,1.0463 0.07261,2.20455 -0.76272,2.87227c-0.07141,0.07405 -0.15305,0.1399 -0.24677,0.19611z" data-paper-data="{&quot;origRot&quot;:0,&quot;origPos&quot;:null}" fill="#000000" stroke="none" stroke-width="0.5" stroke-linecap="butt"/><path d="M307.94947,180.56433c-1.38665,0.54845 -2.9677,-0.16227 -3.53138,-1.58743c-0.56368,-1.42516 0.10346,-3.02509 1.49011,-3.57354c1.38665,-0.54845 2.9677,0.16227 3.53138,1.58743c0.56368,1.42516 -0.10346,3.02509 -1.49011,3.57354z" data-paper-data="{&quot;origPos&quot;:null,&quot;origRot&quot;:0}" fill="#ffffff" stroke="none" stroke-width="0" stroke-linecap="butt"/><path d="M315.27502,175.17857l4.05,2.4l-0.15,7.5h-3.9z" fill="#000000" stroke="#000000" stroke-width="0.5" stroke-linecap="round"/><path d="M325.02502,175.77857l-0.3,9.6h-2.85v-7.95z" fill="#000000" stroke="#000000" stroke-width="0.5" stroke-linecap="round"/><path d="M324.4629,166.436c0,0.90732 -1.16726,1.64285 -2.60715,1.64285c-1.43989,0 -2.60715,-0.73553 -2.60715,-1.64285c0,-0.90732 1.16726,-1.64286 2.60715,-1.64286c1.43989,0 2.60715,0.73554 2.60715,1.64286z" data-paper-data="{&quot;origPos&quot;:null}" fill="#03b3ff" stroke="none" stroke-width="0" stroke-linecap="butt"/><path d="M322.82004,165.22171c0,0.35504 -0.30381,0.64286 -0.67857,0.64286c-0.37476,0 -0.67857,-0.28782 -0.67857,-0.64286c0,-0.35504 0.30381,-0.64286 0.67857,-0.64286c0.37476,0 0.67857,0.28782 0.67857,0.64286z" data-paper-data="{&quot;origPos&quot;:null}" fill="#000000" stroke="none" stroke-width="0" stroke-linecap="butt"/><path d="M320.42408,164.63476c0,0.32417 -0.30172,0.58696 -0.67391,0.58696c-0.37219,0 -0.67391,-0.26279 -0.67391,-0.58696c0,-0.32417 0.30172,-0.58696 0.67391,-0.58696c0.37219,0 0.67391,0.26279 0.67391,0.58696z" data-paper-data="{&quot;origPos&quot;:null}" fill="#000000" stroke="none" stroke-width="0" stroke-linecap="butt"/><path d="M324.03278,164.41737c0,0.32416 -0.30173,0.58696 -0.67391,0.58696c-0.37219,0 -0.67391,-0.26279 -0.67391,-0.58696c0,-0.32416 0.30173,-0.58695 0.67391,-0.58695c0.37219,0 0.67391,0.26279 0.67391,0.58695z" data-paper-data="{&quot;origPos&quot;:null}" fill="#000000" stroke="none" stroke-width="0" stroke-linecap="butt"/><path d="M317.64145,163.96809c0,1.14059 -0.9149,2.06522 -2.04348,2.06522c-1.12858,0 -2.04348,-0.92463 -2.04348,-2.06522c0,-1.14059 0.9149,-2.06522 2.04348,-2.06522c1.12858,0 2.04348,0.92463 2.04348,2.06522z" data-paper-data="{&quot;origPos&quot;:null}" fill="#03b3ff" stroke="none" stroke-width="0" stroke-linecap="butt"/><path d="M316.09068,196.06751c-0.91731,0.77556 -2.70154,0.17345 -3.98522,-1.34486c-1.28367,-1.51829 -1.58068,-3.37782 -0.66337,-4.15338c0.91731,-0.77556 2.70155,-0.17345 3.98523,1.34486c1.28368,1.51831 1.58067,3.37783 0.66336,4.15338z" fill="#000000" stroke="none" stroke-width="0" stroke-linecap="butt"/></g></g></svg>