<svg version="1.1" xmlns="http://www.w3.org/2000/svg" xmlns:xlink="http://www.w3.org/1999/xlink" width="61.5" height="57.25" viewBox="0,0,61.5,57.25"><defs><linearGradient x1="116.66761" y1="21.58523" x2="116.66761" y2="52" gradientUnits="userSpaceOnUse" id="color-1"><stop offset="0" stop-color="#808080"/><stop offset="1" stop-color="#333333"/></linearGradient></defs><g transform="translate(-87.75,-5.25)"><g data-paper-data="{&quot;isPaintingLayer&quot;:true}" fill-rule="nonzero" stroke-linejoin="miter" stroke-miterlimit="10" stroke-dasharray="" stroke-dashoffset="0" style="mix-blend-mode: normal"><path d="M101.46023,36.79261c0,-8.39881 6.80858,-15.20739 15.20739,-15.20739c8.39881,0 15.20739,6.80858 15.20739,15.20739c0,8.39881 -6.80858,15.20739 -15.20739,15.20739c-8.39881,0 -15.20739,-6.80858 -15.20739,-15.20739z" fill="url(#color-1)" stroke="#000000" stroke-width="1.5" stroke-linecap="butt"/><path d="M100.01191,18.38495c0.24898,-1.1204 1.36937,-0.87142 1.36937,-0.87142l1.12549,0.32939c1.05351,0.7042 2.33656,1.77349 3.66939,1.6172c1.66965,-0.19578 2.3928,-1.75324 3.89731,-2.31014c2.91237,-1.07802 4.95314,0.69189 6.31995,3.04601c0,0 0.56943,0.99651 -0.42707,1.56594c-0.99651,0.56943 -1.56594,-0.42707 -1.56594,-0.42707c-0.19048,-0.34017 -0.34085,-0.70613 -0.57144,-1.0205c-2.25783,-3.0781 -4.84029,1.16722 -7.41097,1.42844c-1.98873,0.20209 -3.60105,-0.93685 -5.18451,-1.98994l-0.35016,0.00147c0,0 -1.1204,-0.24898 -0.87142,-1.36937z" fill="#c7b191" stroke="none" stroke-width="0.5" stroke-linecap="butt"/><path d="M101.21429,18.71591l-3.68912,0.98377l0.98377,-2.13149l-2.13149,-2.5414l4.09903,0.65584l1.88555,-1.55763z" fill="#fff12b" stroke="#fff12b" stroke-width="1.5" stroke-linecap="round"/><path d="M87.75,62.5v-57.25h61.5v57.25z" fill="none" stroke="none" stroke-width="0" stroke-linecap="butt"/></g></g></svg>