<svg version="1.1" xmlns="http://www.w3.org/2000/svg" xmlns:xlink="http://www.w3.org/1999/xlink" width="29.95391" height="35.02009" viewBox="0,0,29.95391,35.02009"><g transform="translate(-304.21321,-161.35343)"><g data-paper-data="{&quot;isPaintingLayer&quot;:true}" fill-rule="nonzero" stroke-width="0" stroke-linejoin="miter" stroke-miterlimit="10" stroke-dasharray="" stroke-dashoffset="0" style="mix-blend-mode: normal"><path d="M324.64862,177.79284c-0.10243,0.03807 -0.20486,0.06069 -0.30728,0.07021c-1.0432,0.23525 -2.16084,-0.22176 -2.71943,-1.19849c-0.30095,-0.52624 -0.38959,-1.11586 -0.29288,-1.66976c-0.59777,-1.65358 5.27067,-8.36231 7.94048,-6.58379c3.1275,2.08342 -1.65071,7.28027 -3.85525,8.91527c-0.1164,0.09902 -0.2436,0.18873 -0.38108,0.26735c-0.01963,0.01122 -0.03935,0.02216 -0.05915,0.0328c-0.12698,0.07716 -0.23675,0.13344 -0.3254,0.16641z" data-paper-data="{&quot;origRot&quot;:0,&quot;index&quot;:null}" fill="#000000" stroke="#ff0000" stroke-linecap="butt"/><path d="M327.0128,170.041c-0.76084,-1.3304 -0.32828,-3.00901 0.96615,-3.74929c1.29444,-0.74028 2.96058,-0.26191 3.72142,1.06849c0.76084,1.3304 0.32828,3.00901 -0.96616,3.74929c-1.29444,0.74028 -2.96057,0.26191 -3.72142,-1.06849z" data-paper-data="{&quot;origRot&quot;:0,&quot;index&quot;:null}" fill="#ff0000" stroke="#ff0000" stroke-linecap="butt"/><path d="M321.89684,194.65312l-4.27678,-8.25828l3.99594,-2.0694l4.27678,8.25827z" data-paper-data="{&quot;origRot&quot;:0}" fill="#b53f3f" stroke="#ff0000" stroke-linecap="butt"/><path d="M330.04903,190.42568l-7.4479,-5.56945l2.33558,-3.12332l7.4479,5.56945z" data-paper-data="{&quot;origPos&quot;:null,&quot;origRot&quot;:0}" fill="#b53f3f" stroke="#ff0000" stroke-linecap="butt"/><path d="M321.76119,185.71148l-4.27461,-8.25406l2.75135,-1.42487l4.27461,8.25406z" data-paper-data="{&quot;origRot&quot;:0}" fill="#cc0e0e" stroke="#ff0000" stroke-linecap="butt"/><path d="M319.55151,190.12439l-1.7935,-3.46315l8.39148,-4.34576l1.7935,3.46315z" data-paper-data="{&quot;origRot&quot;:0,&quot;origPos&quot;:null}" fill="#b53f3f" stroke="none" stroke-linecap="butt"/><path d="M328.63495,193.40443c0.24,1.17701 -1.14473,2.45317 -3.09287,2.85039c-1.94814,0.39722 -3.72197,-0.23491 -3.96197,-1.41191c-0.24,-1.17701 1.14473,-2.45316 3.09287,-2.85039c1.94814,-0.39722 3.72197,0.2349 3.96197,1.4119z" data-paper-data="{&quot;origPos&quot;:null,&quot;origRot&quot;:0}" fill="#000000" stroke="#ff0000" stroke-linecap="butt"/><path d="M313.07365,177.64172l5.10309,0.29174l3.60017,7.30593l-3.76014,1.9473z" data-paper-data="{&quot;origRot&quot;:0}" fill="#000000" stroke="#ff0000" stroke-linecap="round"/><path d="M322.54347,174.04768l4.14835,8.66264l-2.53075,1.31062l-3.65596,-7.05949z" data-paper-data="{&quot;origRot&quot;:0}" fill="#000000" stroke="#ff0000" stroke-linecap="round"/><path d="M333.17515,184.16892c1.09444,0.49509 1.31736,2.36494 0.49791,4.17645c-0.81946,1.81149 -2.37099,2.87866 -3.46544,2.38357c-1.09444,-0.49509 -1.31736,-2.36494 -0.49791,-4.17645c0.81946,-1.8115 2.37099,-2.87866 3.46544,-2.38357z" data-paper-data="{&quot;origPos&quot;:null,&quot;origRot&quot;:0}" fill="#000000" stroke="#ff0000" stroke-linecap="butt"/><path d="M312.58977,165.98069c0.80003,1.54483 0.31553,3.38395 -1.08217,4.10778c-1.39769,0.72384 -3.17933,0.0583 -3.97935,-1.48654c-0.80003,-1.54483 -0.31552,-3.38394 1.08217,-4.10778c1.39769,-0.72384 3.17932,-0.0583 3.97935,1.48654z" data-paper-data="{&quot;origPos&quot;:null,&quot;origRot&quot;:0}" fill="#cf0202" stroke="#ff0000" stroke-linecap="butt"/><path d="M321.98891,168.56566c1.7321,3.3446 0.57194,7.38394 -2.59127,9.0221c-3.16321,1.63816 -7.13166,0.25483 -8.86377,-3.08979c-1.7321,-3.3446 -0.57195,-7.38395 2.59127,-9.02211c3.16321,-1.63816 7.13166,-0.25481 8.86376,3.0898z" data-paper-data="{&quot;origPos&quot;:null,&quot;origRot&quot;:0}" fill="#ffe896" stroke="#ff0000" stroke-linecap="butt"/><path d="M317.90496,174.92292c-0.95632,0.49525 -2.3338,-0.26613 -3.0767,-1.70061c-0.74289,-1.43447 -0.56986,-2.99885 0.38646,-3.4941c0.95633,-0.49525 2.3338,0.26614 3.0767,1.70062c0.74289,1.43449 0.56986,2.99885 -0.38646,3.4941z" data-paper-data="{&quot;origPos&quot;:null,&quot;origRot&quot;:0}" fill="#ffffff" stroke="#ff0000" stroke-linecap="butt"/><path d="M321.22427,172.87771c-0.77242,0.40001 -1.96607,-0.3715 -2.66609,-1.72322c-0.70004,-1.35173 -0.64134,-2.77179 0.13107,-3.17181c0.77242,-0.40001 1.96607,0.3715 2.66609,1.72323c0.70004,1.35173 0.64134,2.77178 -0.13107,3.1718z" data-paper-data="{&quot;origPos&quot;:null,&quot;origRot&quot;:0}" fill="#ffffff" stroke="#ff0000" stroke-linecap="butt"/><path d="M318.28103,172.08709c0.28015,0.54095 0.16407,1.15723 -0.2593,1.37647c-0.42336,0.21925 -0.99367,-0.04155 -1.27382,-0.58251c-0.28015,-0.54095 -0.16406,-1.15723 0.2593,-1.37647c0.42336,-0.21925 0.99367,0.04155 1.27381,0.58251z" data-paper-data="{&quot;origRot&quot;:0}" fill="#a60000" stroke="#ff0000" stroke-linecap="butt"/><path d="M311.06327,177.20794c-0.14832,0.05218 -0.29606,0.10428 -0.38417,0.14992c-0.62917,0.26092 -1.30485,0.8114 -1.94003,0.63276c-0.21213,-0.05966 -0.13887,-1.24786 -0.1149,-1.4191c0.20121,-1.43763 0.37611,-3.21929 0.87085,-4.61377c0.82155,-0.04137 -1.47961,-0.29391 -1.93443,-0.96765c-0.26937,-0.39902 3.08209,-2.95602 3.44152,-3.14217c0.471,-0.22554 2.76173,-1.68294 3.74149,-1.65251c-0.07309,-0.17541 -0.15091,-0.33649 -0.23012,-0.4274c-0.32828,-0.37678 -0.51846,-0.65333 -0.58433,-0.94026l-0.00389,0.00202l-0.32331,-0.62431l0.42791,-0.22161c0.0536,-0.14906 0.12374,-0.31379 0.20963,-0.50046c0.11883,0.03341 0.82125,0.23099 0.89168,0.25078c0.83259,0.40327 2.13863,-0.16999 3.0449,0.18492c1.01223,0.3964 1.8891,1.82996 2.56013,2.64777c0.02287,0.02666 0.04296,0.05626 0.05971,0.08862c0.01277,0.02466 0.02311,0.04998 0.03111,0.0757c0.04896,0.13779 0.06182,0.34537 -0.16934,0.53499c-0.00916,0.00768 -0.01863,0.01511 -0.0284,0.02228c-0.10735,0.08041 -0.20775,0.11372 -0.29737,0.11915l0.0179,0.02918c-0.38248,1.07808 -0.59717,2.22023 -1.99565,1.50326c-0.13815,-0.2321 -0.75582,-0.01752 -1.08368,0.0765c0.19578,0.33939 0.35402,0.89728 -0.04839,1.2177c-0.84497,0.67281 -1.65546,0.48559 -2.74956,1.42116c0.04402,0.08213 1.07873,2.23217 1.09378,2.75167c0.01142,0.39432 -0.26625,1.19558 -0.54708,1.49067c0.25464,0.20371 0.51794,0.43532 0.5842,0.49246c0.85683,0.74865 1.7849,0.97387 1.5542,2.36307c-0.2989,1.79991 -3.4165,-0.9624 -3.14101,-0.60608c0.2208,0.28557 -0.09727,0.67115 -0.53115,1.0173l-0.41833,0.80121c-0.04947,0.09725 -0.13058,0.18182 -0.23746,0.23718c-0.25803,0.13363 -0.56853,0.0463 -0.69353,-0.19506l-0.12933,-0.24973c-0.00215,-0.00415 -0.00437,-0.00845 -0.00668,-0.0129l-0.12264,-0.23682l0.00107,-0.00055c-0.29037,-0.57521 -0.85166,-1.75369 -0.81525,-2.29989z" data-paper-data="{&quot;origPos&quot;:null,&quot;origRot&quot;:0}" fill="#000000" stroke="#ff0000" stroke-linecap="butt"/><path d="M314.56208,161.63235c1.25058,-0.64765 2.80482,-0.12906 3.47152,1.1583c0.6667,1.28736 0.19337,2.85598 -1.05721,3.50363c-1.25056,0.64765 -2.80482,0.12907 -3.47152,-1.15829c-0.6667,-1.28736 -0.19337,-2.85599 1.05721,-3.50364z" data-paper-data="{&quot;origPos&quot;:null,&quot;origRot&quot;:0}" fill="#cf0202" stroke="#ff0000" stroke-linecap="butt"/><path d="M320.83012,170.67439c0.28327,0.54699 0.21729,1.14349 -0.14736,1.33234c-0.36466,0.18884 -0.8899,-0.10148 -1.17317,-0.64846c-0.28327,-0.54699 -0.21729,-1.14349 0.14736,-1.33234c0.36466,-0.18884 0.88991,0.10147 1.17318,0.64846z" data-paper-data="{&quot;origRot&quot;:0}" fill="#a60000" stroke="#ff0000" stroke-linecap="butt"/><path d="M311.89171,173.36672c-0.29546,3.00929 -1.738,5.33069 -3.22204,5.18499c-1.48403,-0.14569 -2.44757,-2.70332 -2.15212,-5.71261c0.29546,-3.00929 1.738,-5.33069 3.22204,-5.18499c1.48403,0.14569 2.44757,2.70332 2.15212,5.71262z" data-paper-data="{&quot;origPos&quot;:null,&quot;origRot&quot;:0}" fill="#cf0202" stroke="#ff0000" stroke-linecap="butt"/><path d="M317.80851,162.80782c0.52452,1.01283 0.13731,2.25462 -0.86485,2.77362c-1.00217,0.51899 -2.23979,0.11867 -2.76431,-0.89415c-0.52452,-1.01283 -0.13732,-2.25462 0.86485,-2.77361c1.00217,-0.51899 2.2398,-0.11868 2.76431,0.89415z" data-paper-data="{&quot;origPos&quot;:null,&quot;origRot&quot;:0}" fill="#ff0303" stroke="#ff0000" stroke-linecap="butt"/><path d="M320.48279,163.47066c0.6667,1.28736 -1.68514,3.82882 -5.25295,5.67652c-3.56781,1.84769 -7.00056,2.30193 -7.66726,1.01458c-0.6667,-1.28736 1.68514,-3.82882 5.25295,-5.67652c3.56781,-1.84769 7.00056,-2.30193 7.66725,-1.01458z" data-paper-data="{&quot;origPos&quot;:null,&quot;origRot&quot;:0}" fill="#cf0202" stroke="#ff0000" stroke-linecap="butt"/><path d="M320.36731,174.33513c0.16185,0.31252 -0.34032,0.89394 -1.1217,1.29861c-0.78137,0.40465 -1.546,0.47931 -1.70785,0.16676c-0.16185,-0.31252 0.34033,-0.89394 1.12171,-1.29861c0.78137,-0.40465 1.546,-0.47931 1.70784,-0.16676z" data-paper-data="{&quot;origRot&quot;:0}" fill="#000000" stroke="#ff0000" stroke-linecap="butt"/><path d="M318.53504,165.15438c0.41725,0.80569 -0.28102,1.99562 -1.55962,2.65778c-1.2786,0.66216 -2.65336,0.54581 -3.07061,-0.25988c-0.41725,-0.80569 0.28101,-1.99562 1.55961,-2.65779c1.2786,-0.66216 2.65337,-0.5458 3.07062,0.25988z" data-paper-data="{&quot;origPos&quot;:null,&quot;origRot&quot;:0}" fill="#ff0303" stroke="#ff0000" stroke-linecap="butt"/><path d="M316.51779,164.83162c0.16327,0.31527 0.02585,0.71057 -0.30694,0.8829c-0.33278,0.17234 -0.73492,0.05647 -0.89819,-0.2588c-0.16327,-0.31527 -0.02585,-0.71057 0.30694,-0.8829c0.33278,-0.17234 0.73492,-0.05647 0.89819,0.2588z" data-paper-data="{&quot;origPos&quot;:null,&quot;origRot&quot;:0}" fill="#000000" stroke="#ff0000" stroke-linecap="butt"/><path d="M314.12028,165.41224c0.14907,0.28786 0.00201,0.65996 -0.3285,0.83112c-0.3305,0.17115 -0.71928,0.07655 -0.86835,-0.21131c-0.14907,-0.28786 -0.002,-0.65996 0.3285,-0.83112c0.3305,-0.17115 0.71927,-0.07655 0.86835,0.21131z" data-paper-data="{&quot;origPos&quot;:null,&quot;origRot&quot;:0}" fill="#000000" stroke="#ff0000" stroke-linecap="butt"/><path d="M317.22479,163.55967c0.14907,0.28786 0.002,0.65996 -0.3285,0.83112c-0.3305,0.17115 -0.71928,0.07655 -0.86835,-0.21131c-0.14907,-0.28786 -0.00199,-0.65996 0.32851,-0.83111c0.3305,-0.17115 0.71927,-0.07655 0.86834,0.2113z" data-paper-data="{&quot;origPos&quot;:null,&quot;origRot&quot;:0}" fill="#000000" stroke="#ff0000" stroke-linecap="butt"/><path d="M311.34279,166.09988c0.52452,1.01283 0.13732,2.25462 -0.86485,2.77362c-1.00217,0.51899 -2.2398,0.11867 -2.76431,-0.89416c-0.52452,-1.01283 -0.13732,-2.25462 0.86485,-2.77361c1.00217,-0.51899 2.2398,-0.11868 2.76432,0.89415z" data-paper-data="{&quot;origPos&quot;:null,&quot;origRot&quot;:0}" fill="#ff0303" stroke="#ff0000" stroke-linecap="butt"/><path d="M315.53103,182.13819c-0.09337,0.01514 -0.21662,0.02044 -0.36514,0.01609c-0.02247,0.00054 -0.04503,0.00078 -0.06763,0.00072c-0.15838,-0.00043 -0.31328,-0.01558 -0.4634,-0.04415c-2.72448,-0.33227 -9.44639,-2.48969 -7.75668,-5.84627c1.44245,-2.86538 9.85923,0.06782 10.15652,1.80081c0.35775,0.4338 0.57202,0.9902 0.57036,1.59642c-0.00306,1.12517 -0.74896,2.0747 -1.77217,2.3856c-0.09376,0.04234 -0.19398,0.07327 -0.30185,0.09077z" data-paper-data="{&quot;origRot&quot;:0}" fill="#000000" stroke="#ff0000" stroke-linecap="butt"/><path d="M306.90567,179.14291c-1.49117,-0.00405 -2.69661,-1.24975 -2.69244,-2.78234c0.00417,-1.53259 1.21637,-2.7717 2.70754,-2.76765c1.49117,0.00405 2.6966,1.24975 2.69244,2.78234c-0.00417,1.53259 -1.21637,2.7717 -2.70754,2.76765z" data-paper-data="{&quot;origRot&quot;:0}" fill="#ff0000" stroke="#ff0000" stroke-linecap="butt"/></g></g></svg>