<svg xmlns="http://www.w3.org/2000/svg" xmlns:xlink="http://www.w3.org/1999/xlink" version="1.1" width="69.9104061126709" height="91.69280815124512" viewBox="0.3539152145385742 0.2964439392089844 69.9104061126709 91.69280815124512">
  <defs>
    <radialGradient id="grad_1" cx="0.525" cy="0.23379999999999998" r="0.99606">
      <stop offset="0" stop-color="#FFD499" stop-opacity="1"/>
      <stop offset="1" stop-color="#FF9400" stop-opacity="1"/>
    </radialGradient>
  <radialGradient id="grad_1-.232558250427246,0,0,3.232558250427246,-738.15,-507.05" cx="36.8952" cy="23.4552" r="74.8341" gradientUnits="userSpaceOnUse">
      <stop offset="0" stop-color="#FFD499" stop-opacity="1"/>
      <stop offset="1" stop-color="#FF9400" stop-opacity="1"/>
    </radialGradient></defs>
  <!-- Exported by Scratch - http://scratch.mit.edu/ -->
  <path id="ID0.17864482337608933" fill="url(#grad_1-.232558250427246,0,0,3.232558250427246,-738.15,-507.05)" stroke="#FF9400" stroke-width="6.465116500854492" stroke-linecap="round" d="M 3.7221 12.7454 C 5.7198 9.0085 17.1243 25.3006 24.7337 28.2616 C 27.3004 29.267 30.575 25.7726 31.1989 23.0896 C 32.5145 17.3712 26.725 9.7456 29.5826 4.9872 C 31.367 2.0715 38.6014 3.9205 39.9268 7.0884 C 44.0224 15.8292 37.9161 36.0036 43.4826 35.5349 C 51.0435 34.8755 64.6817 4.9452 66.757 5.4721 C 68.8323 6.0023 58.5334 27.78 56.5744 39.414 C 55.8697 43.6228 59.3415 47.8316 59.3221 52.3442 C 59.0635 56.3138 58.2069 64.5924 55.7663 64.143 C 52.6081 63.5515 51.7644 53.5273 47.6849 49.9198 C 46.1818 48.588 43.5084 50.2463 43.1593 53.1523 C 41.7661 64.7702 45.9135 77.3028 43.1593 87.9023 C 42.3577 91.2028 37.331 84.0944 36.0477 80.9523 C 33.0802 73.6888 35.3204 58.2695 30.714 58.0012 C 25.5871 57.7199 23.2144 78.0883 16.6524 79.0128 C 11.4091 79.7466 7.6982 67.9413 5.9849 61.2337 C 4.5497 53.5984 4.4785 42.6886 7.6012 37.7977 C 9.253 35.2116 16.911 49.5965 16.6524 46.364 C 15.8765 37.2449 2.08 17.1643 3.7221 12.7454 Z "/>
  <path id="ID0.6939080404117703" fill="#FFC16C" stroke="#FE9300" stroke-width="0.29629629850387573" d="M 60.4148 69.2259 C 60.4935 69.2259 60.5647 69.2538 60.6164 69.2987 C 60.668 69.3436 60.7 69.4056 60.7 69.4741 C 60.7 69.5425 60.668 69.6046 60.6164 69.6495 C 60.5647 69.6944 60.4935 69.7222 60.4148 69.7222 C 60.3361 69.7222 60.2649 69.6944 60.2132 69.6495 C 60.1616 69.6046 60.1296 69.5425 60.1296 69.4741 C 60.1296 69.4056 60.1616 69.3436 60.2132 69.2987 C 60.2649 69.2538 60.3361 69.2259 60.4148 69.2259 Z "/>
</svg>