<svg xmlns="http://www.w3.org/2000/svg" xmlns:xlink="http://www.w3.org/1999/xlink" version="1.1" width="85.11146450042725" height="109.91541194915771" viewBox="0.0862889289855957 0.6144533157348633 85.11146450042725 109.91541194915771">
  <defs>
    <radialGradient id="grad_1" cx="0.525" cy="0.23379999999999998" r="0.99606">
      <stop offset="0" stop-color="#FFD499" stop-opacity="1"/>
      <stop offset="1" stop-color="#FF9400" stop-opacity="1"/>
    </radialGradient>
  <radialGradient id="grad_1-.0570902824401855,0,0,4.0570902824401855,-926.95,-632.2" cx="44.567" cy="28.4727" r="89.8998" gradientUnits="userSpaceOnUse">
      <stop offset="0" stop-color="#FFD499" stop-opacity="1"/>
      <stop offset="1" stop-color="#FF9400" stop-opacity="1"/>
    </radialGradient></defs>
  <!-- Exported by Scratch - http://scratch.mit.edu/ -->
  <path id="ID0.17864482337608933" fill="url(#grad_1-.0570902824401855,0,0,4.0570902824401855,-926.95,-632.2)" stroke="#FF9400" stroke-width="8.114180564880371" stroke-linecap="round" d="M 17.5406 23.8315 C 19.1878 19.8758 24.2876 37.0536 30.5233 39.6542 C 33.8258 41.0295 39.2298 36.6073 38.6375 33.1628 C 37.6354 22.8821 22.9974 6.0452 26.4662 4.7632 C 29.935 3.4811 48.906 15.908 55.4744 25.86 C 59.5599 32.0714 49.7661 49.6021 54.0544 48.7826 C 60.3389 47.5736 72.3681 21.235 78.397 21.3972 C 83.3101 21.5392 77.0378 39.8124 77.5856 48.9855 C 78.0927 57.339 82.6447 65.4329 80.6284 73.328 C 79.6466 78.6347 74.3764 86.2174 69.4714 84.6879 C 63.3087 82.7607 64.4487 71.3644 59.3286 66.8367 C 57.4421 65.1651 53.8353 68.3297 53.6487 70.8937 C 51.9894 79.0526 56.1357 87.613 54.2573 96.2506 C 53.2917 100.6322 47.4373 108.9087 44.7231 105.7847 C 38.9377 99.0946 43.8103 77.3161 38.0289 76.9794 C 31.5944 76.6264 25.9063 101.2124 20.3806 103.3505 C 16.9564 104.665 21.1514 90.6558 19.5205 85.0611 C 15.6094 71.6889 3.7749 52.15 4.1522 46.1455 C 4.4119 42.0681 17.922 66.4025 20.3806 62.3739 C 24.3768 55.8257 14.3477 31.686 17.5406 23.8315 Z "/>
</svg>