<svg version="1.1" xmlns="http://www.w3.org/2000/svg" xmlns:xlink="http://www.w3.org/1999/xlink" width="715.00001" height="426.00002" viewBox="0,0,715.00001,426.00002"><defs><linearGradient x1="565.50002" y1="218.50002" x2="565.50002" y2="413.50002" gradientUnits="userSpaceOnUse" id="color-1"><stop offset="0" stop-color="#73cfe6"/><stop offset="1" stop-color="#0fa1cc"/></linearGradient><linearGradient x1="320.00002" y1="271.5" x2="320.00002" y2="-12.5" gradientUnits="userSpaceOnUse" id="color-2"><stop offset="0" stop-color="#000000" stop-opacity="0"/><stop offset="1" stop-color="#000000"/></linearGradient></defs><g transform="translate(35.99998,12.5)"><g data-paper-data="{&quot;isPaintingLayer&quot;:true}" fill-rule="nonzero" stroke-linejoin="miter" stroke-miterlimit="10" stroke-dasharray="" stroke-dashoffset="0" style="mix-blend-mode: normal"><path d="M-7.99999,367.71056v-374h654v374z" fill="#b5daff" stroke="none" stroke-width="0" stroke-linecap="butt"/><path d="M174.00003,395.50002v-216h499v216z" fill="#cdcdcd" stroke="none" stroke-width="0" stroke-linecap="butt"/><path d="M452.00003,413.50002v-195h227v195z" fill="url(#color-1)" stroke="none" stroke-width="0" stroke-linecap="butt"/><path d="M-35.99998,395.50002v-216h499v216z" fill="#e6e6e6" stroke="none" stroke-width="0" stroke-linecap="butt"/><path d="M138.00001,369.50002l-0.5,-47l7,-42l10,-9.5" fill="none" stroke="#9a9a9a" stroke-width="5" stroke-linecap="round"/><path d="M261.00002,392.50002l1.5,-29l7,-12.5" fill="none" stroke="#9a9a9a" stroke-width="5" stroke-linecap="round"/><path d="M300.50002,311.00002l9,6.5l2,17" fill="none" stroke="#9a9a9a" stroke-width="5" stroke-linecap="round"/><path d="M281.47827,365.42817l-87.43808,-48.52404l33.48159,-60.33227l87.43808,48.52404z" fill="#ff0000" stroke="none" stroke-width="NaN" stroke-linecap="butt"/><path d="M193.90707,316.93414l-69.45546,-71.944l49.64136,-47.92426l69.45546,71.944z" fill="#ff0000" stroke="none" stroke-width="NaN" stroke-linecap="butt"/><path d="M186.69347,219.18984c4.90144,-4.34436 9.24572,0.55711 9.24572,0.55711l-0.67361,-0.34883c10.50059,7.44132 16.72209,18.09355 24.93928,27.72811c0,0 4.25022,4.98331 -0.73308,9.23345c-4.98331,4.2502 -9.23345,-0.73308 -9.23345,-0.73308c-7.4529,-8.73841 -13.10165,-18.84768 -22.54663,-25.54093l-1.55537,-1.65013c0,0 -4.3443,-4.90146 0.55716,-9.24577z" fill="#0fa1cc" stroke="none" stroke-width="0.5" stroke-linecap="butt"/><path d="M178.21446,283.24722c-0.4897,0.07645 -1.13562,0.10037 -1.91366,0.07296c-0.11776,0.00212 -0.23592,0.00265 -0.35439,0.00162c-0.82984,-0.0072 -1.64097,-0.09143 -2.42666,-0.24579c-14.26478,-1.82598 -49.41755,-13.33969 -40.45939,-30.87412c7.64727,-14.9684 51.65621,0.663 53.15979,9.75247c1.86093,2.28408 2.96619,5.2061 2.93863,8.38237c-0.05114,5.89533 -3.98895,10.8472 -9.35986,12.44426c-0.49256,0.21889 -1.01867,0.37786 -1.5844,0.46623z" fill="#0fa1cc" stroke="none" stroke-width="0.5" stroke-linecap="butt"/><path d="M133.37639,267.75683c-7.81298,-0.06778 -14.09012,-6.63234 -14.02046,-14.66232c0.06966,-8.02998 6.45977,-14.48462 14.27275,-14.41684c7.81298,0.06778 14.09015,6.63234 14.02048,14.66232c-0.06966,8.02998 -6.4598,14.48462 -14.27278,14.41684z" fill="#ffe896" stroke="none" stroke-width="0" stroke-linecap="butt"/><path d="M238.98431,345.53482l-29.39527,-38.86443l18.80537,-14.2235l29.39524,38.86441z" fill="#3f51b5" stroke="none" stroke-width="0" stroke-linecap="butt"/><path d="M268.83914,308.99496l-45.89373,-16.37952l6.86881,-19.24576l45.89376,16.37952z" fill="#3f51b5" stroke="none" stroke-width="0" stroke-linecap="butt"/><path d="M208.04708,306.02834l-31.72777,-28.19389l27.71448,-31.91962l31.72774,28.19386z" fill="#0fa1cc" stroke="none" stroke-width="0" stroke-linecap="butt"/><path d="M220.05231,316.61732l-13.16107,-11.20153l27.14215,-31.8903l13.16107,11.20151z" fill="#3f51b5" stroke="none" stroke-width="0" stroke-linecap="butt"/><path d="M259.3361,332.22298c3.79678,5.01986 0.13917,14.18373 -8.16959,20.46808c-8.3087,6.28432 -18.12219,7.30939 -21.91897,2.28953c-3.79678,-5.01986 -0.13917,-14.1837 8.16959,-20.46805c8.30875,-6.28435 18.12219,-7.30942 21.91897,-2.28956z" fill="#000000" stroke="none" stroke-width="0" stroke-linecap="butt"/><path d="M287.48495,275.39331c5.92779,2.11563 7.89448,11.78447 4.39274,21.59602c-3.50173,9.8115 -11.14589,16.05023 -17.07368,13.93461c-5.92779,-2.11563 -7.89448,-11.78445 -4.39274,-21.596c3.50173,-9.81155 11.14589,-16.05026 17.07368,-13.93463z" fill="#000000" stroke="none" stroke-width="0" stroke-linecap="butt"/><path d="M208.85384,226.63537c5.25496,17.26521 -4.96039,35.66731 -22.81658,41.10215c-17.8562,5.43484 -36.59153,-4.1556 -41.84652,-21.42086c-5.25496,-17.26521 4.96039,-35.66733 22.81658,-41.10217c17.8562,-5.43484 36.59153,4.15562 41.84652,21.42089z" fill="#ffe896" stroke="none" stroke-width="0" stroke-linecap="butt"/><path d="M187.20484,234.87997c1.45352,4.7755 -0.39788,9.56893 -4.13527,10.70646c-3.73739,1.13754 -7.94536,-1.81162 -9.39887,-6.58712c-1.45352,-4.7755 0.39788,-9.56895 4.13527,-10.70649c3.73739,-1.13754 7.94536,1.81165 9.39887,6.58715z" fill="#000aa7" stroke="none" stroke-width="0" stroke-linecap="butt"/><path d="M144.94619,253.86807c-0.77338,0.12153 -1.5439,0.24328 -2.0166,0.38716c-3.31651,0.70945 -7.12233,2.79474 -10.07128,1.34629c-0.98483,-0.48373 0.447,-6.23586 0.71902,-7.05272c2.28364,-6.85796 4.7492,-15.42433 8.43121,-21.8059c4.06026,0.5394 -6.97979,-2.77546 -8.59843,-6.48537c-0.95865,-2.19718 17.76183,-11.69126 19.69003,-12.27816c2.5101,-0.67904 15.04338,-5.74665 19.81348,-4.71278c-0.19947,-0.92499 -0.43505,-1.78401 -0.74079,-2.30069c-1.26719,-2.14146 -1.94869,-3.66741 -2.01214,-5.13193l-0.02091,0.00637l-1.01935,-3.3491l2.29556,-0.69869c0.39709,-0.68147 0.88931,-1.4248 1.47843,-2.26129c0.55169,0.27097 3.81284,1.87279 4.13985,2.03337c3.71274,2.72665 10.62582,1.0991 14.74301,3.65549c4.59864,2.85531 7.59773,10.66693 10.14495,15.27762c0.08787,0.15122 0.1595,0.3143 0.21234,0.48789c0.04027,0.13228 0.06806,0.26563 0.08399,0.39879c0.1153,0.71894 -0.0092,1.74702 -1.31241,2.46677c-0.05179,0.02934 -0.1049,0.05716 -0.15918,0.08339c-0.59829,0.29678 -1.11996,0.36919 -1.56376,0.31488l0.06133,0.159c-2.84656,4.93364 -4.92939,10.33253 -11.12985,5.5587c-0.46688,-1.26132 -3.68523,-0.76835 -5.3756,-0.60411c0.65216,1.83874 0.92315,4.71352 -1.33675,5.91909c-4.74519,2.53142 -8.54491,0.88265 -14.74736,4.47579c0.14142,0.44194 3.26629,11.90459 2.87077,14.46198c-0.30023,1.94117 -2.38356,5.61398 -4.02518,6.80528c1.06292,1.22745 2.14306,2.59938 2.41589,2.93905c3.51955,4.43974 7.86066,6.38081 5.47634,12.97498c-3.08927,8.54373 -15.86051,-7.7982 -14.83329,-5.80458c0.82326,1.59776 -1.08247,3.19859 -3.51965,4.50168l-2.77211,3.54549c-0.3301,0.43154 -0.80366,0.77243 -1.37702,0.94694c-1.38419,0.4213 -2.82579,-0.28674 -3.21987,-1.58152l-0.40773,-1.33963c-0.00679,-0.02227 -0.01381,-0.04535 -0.02106,-0.06922l-0.38669,-1.27041l0.00576,-0.00176c-0.90233,-3.07889 -2.58649,-9.35656 -1.91492,-11.99823z" fill="#000000" stroke="none" stroke-width="0.5" stroke-linecap="butt"/><path d="M201.6925,230.05961c1.51671,4.98313 0.05316,9.84246 -3.26894,10.85359c-3.32209,1.01113 -7.24471,-2.20882 -8.76141,-7.19194c-1.51671,-4.98313 -0.05316,-9.84246 3.26894,-10.85359c3.32209,-1.01113 7.24471,2.20876 8.76141,7.19194z" fill="#000aa7" stroke="none" stroke-width="0" stroke-linecap="butt"/><path d="M191.55045,250.83964c0.25276,0.83049 -1.22546,2.0161 -3.30179,2.64806c-2.07633,0.63196 -3.9644,0.471 -4.21719,-0.35955c-0.25276,-0.83049 1.22543,-2.0161 3.30176,-2.64806c2.07633,-0.63196 3.96445,-0.47094 4.21721,0.35955z" fill="#000000" stroke="none" stroke-width="0" stroke-linecap="butt"/><path d="M167.85575,233.02559l31.43812,-14.40914l4.25725,7.20457v10.47937l-5.89465,4.91221l-4.58473,-2.29236l-6.54961,-6.87709l1.96488,11.13433l-2.61984,3.60228l-8.84197,2.61984l-8.18701,-3.2748l-7.20457,-9.16945z" fill="#00087f" stroke="#00087f" stroke-width="1" stroke-linecap="round"/><path d="M655.00002,-12.5v284h-670v-284z" data-paper-data="{&quot;index&quot;:null}" fill="url(#color-2)" stroke="#000000" stroke-width="0" stroke-linecap="butt"/><text transform="translate(13.91427,41.355)" font-size="22" xml:space="preserve" fill="#ffffff" fill-rule="nonzero" stroke="none" stroke-width="1" stroke-linecap="butt" stroke-linejoin="miter" stroke-miterlimit="10" stroke-dasharray="" stroke-dashoffset="0" font-family="Sans Serif" font-weight="400" text-anchor="start" style="mix-blend-mode: normal"><tspan x="0" dy="0">After Pixelkid saved Earth from the volcano, he took a nice</tspan><tspan x="0" dy="24.86px">and long vacation. He spent most of his time in the public</tspan><tspan x="0" dy="24.86px">pool, relaxing in the sunlight.</tspan></text></g></g></svg>