<svg version="1.1" xmlns="http://www.w3.org/2000/svg" xmlns:xlink="http://www.w3.org/1999/xlink" width="33.04469" height="43.60025" viewBox="0,0,33.04469,43.60025"><g transform="translate(-304.10903,-152.97786)"><g data-paper-data="{&quot;isPaintingLayer&quot;:true}" fill-rule="nonzero" stroke-linejoin="miter" stroke-miterlimit="10" stroke-dasharray="" stroke-dashoffset="0" style="mix-blend-mode: normal"><path d="M328.43242,161.27858l2.42865,1.5839l1.6895,2.42865l0.52797,3.48458l-0.63356,2.53424l-2.42865,3.37899l-1.47831,3.90696l-0.31678,5.91323l0.73915,4.75171l-0.31678,1.5839l-2.32306,2.11187l-1.26712,0.73915l-12.46003,-0.42237l-1.05593,-0.95034l-0.84475,-1.90068l-0.21119,-2.42865l0.21119,-4.11814l3.80136,-15.94461l1.16153,-4.11814l1.26712,-2.21746l2.63984,-0.95034h5.38527z" fill="#493b29" stroke="#000000" stroke-width="2" stroke-linecap="round"/><path d="M312.44237,166.22243c0,-3.01923 2.44756,-5.46678 5.46679,-5.46678c3.01923,0 5.46679,2.44756 5.46679,5.46678c0,3.01923 -2.44756,5.46679 -5.46679,5.46679c-3.01923,0 -5.46679,-2.44756 -5.46679,-5.46679z" fill="#493b29" stroke="#000000" stroke-width="2" stroke-linecap="butt"/><path d="M319.99792,162.05577c0,-4.4613 3.6166,-8.0779 8.0779,-8.0779c4.4613,0 8.0779,3.6166 8.0779,8.0779c0,4.4613 -3.6166,8.0779 -8.0779,8.0779c-4.4613,0 -8.0779,-3.6166 -8.0779,-8.0779z" fill="#493b29" stroke="#000000" stroke-width="2" stroke-linecap="butt"/><path d="M308.99792,174.66688c0,-2.77376 2.24858,-5.02235 5.02234,-5.02235c2.77377,0 5.02235,2.24858 5.02235,5.02235c0,2.77376 -2.24858,5.02235 -5.02235,5.02235c-2.77377,0 -5.02234,-2.24858 -5.02234,-5.02235z" fill="#493b29" stroke="#000000" stroke-width="2" stroke-linecap="butt"/><path d="M305.10903,184.61132c0,-4.4613 3.6166,-8.0779 8.0779,-8.0779c4.4613,0 8.0779,3.6166 8.0779,8.0779c0,4.4613 -3.6166,8.0779 -8.0779,8.0779c-4.4613,0 -8.0779,-3.6166 -8.0779,-8.0779z" fill="#493b29" stroke="#000000" stroke-width="2" stroke-linecap="butt"/><path d="M318.10903,175.77799c0,-3.08059 2.49731,-5.5779 5.5779,-5.5779c3.08059,0 5.5779,2.49731 5.5779,5.5779c0,3.08059 -2.49731,5.5779 -5.5779,5.5779c-3.08059,0 -5.5779,-2.49731 -5.5779,-5.5779z" fill="#493b29" stroke="#000000" stroke-width="2" stroke-linecap="butt"/><path d="M313.55348,186.55577c0,-4.9829 4.03945,-9.02235 9.02235,-9.02235c4.9829,0 9.02234,4.03945 9.02234,9.02235c0,4.9829 -4.03945,9.02235 -9.02234,9.02235c-4.9829,0 -9.02235,-4.03945 -9.02235,-9.02235z" fill="#493b29" stroke="#000000" stroke-width="2" stroke-linecap="butt"/><path d="M327.50365,164.85602c0,1.28587 -1.20142,2.32828 -2.68344,2.32828c-1.48203,0 -2.68344,-1.04241 -2.68344,-2.32828c0,-1.28587 1.20142,-2.32828 2.68344,-2.32828c1.48203,0 2.68344,1.04241 2.68344,2.32828z" fill="#000000" stroke="none" stroke-width="0" stroke-linecap="butt"/><path d="M334.87053,161.35029c0,1.28588 -1.20141,2.32828 -2.68344,2.32828c-1.48203,0 -2.68345,-1.04241 -2.68345,-2.32828c0,-1.28588 1.20142,-2.32828 2.68345,-2.32828c1.48203,0 2.68344,1.04241 2.68344,2.32828z" fill="#000000" stroke="none" stroke-width="0" stroke-linecap="butt"/><path d="M326.38698,164.81156c0,0.73359 -0.68541,1.32828 -1.5309,1.32828c-0.8455,0 -1.5309,-0.59469 -1.5309,-1.32828c0,-0.73359 0.68541,-1.32828 1.5309,-1.32828c0.8455,0 1.5309,0.59469 1.5309,1.32828z" fill="#ff0000" stroke="none" stroke-width="0" stroke-linecap="butt"/><path d="M333.27053,161.35027c0,0.45745 -0.4274,0.82828 -0.95463,0.82828c-0.52723,0 -0.95463,-0.37083 -0.95463,-0.82828c0,-0.45745 0.4274,-0.82828 0.95463,-0.82828c0.52723,0 0.95463,0.37083 0.95463,0.82828z" fill="#ff0000" stroke="none" stroke-width="0" stroke-linecap="butt"/></g></g></svg>