<svg version="1.1" xmlns="http://www.w3.org/2000/svg" xmlns:xlink="http://www.w3.org/1999/xlink" width="713" height="309.29854" viewBox="0,0,713,309.29854"><g transform="translate(25,-109.44739)"><g data-paper-data="{&quot;isPaintingLayer&quot;:true}" fill="#4c2915" fill-rule="nonzero" stroke-width="2" stroke-linejoin="miter" stroke-miterlimit="10" stroke-dasharray="" stroke-dashoffset="0" style="mix-blend-mode: normal"><path d="M561.33333,417.74593v-146.33333h125.66667v146.33333z" stroke="#000000" stroke-linecap="butt"/><path d="M-24,411.5v-142.5h109.66667v142.5z" stroke="#000000" stroke-linecap="butt"/><path d="M73,269h185l47,-10l36,-27l31,-48l16,-36l10,-32v285l44,4v-289l15,40l23,55l27,34l21,15l24,7l17,4l-3,136l-499,-3z" stroke="#000000" stroke-linecap="round"/><path d="M566.5,272.67926l5.6,1.2l0.6,79.4l-3.4,57.96667l-18.8,-19l1.4,-67.8z" stroke="#4c2915" stroke-linecap="round"/><path d="M60.25,406.62296v-135.7h23.5v135.7z" stroke="#4c2915" stroke-linecap="butt"/></g></g></svg>