<svg version="1.1" xmlns="http://www.w3.org/2000/svg" xmlns:xlink="http://www.w3.org/1999/xlink" width="32.05756" height="37.76259" viewBox="0,0,32.05756,37.76259"><g transform="translate(-309.87791,-143.35506)"><g data-paper-data="{&quot;isPaintingLayer&quot;:true}" fill-rule="nonzero" stroke="#000000" stroke-linejoin="miter" stroke-miterlimit="10" stroke-dasharray="" stroke-dashoffset="0" style="mix-blend-mode: normal"><path d="M327.39484,147.31168h-6.24087l-3.05925,0.95034l-1.46844,2.21747l-1.34607,4.11814l-4.40532,15.94461l-0.24474,4.11814l0.24474,2.42865l0.97896,1.90068l1.2237,0.95034l14.43966,0.42237l1.46844,-0.73915l2.69214,-2.11187l0.36711,-1.5839l-0.85659,-4.75171l0.36711,-5.91323l1.71318,-3.90696l2.81451,-3.37899l0.73422,-2.53424l-0.61185,-3.48458l-1.95792,-2.42865l-2.81451,-1.58391z" fill="#000000" stroke-width="1.5" stroke-linecap="round"/><path d="M324.77967,152.43296c0,-4.4613 3.6166,-8.0779 8.0779,-8.0779c4.4613,0 8.0779,3.6166 8.0779,8.0779c0,4.4613 -3.6166,8.07789 -8.0779,8.07789c-4.4613,0 -8.0779,-3.61659 -8.0779,-8.07789z" fill="#ffffff" stroke-width="2" stroke-linecap="butt"/></g></g></svg>