<svg version="1.1" xmlns="http://www.w3.org/2000/svg" xmlns:xlink="http://www.w3.org/1999/xlink" width="24.29979" height="35.24337" viewBox="0,0,24.29979,35.24337"><g transform="translate(-306.66195,-162.64892)"><g data-paper-data="{&quot;isPaintingLayer&quot;:true}" fill="#ff0000" fill-rule="nonzero" stroke-linejoin="miter" stroke-miterlimit="10" stroke-dasharray="" stroke-dashoffset="0" style="mix-blend-mode: normal"><path d="M327.20254,182.38751c-0.08662,0.03799 -0.20464,0.07393 -0.34952,0.10683c-0.02163,0.00614 -0.0434,0.01201 -0.06531,0.0176c-0.15346,0.03916 -0.30724,0.06321 -0.45974,0.07306c-2.72107,0.35916 -9.76885,-0.04989 -8.97161,-3.72226c0.68058,-3.13494 9.56332,-2.39828 10.28427,-0.79458c0.45481,0.33062 0.80133,0.81583 0.95123,1.40321c0.27823,1.09023 -0.20669,2.19604 -1.11973,2.75278c-0.0802,0.06443 -0.16951,0.11942 -0.26959,0.16333z" data-paper-data="{&quot;origRot&quot;:0}" stroke="none" stroke-width="0.5" stroke-linecap="butt"/><path d="M318.1737,181.71732c-1.44486,0.36873 -2.92337,-0.53617 -3.30235,-2.02116c-0.37898,-1.48499 0.48508,-2.98774 1.92994,-3.35647c1.44486,-0.36873 2.92337,0.53617 3.30236,2.02116c0.37898,1.48499 -0.48507,2.98774 -1.92994,3.35647z" data-paper-data="{&quot;origRot&quot;:0}" stroke="none" stroke-width="0" stroke-linecap="butt"/><path d="M322.77155,165.9075c-0.06651,1.73843 -1.3955,3.09891 -2.96836,3.03873c-1.57286,-0.06018 -2.79399,-1.51824 -2.72747,-3.25666c0.06651,-1.73843 1.39549,-3.09891 2.96835,-3.03873c1.57286,0.06018 2.79399,1.51824 2.72748,3.25666z" stroke="none" stroke-width="0" stroke-linecap="butt"/><path d="M330.77771,172.43826c-0.14401,3.76375 -3.14641,6.70446 -6.70604,6.56826c-3.55962,-0.1362 -6.32854,-3.29772 -6.18453,-7.06148c0.14401,-3.76374 3.14641,-6.70448 6.70603,-6.56827c3.55962,0.1362 6.32855,3.29773 6.18454,7.06149z" stroke="none" stroke-width="0" stroke-linecap="butt"/><path d="M324.08846,175.95216c-1.07617,-0.04118 -1.8985,-1.38317 -1.83674,-2.99742c0.06176,-1.61425 0.98425,-2.88948 2.06041,-2.8483c1.07617,0.04118 1.8985,1.38317 1.83674,2.99742c-0.06176,1.61426 -0.98424,2.88948 -2.06041,2.8483z" stroke="none" stroke-width="0" stroke-linecap="butt"/><path d="M327.98474,175.81136c-0.86921,-0.03326 -1.52666,-1.29333 -1.46846,-2.81445c0.0582,-1.52113 0.81001,-2.72728 1.67923,-2.69402c0.86921,0.03326 1.52667,1.29334 1.46847,2.81446c-0.0582,1.52113 -0.81002,2.72727 -1.67923,2.69401z" stroke="none" stroke-width="0" stroke-linecap="butt"/><path d="M326.3362,173.15454c-0.03643,0.952 -0.66992,1.70062 -1.41496,1.67212c-0.74505,-0.0285 -1.31949,-0.82336 -1.28306,-1.77535c0.03643,-0.952 0.66992,-1.70063 1.41496,-1.67212c0.74505,0.0285 1.31949,0.82336 1.28306,1.77536z" stroke="none" stroke-width="0" stroke-linecap="butt"/><path d="M317.52901,173.93687c-0.14706,-0.02643 -0.29362,-0.05265 -0.38785,-0.05625c-0.6424,-0.07939 -1.45902,0.05873 -1.90024,-0.38681c-0.14735,-0.1488 0.47042,-1.09653 0.57054,-1.22682c0.8405,-1.0939 1.82059,-2.48448 2.88347,-3.40506c0.69844,0.35108 -1.08512,-0.93681 -1.14508,-1.70697c-0.03551,-0.45613 3.93371,-0.99787 4.3181,-0.98317c0.49507,0.03447 3.0719,-0.09587 3.86744,0.38875c0.02185,-0.17926 0.03307,-0.34889 0.01024,-0.46117c-0.09463,-0.46537 -0.12214,-0.78313 -0.04203,-1.05119l-0.00417,-0.00016l0.02555,-0.66764l0.45762,0.0175c0.11421,-0.09806 0.24943,-0.20133 0.40796,-0.31534c0.08254,0.08335 0.57047,0.57605 0.61939,0.62545c0.49904,0.72377 1.84738,0.86244 2.43,1.58078c0.65075,0.80235 0.70323,2.39844 0.87433,3.38908c0.00639,0.03276 0.00912,0.06664 0.0078,0.10125c-0.00101,0.02637 -0.00434,0.05215 -0.00979,0.07717c-0.02415,0.13684 -0.11087,0.31445 -0.39086,0.36277c-0.01117,0.00206 -0.02249,0.00375 -0.03392,0.00508c-0.12644,0.01612 -0.22503,-0.00343 -0.30167,-0.04097l0.00112,0.0325c-0.82171,0.7117 -1.53479,1.55505 -2.35446,0.30662c-0.00534,-0.25663 -0.61649,-0.36892 -0.93157,-0.44497c0.00266,0.37233 -0.12819,0.90766 -0.61106,0.98378c-1.01391,0.15984 -1.59602,-0.37499 -2.93908,-0.11479c-0.00212,0.08854 -0.1552,2.35085 -0.38639,2.78728c-0.17548,0.33128 -0.78075,0.86333 -1.15124,0.97553c0.11494,0.28779 0.22396,0.6027 0.25192,0.681c0.35712,1.0206 1.01857,1.64199 0.17641,2.68202c-1.09115,1.34751 -2.37253,-2.39766 -2.31193,-1.97396c0.04857,0.33957 -0.39515,0.50911 -0.91609,0.59174l-0.7215,0.46605c-0.0865,0.05719 -0.1932,0.08905 -0.3075,0.08468c-0.27594,-0.01056 -0.49163,-0.22836 -0.48176,-0.48647l0.01022,-0.26705c0.00017,-0.00444 0.00034,-0.00905 0.00052,-0.0138l0.00969,-0.25325l0.00115,0.00005c0.02976,-0.6116 0.11849,-1.84889 0.40472,-2.28326z" stroke="none" stroke-width="0.5" stroke-linecap="butt"/><path d="M327.73965,162.74297c1.4073,0.05384 2.5032,1.27188 2.44777,2.72057c-0.05543,1.44869 -1.24121,2.57943 -2.6485,2.52558c-1.40729,-0.05384 -2.5032,-1.27188 -2.44777,-2.72057c0.05543,-1.44869 1.24121,-2.57943 2.6485,-2.52558z" stroke="none" stroke-width="0" stroke-linecap="butt"/><path d="M329.24998,173.19097c-0.03801,0.99338 -0.60568,1.77814 -1.26794,1.7528c-0.66226,-0.02534 -1.16832,-0.85118 -1.13031,-1.84456c0.03801,-0.99338 0.60569,-1.77815 1.26794,-1.75281c0.66226,0.02534 1.16831,0.85117 1.1303,1.84457z" stroke="none" stroke-width="0" stroke-linecap="butt"/><path d="M320.4185,171.45747c-0.11561,3.02155 -1.41728,5.42478 -2.90736,5.36776c-1.49008,-0.05702 -2.60431,-2.55268 -2.4887,-5.57423c0.11561,-3.02155 1.41728,-5.42478 2.90736,-5.36776c1.49008,0.05702 2.60431,2.55268 2.4887,5.57423z" stroke="none" stroke-width="0" stroke-linecap="butt"/><path d="M329.98318,165.3674c-0.04361,1.13976 -0.9932,2.02872 -2.12095,1.98557c-1.12775,-0.04315 -2.00664,-1.00207 -1.96303,-2.14183c0.04361,-1.13976 0.9932,-2.02873 2.12095,-1.98558c1.12775,0.04315 2.00664,1.00208 1.96303,2.14184z" stroke="none" stroke-width="0" stroke-linecap="butt"/><path d="M330.96103,167.64689c-0.05543,1.44869 -3.35512,2.49855 -7.37005,2.34493c-4.01493,-0.15362 -7.22474,-1.45254 -7.16931,-2.90123c0.05543,-1.44869 3.35512,-2.49855 7.37005,-2.34493c4.01493,0.15362 7.22474,1.45254 7.16931,2.90123z" stroke="none" stroke-width="0" stroke-linecap="butt"/><path d="M326.12215,176.30408c-0.00633,0.16556 -0.34701,0.28694 -0.76092,0.27111c-0.41391,-0.01584 -0.74431,-0.16288 -0.73798,-0.32845c0.00633,-0.16556 0.34701,-0.28694 0.76092,-0.27111c0.41391,0.01584 0.74432,0.16289 0.73798,0.32845z" stroke="none" stroke-width="0" stroke-linecap="butt"/><path d="M319.19227,180.42062c-0.08528,0.04092 -0.20201,0.08084 -0.34569,0.11866c-0.0214,0.00687 -0.04296,0.01348 -0.06467,0.01981c-0.15204,0.04436 -0.30491,0.07361 -0.45697,0.08865c-2.70727,0.45148 -9.7649,0.28232 -9.093,-3.41502c0.57358,-3.15627 9.47624,-2.7221 10.25131,-1.14384c0.46579,0.31497 0.82861,0.78811 0.9984,1.37007c0.31514,1.08014 -0.1319,2.2018 -1.02549,2.78928c-0.07796,0.06712 -0.16535,0.12512 -0.26387,0.17241z" data-paper-data="{&quot;origRot&quot;:0}" stroke="none" stroke-width="0.5" stroke-linecap="butt"/><path d="M310.14586,180.05785c-1.43149,0.41765 -2.93991,-0.43645 -3.36917,-1.9077c-0.42926,-1.47125 0.38321,-3.0025 1.8147,-3.42015c1.43149,-0.41765 2.93991,0.43645 3.36917,1.90769c0.42926,1.47125 -0.38321,3.00251 -1.8147,3.42016z" data-paper-data="{&quot;origRot&quot;:0}" stroke="none" stroke-width="0" stroke-linecap="butt"/><path d="M319.62805,186.56085l2.13173,-7.81445l2.60482,0.71058l-2.13173,7.81446z" stroke="none" stroke-width="0" stroke-linecap="butt"/><path d="M318.4447,175.80397l3.2756,3.28724l-2.11854,6.99603l-3.76252,-0.99785z" stroke="#ff0000" stroke-width="0.5" stroke-linecap="round"/><path d="M327.69309,178.65467l-2.81592,9.18263l-2.74953,-0.75006l2.09225,-7.66975z" stroke="#ff0000" stroke-width="0.5" stroke-linecap="round"/><path d="M328.35024,168.12271c-0.03469,0.90666 -1.22922,1.59702 -2.66806,1.54196c-1.43883,-0.05506 -2.57712,-0.83467 -2.54243,-1.74133c0.03469,-0.90666 1.22922,-1.59703 2.66805,-1.54198c1.43883,0.05506 2.57713,0.83469 2.54244,1.74134z" stroke="none" stroke-width="0" stroke-linecap="butt"/><path d="M326.75501,166.8465c-0.01358,0.35478 -0.32817,0.63077 -0.70265,0.61644c-0.37448,-0.01433 -0.66707,-0.31356 -0.65349,-0.66834c0.01358,-0.35478 0.32817,-0.63077 0.70265,-0.61644c0.37448,0.01433 0.66707,0.31356 0.65349,0.66834z" stroke="none" stroke-width="0" stroke-linecap="butt"/><path d="M324.38324,166.16837c-0.0124,0.32394 -0.32394,0.575 -0.69586,0.56077c-0.37192,-0.01423 -0.66337,-0.28836 -0.65098,-0.61229c0.0124,-0.32394 0.32394,-0.575 0.69586,-0.56077c0.37192,0.01423 0.66337,0.28836 0.65098,0.61229z" stroke="none" stroke-width="0" stroke-linecap="butt"/><path d="M327.99762,166.08911c-0.0124,0.32393 -0.32395,0.575 -0.69586,0.56077c-0.37192,-0.01423 -0.66337,-0.28836 -0.65098,-0.6123c0.0124,-0.32393 0.32394,-0.57498 0.69585,-0.56075c0.37192,0.01423 0.66338,0.28836 0.65098,0.61229z" stroke="none" stroke-width="0" stroke-linecap="butt"/><path d="M321.62816,165.3958c-0.04361,1.13976 -0.9932,2.02873 -2.12095,1.98558c-1.12775,-0.04315 -2.00664,-1.00208 -1.96303,-2.14184c0.04361,-1.13976 0.9932,-2.02873 2.12095,-1.98558c1.12775,0.04315 2.00664,1.00208 1.96303,2.14184z" stroke="none" stroke-width="0" stroke-linecap="butt"/><path d="M327.41578,191.07262c0,3.21411 -3.44371,5.81967 -7.69175,5.81967c-4.24803,0 -7.69175,-2.60556 -7.69175,-5.81967c0,-3.21411 3.44371,-5.81967 7.69175,-5.81967c4.24803,0 7.69175,2.60556 7.69175,5.81967z" data-paper-data="{&quot;origPos&quot;:null}" stroke="#ff0000" stroke-width="2" stroke-linecap="butt"/></g></g></svg>