<svg version="1.1" xmlns="http://www.w3.org/2000/svg" xmlns:xlink="http://www.w3.org/1999/xlink" width="129.60044" height="239.76086" viewBox="0,0,129.60044,239.76086"><g transform="translate(-255.19198,-59.29627)"><g data-paper-data="{&quot;isPaintingLayer&quot;:true}" fill-rule="nonzero" stroke-linejoin="miter" stroke-miterlimit="10" stroke-dasharray="" stroke-dashoffset="0" style="mix-blend-mode: normal"><path d="M307.375,168.81872l-8.75,-7.75l0.25,-33.25h41l0.25,35.25l-7,6.25z" fill="#c0ccc6" stroke="#6f7571" stroke-width="2.5" stroke-linecap="round"/><path d="M280.375,168.56872c0,-3.58985 2.91015,-6.5 6.5,-6.5c3.58985,0 6.5,2.91015 6.5,6.5c0,3.58985 -2.91015,6.5 -6.5,6.5c-3.58985,0 -6.5,-2.91015 -6.5,-6.5z" fill="#912d0f" stroke="none" stroke-width="0" stroke-linecap="butt"/><path d="M281.375,216.06872v-46l4,6.5l7.25,-8.5l0.25,37.5z" fill="#c0ccc6" stroke="#6f7571" stroke-width="2.5" stroke-linecap="round"/><path d="M346.12501,168.56872c0,-3.58985 2.91015,-6.5 6.5,-6.5c3.58985,0 6.5,2.91015 6.5,6.5c0,3.58985 -2.91015,6.5 -6.5,6.5c-3.58985,0 -6.5,-2.91015 -6.5,-6.5z" fill="#912d0f" stroke="none" stroke-width="0" stroke-linecap="butt"/><path d="M346.62501,205.56872l0.25,-37.5l7.25,8.5l4,-6.5v46z" data-paper-data="{&quot;index&quot;:null}" fill="#c0ccc6" stroke="#6f7571" stroke-width="2.5" stroke-linecap="round"/><path d="M340.125,287.06872c0,6.07513 -8.89834,11 -19.875,11c-10.97666,0 -19.875,-4.92487 -19.875,-11c0,-6.07513 8.89834,-11 19.875,-11c10.97666,0 19.875,4.92487 19.875,11z" fill="#ff0000" stroke="none" stroke-width="0" stroke-linecap="butt"/><path d="M279.875,287.44372c0,-3.1066 2.5184,-5.625 5.625,-5.625c3.1066,0 5.625,2.5184 5.625,5.625c0,3.1066 -2.5184,5.625 -5.625,5.625c-3.1066,0 -5.625,-2.5184 -5.625,-5.625z" fill="#ff0000" stroke="none" stroke-width="0" stroke-linecap="butt"/><path d="M347.37501,287.44372c0,-3.1066 2.5184,-5.625 5.625,-5.625c3.1066,0 5.625,2.5184 5.625,5.625c0,3.1066 -2.5184,5.625 -5.625,5.625c-3.1066,0 -5.625,-2.5184 -5.625,-5.625z" fill="#ff0000" stroke="none" stroke-width="0" stroke-linecap="butt"/><path d="M358.125,286.31872l-9.75,0.25l-4.75,-11.5l-5.25,12h-37.25l-3.75,-11.75l-6,10.11257l-10,0.5l-24.5,11l13.5,-70l35.5,-52l1,-89l12,-24l14.25,24.63742l0.5,88.75l36.25,53.25l13.25,67.75z" fill="#c0ccc6" stroke="#6f7571" stroke-width="2.5" stroke-linecap="round"/><path d="M333.375,209.06872c0,23.33403 -6.6038,42.25 -14.75,42.25c-8.1462,0 -14.75,-18.91597 -14.75,-42.25c0,-23.33403 6.6038,-42.25 14.75,-42.25c8.1462,0 14.75,18.91597 14.75,42.25z" fill="#6112ff" stroke="#6f7571" stroke-width="5" stroke-linecap="butt"/><path d="M270.625,244.56872l28,0.25l9.5,-16.25l22,-0.25l10,15.5l30.25,-0.25" fill="none" stroke="#912d0f" stroke-width="5" stroke-linecap="round"/></g></g></svg>