<svg version="1.1" xmlns="http://www.w3.org/2000/svg" xmlns:xlink="http://www.w3.org/1999/xlink" width="31.21225" height="38.08104" viewBox="0,0,31.21225,38.08104"><g transform="translate(-309.87848,-143.03828)"><g data-paper-data="{&quot;isPaintingLayer&quot;:true}" fill-rule="nonzero" stroke-linejoin="miter" stroke-miterlimit="10" stroke-dasharray="" stroke-dashoffset="0" style="mix-blend-mode: normal"><path d="M328.58103,147.94523l2.42865,1.58391l1.6895,2.42865l0.52797,3.48458l-0.63356,2.53424l-2.42865,3.37899l-1.47831,3.90696l-0.31678,5.91323l0.73916,4.75171l-0.31678,1.5839l-2.32305,2.11187l-1.26713,0.73915l-12.46002,-0.42237l-1.05594,-0.95034l-0.84475,-1.90068l-0.21119,-2.42865l0.21119,-4.11814l3.80136,-15.94461l1.16153,-4.11814l1.26712,-2.21747l2.63984,-0.95034h5.38527z" fill="#000000" stroke="#000000" stroke-width="1.5" stroke-linecap="round"/><path d="M323.93493,152.11618c0,-4.4613 3.6166,-8.0779 8.0779,-8.0779c4.4613,0 8.0779,3.6166 8.0779,8.0779c0,4.4613 -3.6166,8.07789 -8.0779,8.07789c-4.4613,0 -8.0779,-3.61659 -8.0779,-8.07789z" fill="#ffffff" stroke="#000000" stroke-width="2" stroke-linecap="butt"/><path d="M334.2299,152.6735c0,1.28588 -1.20141,2.32828 -2.68344,2.32828c-1.48203,0 -2.68345,-1.04241 -2.68345,-2.32828c0,-1.28588 1.20142,-2.32828 2.68345,-2.32828c1.48203,0 2.68344,1.04241 2.68344,2.32828z" fill="#ff0000" stroke="none" stroke-width="0" stroke-linecap="butt"/><path d="M338.9142,151.99091c0,1.28588 -1.20141,2.32828 -2.68344,2.32828c-1.48203,0 -2.68345,-1.04241 -2.68345,-2.32828c0,-1.28588 1.20142,-2.32828 2.68345,-2.32828c1.48203,0 2.68344,1.04241 2.68344,2.32828z" fill="#ff0000" stroke="none" stroke-width="0" stroke-linecap="butt"/></g></g></svg>