<svg version="1.1" xmlns="http://www.w3.org/2000/svg" xmlns:xlink="http://www.w3.org/1999/xlink" width="23.01568" height="50.36381" viewBox="0,0,23.01568,50.36381"><defs><radialGradient cx="314.07857" cy="165.00714" r="3.15" gradientUnits="userSpaceOnUse" id="color-1"><stop offset="0" stop-color="#ffffff"/><stop offset="1" stop-color="#ffffff" stop-opacity="0"/></radialGradient><radialGradient cx="318.72857" cy="171.22701" r="6.81986" gradientUnits="userSpaceOnUse" id="color-2"><stop offset="0" stop-color="#ffffff"/><stop offset="1" stop-color="#ffffff" stop-opacity="0"/></radialGradient><radialGradient cx="317.6942" cy="170.27485" r="7.23735" gradientUnits="userSpaceOnUse" id="color-3"><stop offset="0" stop-color="#ffffff"/><stop offset="1" stop-color="#ffffff" stop-opacity="0"/></radialGradient><radialGradient cx="321.77205" cy="164.27997" r="2.625" gradientUnits="userSpaceOnUse" id="color-4"><stop offset="0" stop-color="#ffffff"/><stop offset="1" stop-color="#ffffff" stop-opacity="0"/></radialGradient><radialGradient cx="313.23355" cy="171.62368" r="5.475" gradientUnits="userSpaceOnUse" id="color-5"><stop offset="0" stop-color="#ffffff"/><stop offset="1" stop-color="#ffffff" stop-opacity="0"/></radialGradient><radialGradient cx="322.0708" cy="164.19169" r="2.06522" gradientUnits="userSpaceOnUse" id="color-6"><stop offset="0" stop-color="#ffffff"/><stop offset="1" stop-color="#ffffff" stop-opacity="0"/></radialGradient><radialGradient cx="318.3939" cy="166.43213" r="6.78467" gradientUnits="userSpaceOnUse" id="color-7"><stop offset="0" stop-color="#ffffff"/><stop offset="1" stop-color="#ffffff" stop-opacity="0"/></radialGradient><radialGradient cx="319.92422" cy="175.26801" r="1.25" gradientUnits="userSpaceOnUse" id="color-8"><stop offset="0" stop-color="#ffffff"/><stop offset="1" stop-color="#ffffff" stop-opacity="0"/></radialGradient><radialGradient cx="317.06616" cy="189.7" r="4.65" gradientUnits="userSpaceOnUse" id="color-9"><stop offset="0" stop-color="#ffffff"/><stop offset="1" stop-color="#ffffff" stop-opacity="0"/></radialGradient><radialGradient cx="318.17047" cy="195.325" r="3.96775" gradientUnits="userSpaceOnUse" id="color-10"><stop offset="0" stop-color="#ffffff"/><stop offset="1" stop-color="#ffffff" stop-opacity="0"/></radialGradient><radialGradient cx="317.67236" cy="180.7" r="4.95" gradientUnits="userSpaceOnUse" id="color-11"><stop offset="0" stop-color="#ffffff"/><stop offset="1" stop-color="#ffffff" stop-opacity="0"/></radialGradient><radialGradient cx="319.98073" cy="167.00743" r="2.60715" gradientUnits="userSpaceOnUse" id="color-12"><stop offset="0" stop-color="#ffffff"/><stop offset="1" stop-color="#ffffff" stop-opacity="0"/></radialGradient><radialGradient cx="320.26645" cy="165.79314" r="1.25" gradientUnits="userSpaceOnUse" id="color-13"><stop offset="0" stop-color="#ffffff"/><stop offset="1" stop-color="#ffffff" stop-opacity="0"/></radialGradient><radialGradient cx="317.87515" cy="165.20619" r="1.25" gradientUnits="userSpaceOnUse" id="color-14"><stop offset="0" stop-color="#ffffff"/><stop offset="1" stop-color="#ffffff" stop-opacity="0"/></radialGradient><radialGradient cx="321.48385" cy="164.98881" r="1.25" gradientUnits="userSpaceOnUse" id="color-15"><stop offset="0" stop-color="#ffffff"/><stop offset="1" stop-color="#ffffff" stop-opacity="0"/></radialGradient><radialGradient cx="313.72297" cy="164.53952" r="2.06522" gradientUnits="userSpaceOnUse" id="color-16"><stop offset="0" stop-color="#ffffff"/><stop offset="1" stop-color="#ffffff" stop-opacity="0"/></radialGradient><radialGradient cx="318.60091" cy="172.11115" r="1.87961" gradientUnits="userSpaceOnUse" id="color-17"><stop offset="0" stop-color="#ffffff"/><stop offset="1" stop-color="#ffffff" stop-opacity="0"/></radialGradient><radialGradient cx="322.85046" cy="171.90684" r="1.471" gradientUnits="userSpaceOnUse" id="color-18"><stop offset="0" stop-color="#ffffff"/><stop offset="1" stop-color="#ffffff" stop-opacity="0"/></radialGradient><radialGradient cx="316.05436" cy="180.72212" r="5.6649" gradientUnits="userSpaceOnUse" id="color-19"><stop offset="0" stop-color="#ffffff"/><stop offset="1" stop-color="#ffffff" stop-opacity="0"/></radialGradient><radialGradient cx="315.06404" cy="186.16905" r="2.77272" gradientUnits="userSpaceOnUse" id="color-20"><stop offset="0" stop-color="#ffffff"/><stop offset="1" stop-color="#ffffff" stop-opacity="0"/></radialGradient></defs><g transform="translate(-306.78355,-150.88618)"><g data-paper-data="{&quot;isPaintingLayer&quot;:true}" fill="#ffffff" fill-rule="nonzero" stroke-width="7.5" stroke-linejoin="miter" stroke-miterlimit="10" stroke-dasharray="" stroke-dashoffset="0" style="mix-blend-mode: normal"><path d="M316.92857,165.00714c0,1.7397 -1.27599,3.15 -2.85,3.15c-1.57401,0 -2.85,-1.4103 -2.85,-3.15c0,-1.7397 1.27599,-3.15 2.85,-3.15c1.57401,0 2.85,1.4103 2.85,3.15z" data-paper-data="{&quot;origPos&quot;:null}" stroke="url(#color-1)" stroke-linecap="butt"/><path d="M325.17857,171.22701c0,3.7665 -2.88777,6.81986 -6.45,6.81986c-3.56223,0 -6.45,-3.05335 -6.45,-6.81986c0,-3.7665 2.88777,-6.81987 6.45,-6.81987c3.56223,0 6.45,3.05336 6.45,6.81987z" data-paper-data="{&quot;origPos&quot;:null}" stroke="url(#color-2)" stroke-linecap="butt"/><path d="M312.75765,173.23107c-0.13918,-0.02079 -0.27789,-0.04138 -0.36659,-0.04138c-0.6067,-0.05477 -1.36935,0.11447 -1.80012,-0.31387c-0.14386,-0.14305 0.40275,-1.11371 0.49217,-1.24774c0.75072,-1.12523 1.62198,-2.55227 2.58796,-3.51281c0.66915,0.32412 -1.05369,-0.89463 -1.13776,-1.66194c-0.04979,-0.45444 3.66176,-1.14755 4.02361,-1.14755c0.4666,0.01551 2.88411,-0.21325 3.64933,0.2406c0.01409,-0.17997 0.01854,-0.3499 -0.00696,-0.46123c-0.10569,-0.46141 -0.14297,-0.77789 -0.07731,-1.04881h-0.00392v-0.66813h0.43078c0.10382,-0.10236 0.22722,-0.21072 0.37213,-0.33071c0.08059,0.08013 0.55696,0.55382 0.60472,0.60131c0.49513,0.70416 1.76753,0.79117 2.34103,1.48672c0.64055,0.77688 0.74729,2.3698 0.94375,3.35318c0.00719,0.03249 0.01097,0.06625 0.01097,0.10088c0,0.02639 -0.0022,0.05228 -0.00642,0.07748c-0.01778,0.13767 -0.0929,0.31846 -0.35435,0.37745c-0.01043,0.00248 -0.02101,0.00461 -0.0317,0.00638c-0.11827,0.02094 -0.21165,0.00517 -0.28503,-0.02941l0.00222,0.03244c-0.7468,0.7426 -1.38676,1.61259 -2.20213,0.39641c-0.01425,-0.25624 -0.59277,-0.34508 -0.89168,-0.40903c0.01589,0.37196 -0.08785,0.9119 -0.53901,1.00643c-0.94732,0.19849 -1.51373,-0.3137 -2.76683,-0.00234c0.00119,0.08855 -0.06133,2.35507 -0.26295,2.80002c-0.15304,0.33774 -0.70285,0.89255 -1.04707,1.01883c0.11839,0.28318 0.23219,0.59369 0.26129,0.67087c0.3724,1.0062 1.01651,1.60185 0.26229,2.67332c-0.9772,1.38825 -2.31639,-2.3052 -2.24418,-1.88412c0.05787,0.33747 -0.35312,0.52385 -0.83983,0.62633l-0.66145,0.49329c-0.07925,0.06045 -0.17841,0.09637 -0.286,0.09637c-0.25976,0 -0.47034,-0.20939 -0.47034,-0.46769v-0.26725c0,-0.00444 0,-0.00905 0,-0.01381v-0.25344h0.00108c0.00597,-0.61229 0.04488,-1.85207 0.29832,-2.29707z" data-paper-data="{&quot;origPos&quot;:null}" stroke="url(#color-3)" stroke-linecap="butt"/><path d="M321.77205,161.65497c1.40833,0 2.55,1.17525 2.55,2.625c0,1.44975 -1.14168,2.625 -2.55,2.625c-1.40832,0 -2.55,-1.17525 -2.55,-2.625c0,-1.44975 1.14168,-2.625 2.55,-2.625z" data-paper-data="{&quot;origPos&quot;:null}" stroke="url(#color-4)" stroke-linecap="butt"/><path d="M315.93355,171.62368c0,3.02376 -1.20883,5.475 -2.7,5.475c-1.49117,0 -2.7,-2.45124 -2.7,-5.475c0,-3.02376 1.20883,-5.475 2.7,-5.475c1.49117,0 2.7,2.45124 2.7,5.475z" data-paper-data="{&quot;origPos&quot;:null}" stroke="url(#color-5)" stroke-linecap="butt"/><path d="M324.11428,164.1917c0,1.14059 -0.9149,2.06521 -2.04348,2.06521c-1.12858,0 -2.04348,-0.92462 -2.04348,-2.06521c0,-1.14059 0.9149,-2.06522 2.04348,-2.06522c1.12858,0 2.04348,0.92463 2.04348,2.06522z" data-paper-data="{&quot;origPos&quot;:null}" stroke="url(#color-6)" stroke-linecap="butt"/><path d="M325.17857,166.43213c0,1.44975 -3.0376,2.625 -6.78467,2.625c-3.74707,0 -6.78467,-1.17525 -6.78467,-2.625c0,-1.44975 3.0376,-2.625 6.78467,-2.625c3.74707,0 6.78467,1.17525 6.78467,2.625z" data-paper-data="{&quot;origPos&quot;:null}" stroke="url(#color-7)" stroke-linecap="butt"/><path d="M320.67422,175.26801c0,0.16568 -0.33578,0.3 -0.75,0.3c-0.41422,0 -0.75,-0.13431 -0.75,-0.3c0,-0.16568 0.33578,-0.3 0.75,-0.3c0.41422,0 0.75,0.13432 0.75,0.3z" data-paper-data="{&quot;origPos&quot;:null}" stroke="url(#color-8)" stroke-linecap="butt"/><path d="M314.65272,194.35v-9.3h4.82689v9.3z" data-paper-data="{&quot;origPos&quot;:null}" stroke="url(#color-9)" stroke-linecap="butt"/><path d="M322.13822,195.325c0,1.20122 -1.77642,2.175 -3.96775,2.175c-2.19132,0 -3.96775,-0.97378 -3.96775,-2.175c0,-1.20122 1.77642,-2.175 3.96775,-2.175c2.19133,0 3.96775,0.97378 3.96775,2.175z" data-paper-data="{&quot;origPos&quot;:null}" stroke="url(#color-10)" stroke-linecap="butt"/><path d="M315.36133,175.75l4.62206,2.4l-0.17119,7.5h-4.45087z" data-paper-data="{&quot;origPos&quot;:null}" stroke="url(#color-11)" stroke-linecap="round"/><path d="M322.58788,167.00743c0,0.90732 -1.16726,1.64285 -2.60715,1.64285c-1.43989,0 -2.60715,-0.73553 -2.60715,-1.64285c0,-0.90732 1.16726,-1.64286 2.60715,-1.64286c1.43989,0 2.60715,0.73554 2.60715,1.64286z" data-paper-data="{&quot;origPos&quot;:null}" stroke="url(#color-12)" stroke-linecap="butt"/><path d="M320.94502,165.79314c0,0.35504 -0.30381,0.64286 -0.67857,0.64286c-0.37476,0 -0.67857,-0.28782 -0.67857,-0.64286c0,-0.35504 0.30381,-0.64286 0.67857,-0.64286c0.37476,0 0.67857,0.28782 0.67857,0.64286z" data-paper-data="{&quot;origPos&quot;:null}" stroke="url(#color-13)" stroke-linecap="butt"/><path d="M318.54906,165.20619c0,0.32417 -0.30172,0.58696 -0.67391,0.58696c-0.37219,0 -0.67391,-0.26279 -0.67391,-0.58696c0,-0.32417 0.30172,-0.58696 0.67391,-0.58696c0.37219,0 0.67391,0.26279 0.67391,0.58696z" data-paper-data="{&quot;origPos&quot;:null}" stroke="url(#color-14)" stroke-linecap="butt"/><path d="M322.15776,164.9888c0,0.32416 -0.30173,0.58696 -0.67391,0.58696c-0.37219,0 -0.67391,-0.26279 -0.67391,-0.58696c0,-0.32416 0.30173,-0.58695 0.67391,-0.58695c0.37219,0 0.67391,0.26279 0.67391,0.58695z" data-paper-data="{&quot;origPos&quot;:null}" stroke="url(#color-15)" stroke-linecap="butt"/><path d="M315.76645,164.53952c0,1.14059 -0.9149,2.06522 -2.04348,2.06522c-1.12858,0 -2.04348,-0.92463 -2.04348,-2.06522c0,-1.14059 0.9149,-2.06522 2.04348,-2.06522c1.12858,0 2.04348,0.92463 2.04348,2.06522z" data-paper-data="{&quot;origPos&quot;:null}" stroke="url(#color-16)" stroke-linecap="butt"/><path d="M320.48052,172.39718l-3.75922,-0.57206" stroke="url(#color-17)" stroke-linecap="round"/><path d="M321.37946,172.31545l2.942,-0.81722" stroke="url(#color-18)" stroke-linecap="round"/><path d="M318.94708,176.65133c0.03323,0.08856 0.06267,0.20836 0.08765,0.35483c0.00495,0.02193 0.00962,0.04399 0.01401,0.06617c0.03075,0.15537 0.04638,0.31022 0.04792,0.46303c0.21045,2.73658 -0.58177,9.75164 -4.20527,8.7556c-3.09323,-0.85028 -1.87397,-9.67973 -0.23338,-10.31228c0.3549,-0.43613 0.85825,-0.75571 1.45294,-0.87341c1.10376,-0.21845 2.18153,0.32597 2.68773,1.26798c0.05996,0.08359 0.11002,0.17576 0.14841,0.27808z" data-paper-data="{&quot;origPos&quot;:null,&quot;origRot&quot;:0}" stroke="url(#color-19)" stroke-linecap="butt"/><path d="M317.78623,185.63028c0.28951,1.4628 -0.69457,2.88984 -2.19799,3.18739c-1.50343,0.29755 -2.95689,-0.64706 -3.2464,-2.10986c-0.28951,-1.4628 0.69457,-2.88984 2.19799,-3.18739c1.50343,-0.29755 2.95689,0.64706 3.2464,2.10986z" data-paper-data="{&quot;origPos&quot;:null,&quot;origRot&quot;:0}" stroke="url(#color-20)" stroke-linecap="butt"/></g></g></svg>