<svg version="1.1" xmlns="http://www.w3.org/2000/svg" xmlns:xlink="http://www.w3.org/1999/xlink" width="47.29499" height="24.84161" viewBox="0,0,47.29499,24.84161"><g transform="translate(-296.82024,-157.84644)"><g data-paper-data="{&quot;isPaintingLayer&quot;:true}" fill="#000000" fill-rule="nonzero" stroke="none" stroke-width="0.5" stroke-linecap="butt" stroke-linejoin="miter" stroke-miterlimit="10" stroke-dasharray="" stroke-dashoffset="0" style="mix-blend-mode: normal"><path d="M320.56176,161.89124l0.15994,-0.03554l0.14192,-0.08188l0.52477,-0.14993l0.44507,-0.14836l0.23783,-0.01829l0.00198,-0.00099l0.09391,-0.05635l0.06639,-0.11619l0.21815,-0.05454l0.06896,-0.04138l0.04541,-0.05449l0.16529,-0.12079l0.1291,-0.15889l0.10286,-0.07714l0.10117,-0.09198l0.08968,-0.14946l0.16843,-0.16843l0.01006,-0.01677l-0.00101,-0.00369l0.02586,-0.0431l0.01542,-0.04626l0.21588,-0.33924l0.0856,-0.14266l0.03404,-0.06808l0.02269,-0.02648l0.06454,-0.10757l0.03448,-0.03448l0.02698,-0.0424l0.01927,-0.00385l0.03955,-0.03955l0.12029,-0.20048l0.80191,-0.80191l0.24122,-0.14473l0.21359,-0.18308l0.05825,-0.02913l0.00975,-0.01707l0.04876,-0.01219l0.04361,-0.02181l0.10293,-0.02287l0.05527,-0.03316l0.04219,0.01151l0.19214,-0.0427l0.3901,-0.09752h0.04876l0.04907,-0.0109l0.01636,0.0109h0.12639l0.875,0.21875l0.23864,0.41761l0.41761,0.23864l0.21875,0.875v2.48591l-0.06823,0.27291l-0.01398,0.18174l0.00202,0.00467l-0.00291,0.00691l-0.00173,0.02253l0.01514,-0.00505l0.04196,0.02211l0.04193,-0.01048h2.5661l0.1691,0.04227l0.17411,-0.00829l1.60381,0.32076l0.05567,0.02637l0.06158,0.00131l0.8821,0.24057l0.15202,0.08528l0.17015,0.03781l0.32076,0.16038l0.10848,0.09299l0.08717,0.00484l0.22576,0.26338l0.26338,0.22576l0.003,0.05402l0.00759,0.00759l0.03623,0.06038l0.05625,0.01875l0.16875,0.35625l0.20281,0.33802l-0.0156,0.0572l0.02861,0.06041l0.05733,0.03276l0.05454,0.21815l0.11569,0.19282l-0.03521,0.1291l0.08373,0.33494v2.32553l-0.03547,0.1419l0.01166,0.1458l-0.08019,0.48114l-0.02844,0.06541v0.07133l-0.02794,0.11176v0.18552l-0.06823,0.27291l-0.02158,0.28048l-0.04574,0.13721l-0.05882,0.29412l-0.06931,0.14632l-0.02187,0.16042l-0.16038,0.40095l-0.04348,0.0602l-0.01611,0.07249l-0.48114,0.96229l-0.11248,0.13123l-0.15877,0.2977l-0.13457,0.31959l-0.08599,0.11465l0.16176,0.04044l0.28048,0.02158l0.37778,0.12593l0.68473,0.13695l1.27269,0.23863l0.04853,0.02228h0.0534l0.60113,0.15028l0.76107,0.15221l0.14632,0.06931l0.16042,0.02187l0.25177,0.10071l0.64436,0.12887l0.06363,0.03014l0.0572,-0.0156l0.33802,0.20281l0.35625,0.16875l0.01739,0.05216l0.32087,0.12033l0.20548,0.14171l0.23005,0.09686l0.2819,0.21143l0.44073,0.29382l0.05209,0.0573l0.0704,0.03227l0.25618,0.20495l0.15494,0.07747l0.21359,0.18308l0.24122,0.14473l0.11804,0.11804l0.07716,0.05144l0.02678,0.00149l0.29462,0.34373l0.30453,0.33498l-0.00185,0.02676l0.09898,0.19796l0.01707,0.00975l0.01219,0.04876l0.02181,0.04361l0.08723,0.39253l0.0361,0.14438l0.00918,0.0088v0.02792l0.05225,0.209v0.04876l0.0109,0.04907l-0.0109,0.01636v0.12639l-0.05225,0.209v0.21543l-0.08019,0.32076l-0.00468,0.00878l0.00841,0.03083l-0.22362,0.37271l-0.20454,0.38351l-0.03076,0.00865l-0.00512,0.00853l-0.48114,0.48114l-0.24122,0.14473l-0.21359,0.18308l-0.06293,0.03147l-0.14992,0.09995l-0.25522,0.09115l-0.23474,0.13543l-0.56133,0.16038l-0.07224,0.00241l-0.06532,0.03094l-0.17115,0.03423l-0.27153,0.13576l-0.07249,0.01611l-0.0602,0.04348l-0.33337,0.13335l-0.15353,0.07676l-0.00975,0.01707l-0.04876,0.01219l-0.04361,0.02181l-0.39253,0.08723l-0.3901,0.09752l-0.04876,0l-0.0777,0.01727l-0.01793,0.02092l-0.10159,0.00564l-0.05309,0.0118l-0.39917,0.21289l-0.96229,0.24057h-0.21543l-0.209,0.05225h-3.68877l-0.06657,-0.01664l-0.06765,0.01149l-1.04248,-0.08019l-0.1132,-0.03773l-0.11926,0.00404l-0.94139,-0.20173h-1.25804l-0.209,-0.05225h-0.21543l-0.11176,-0.02794h-2.11009l-0.209,-0.05225h-0.21543l-0.11176,-0.02794h-1.46857l-0.0956,-0.0239l-0.09765,0.0132l-0.68337,-0.07593l-1.10622,-0.07375h-1.38516l-0.209,-0.05225h-0.21543l-0.32076,-0.08019l-0.06055,-0.03229l-0.06842,-0.00526l-0.69287,-0.23096l-12.58322,0l-0.00281,0.00212l-0.01315,-0.00212h-0.18792l-0.34167,-0.08542l-0.34769,-0.05608l-0.17272,-0.07402l-0.01292,-0.00323l-0.00175,-0.00305l-0.04379,-0.01877h-0.04175l-0.32154,-0.08038l-0.3284,-0.04478l-0.21867,-0.08747h-0.19736l-0.32076,-0.08019l-0.41769,-0.22277l-0.13616,-0.00756l-0.10272,-0.11983l-0.13926,-0.07427l-0.03692,-0.13127l-0.05067,-0.05911l-0.00978,-0.00587l-0.03785,-0.03785l-0.09639,-0.06426l-0.49338,-0.54272l-0.06714,-0.03837l-0.01224,-0.04895l-0.03394,-0.03734l0.00532,-0.07715l-0.17789,-0.71157v-0.80191l0.01708,-0.06831l-0.02652,-0.05303l0.13258,-0.37123l0.09561,-0.38243l0.01268,-0.00724l-0.64852,0.05896l-0.07995,-0.01244l-0.07849,0.01962l-0.67754,0l-0.15708,0.02244l-0.22714,0.11357l-0.25519,0.05671l-0.23974,0.10423l-0.31351,0.05225l-0.4824,0.1809l-0.22612,0.02584l-0.21421,0.0769l-0.80191,0.08019l-0.08792,-0.01287l-0.08621,0.02155h-0.40095l-0.875,-0.21875l-0.23864,-0.41761l-0.41761,-0.23864l-0.13096,-0.52383l-0.03554,-0.03406l0,-0.10811l-0.05225,-0.209v-0.16038l0.05225,-0.209v-0.21543l0.08019,-0.32076l0.09069,-0.17005l0.04181,-0.18814l0.16038,-0.32076l0.09299,-0.10848l0.00484,-0.08717l0.26338,-0.22576l0.11993,-0.13992l0.08019,-0.16038l0.18308,-0.21359l0.14473,-0.24122l0.11804,-0.11804l0.00383,-0.00574l0.03147,-0.06293l0.18308,-0.21359l0.07408,-0.12346l0.00105,-0.01898l0.02128,-0.01824l0.04832,-0.08054l0.16038,-0.16038l0.08054,-0.04832l0.01824,-0.02128l0.01898,-0.00105l0.02452,-0.01471l0.09611,-0.12815l0.22996,-0.18684l0.19931,-0.21924l0.09639,-0.06426l0.03785,-0.03785l0.14946,-0.08968l0.09603,-0.10563l0.07527,-0.12546l0.48114,-0.48114l0.20048,-0.12029l0.12029,-0.12029l0.10757,-0.06454l0.02648,-0.02269l0.06808,-0.03404l0.03909,-0.02345l0.21359,-0.18308l0.38752,-0.19376l0.11995,-0.11995l0.14946,-0.08968l0.11725,-0.12897l0.24057,-0.16038l0.22013,-0.07862l0.1972,-0.12549l0.24057,-0.08019l0.06842,-0.00526l0.06055,-0.03229l0.32076,-0.08019h0.0376l0.15713,-0.03492l0.3901,-0.09752l0.04876,0l0.01329,-0.00295l0.10627,-0.06762l0.24057,-0.08019l0.1384,-0.01065l0.1273,-0.05535l0.27102,-0.04517l0.00824,-0.00549l0.22013,-0.07862l0.1972,-0.12549l0.24057,-0.08019l0.11026,-0.00848l0.09994,-0.04734l0.17115,-0.03423l0.27153,-0.13576l0.07249,-0.01611l0.0602,-0.04348l0.23177,-0.09271l0.74749,-0.49833l1.33235,-1.06588l0.00967,-0.01451l0.10704,-0.09731v-0.28983l-0.02182,-0.01247l-0.09238,-0.36952l-0.05093,-0.10187l-0.01707,-0.00975l-0.01219,-0.04876l-0.02181,-0.04361l-0.08723,-0.39253l-0.08628,-0.34512l-0.04374,-0.10387l-0.10352,-0.12077l-0.11267,-0.22534l-0.35083,-0.30071l-0.00383,-0.069l-0.06,-0.03428l-0.05732,-0.22926l-0.04982,-0.04982l-0.08968,-0.14946l-0.12897,-0.11725l-0.15049,-0.22573l-0.00565,-0.00226l-0.01457,-0.01052l-0.0355,0.00444l-0.33314,-0.27067l-0.34797,-0.25131l-0.00494,-0.03543l-0.01395,-0.01133l-0.16595,-0.22127l-0.07244,-0.07244l-0.06481,-0.10801l-0.09776,-0.07943l-0.24057,-0.32076l-0.00163,-0.00387l-0.04289,-0.03677l-0.25688,-0.137l-0.03083,-0.1096l-0.21634,-0.18543l-0.04041,-0.72746l-0.01523,-0.05416l-0.06655,-0.11647l0.02265,-0.03964l-0.13078,-0.46499l0.14405,-0.15031l-0.01155,-0.20787l0.58364,-0.3891l0.26593,-0.27749l0.00106,-0.00185l0.00094,-0.00024l0.23619,-0.24645l0.28493,0l0.09473,-0.06315l0.28419,0.06315h0.23807l0.11176,0.02794l0.26571,0l0.33494,0.08373l0.1291,-0.03521l0.19282,0.11569l0.12657,0.03164l0.1458,-0.01166l0.96229,0.16038l0.06541,0.02844h0.07133l0.32076,0.08019l0.17005,0.09069l0.07847,0.01744h0.52991l0.1691,0.04227l0.17411,-0.00829l0.23103,0.04621h0.30786l0.1419,0.03547l0.1458,-0.01166l0.48114,0.08019l0.02657,0.01155l0.02894,-0.00138l0.40095,0.08019l0.03856,0.01827h0.04267l0.32076,0.08019l0.22835,0.12179l0.24758,0.07535l0.40095,0.24057l0.03017,0.03017l0.04018,0.01435l0.24057,0.16038l0.03345,0.03679l0.04583,0.0193l0.32076,0.24057l0.07943,0.09776l0.10801,0.06481l0.40095,0.40095l0.0507,0.0845l0.07838,0.05972l0.4718,0.58975l0.25508,0.17005l0.19931,0.21924l0.22996,0.18684l0.15116,0.20154l0.12435,-0.03109l0.05883,-0.01961l0.04914,-0.02457l0.22818,-0.05071l0.21124,-0.10006l0.40095,-0.08019l0.04967,0.00237l0.04605,-0.01876l0.443,-0.06329l0.4464,-0.12754l0.05337,-0.00178l0.04776,-0.02388l0.63359,-0.1408l0.51809,-0.1727z"/></g></g></svg>